<?xml version="1.0" encoding="iso-8859-1"?>
<!-- Generator: Adobe Illustrator 19.0.0, SVG Export Plug-In . SVG Version: 6.00 Build 0)  -->
<svg version="1.1" id="Capa_1" xmlns="http://www.w3.org/2000/svg" xmlns:xlink="http://www.w3.org/1999/xlink" x="0px" y="0px"
	 viewBox="0 0 512.019 512.019" style="enable-background:new 0 0 512.019 512.019;" xml:space="preserve">
<g>
	<path style="fill:#64B5F6;" d="M231.576,280.462l-42.667-42.667c-2.005-2.005-4.715-3.115-7.552-3.115h-42.667
		c-5.888,0-10.667,4.779-10.667,10.667v149.333c0,4.523,2.859,8.576,7.125,10.069c1.131,0.405,2.325,0.597,3.541,0.597
		c3.243,0,6.315-1.451,8.341-3.989l85.333-106.667C235.779,290.446,235.437,284.302,231.576,280.462z"/>
	<path style="fill:#64B5F6;" d="M401.347,365.006L294.68,279.673c-4.245-3.392-10.368-3.051-14.208,0.789l-42.667,42.667
		c-2.005,2.005-3.115,4.715-3.115,7.552v42.667c0,5.888,4.779,10.667,10.667,10.667h149.333c5.888,0,10.667-4.757,10.667-10.667
		C405.357,370.105,403.885,367.033,401.347,365.006z"/>
	<path style="fill:#64B5F6;" d="M376.899,107.278c-4.267-1.493-9.024-0.149-11.861,3.392l-85.333,106.667
		c-3.392,4.245-3.051,10.368,0.789,14.208l42.667,42.667c2.005,2.005,4.715,3.136,7.531,3.136h42.667
		c5.888,0,10.667-4.779,10.667-10.667V117.348C384.024,112.825,381.165,108.772,376.899,107.278z"/>
	<path style="fill:#64B5F6;" d="M266.691,128.014H117.357c-5.888-0.021-10.688,4.736-10.688,10.645c0,3.264,1.472,6.336,4.011,8.363
		l106.667,85.333c4.245,3.392,10.368,3.051,14.208-0.789l42.667-42.667c2.005-2.005,3.136-4.715,3.136-7.552v-42.667
		C277.357,132.793,272.579,128.014,266.691,128.014z"/>
</g>
<g>
	<path style="fill:#2196F3;" d="M511.213,262.606c-1.643-3.989-5.547-6.592-9.856-6.592h-192c-2.837,0-5.547,1.109-7.552,3.115
		l-21.333,21.333c-4.16,4.16-4.16,10.923,0,15.083c0.277,0.277,0.576,0.533,0.875,0.789l106.667,85.333
		c4.245,3.392,10.368,3.051,14.208-0.789l106.667-106.667C511.939,271.161,512.856,266.596,511.213,262.606z"/>
	<path style="fill:#2196F3;" d="M380.909,109.796L274.243,3.129c-3.051-3.051-7.637-3.968-11.627-2.304
		c-3.989,1.643-6.592,5.547-6.592,9.856v192c0,2.837,1.109,5.547,3.115,7.552l21.333,21.333c2.005,2.005,4.715,3.115,7.552,3.115
		h0.597c3.029-0.171,5.845-1.621,7.744-3.989l85.333-106.667C385.112,119.78,384.771,113.636,380.909,109.796z"/>
	<path style="fill:#2196F3;" d="M230.68,215.673L124.013,130.34c-4.245-3.392-10.368-3.051-14.208,0.789L3.139,237.796
		c-4.181,4.16-4.181,10.923-0.021,15.083c2.005,2.005,4.736,3.136,7.573,3.136h192c2.837,0,5.547-1.109,7.552-3.115l21.333-21.333
		c4.16-4.16,4.16-10.923,0-15.083C231.299,216.206,231,215.95,230.68,215.673L230.68,215.673z"/>
	<path style="fill:#2196F3;" d="M252.909,301.796l-21.333-21.333c-2.133-2.176-5.099-3.328-8.149-3.115
		c-3.029,0.171-5.845,1.621-7.744,3.989l-85.333,106.667c-3.392,4.245-3.051,10.368,0.789,14.208l106.667,106.667
		c2.005,2.005,4.715,3.136,7.552,3.136c1.408,0,2.773-0.277,4.075-0.811c3.989-1.643,6.592-5.547,6.592-9.856v-192
		C256.024,306.51,254.915,303.801,252.909,301.796z"/>
</g>
<path d="M202.691,256.014h-192c-4.309,0-8.213-2.603-9.856-6.592c-1.664-3.989-0.747-8.576,2.304-11.627l106.667-106.667
	c3.861-3.861,9.963-4.16,14.208-0.789l106.667,85.333c2.368,1.899,3.819,4.715,3.989,7.744s-0.96,5.995-3.115,8.128l-21.333,21.333
	C208.237,254.884,205.528,256.014,202.691,256.014z M36.44,234.681h161.835l9.771-9.771l-89.899-71.936L36.44,234.681z"/>
<path d="M224.024,234.681c-2.731,0-5.461-1.045-7.552-3.115c-4.16-4.16-4.16-10.923,0-15.083l39.552-39.552v-27.584H117.357
	c-5.888,0-10.667-4.779-10.667-10.667s4.779-10.667,10.667-10.667h149.333c5.888,0,10.667,4.779,10.667,10.667v42.667
	c0,2.837-1.131,5.547-3.115,7.552l-42.667,42.667C229.485,233.636,226.755,234.681,224.024,234.681z"/>
<path d="M245.357,512.014c-2.773,0-5.504-1.088-7.552-3.115L131.139,402.233c-3.84-3.84-4.181-9.963-0.789-14.208l85.333-106.667
	c1.899-2.368,4.715-3.819,7.744-3.989c3.072-0.32,5.995,0.981,8.128,3.115l21.333,21.333c2.005,1.984,3.136,4.693,3.136,7.531v192
	c0,4.309-2.603,8.213-6.592,9.856C248.109,511.737,246.723,512.014,245.357,512.014z M152.984,393.892l81.707,81.707V313.764
	l-9.771-9.771L152.984,393.892z"/>
<path d="M138.691,405.348c-5.888,0-10.667-4.779-10.667-10.667V245.348c0-5.888,4.779-10.667,10.667-10.667h42.667
	c2.837,0,5.547,1.131,7.552,3.115l42.667,42.667c4.16,4.16,4.16,10.923,0,15.083c-4.16,4.16-10.923,4.16-15.083,0l-39.552-39.531
	h-27.584v138.667C149.357,400.569,144.579,405.348,138.691,405.348z"/>
<path d="M394.691,384.014c-2.347,0-4.715-0.768-6.656-2.325l-106.667-85.333c-2.368-1.899-3.819-4.715-3.989-7.744
	c-0.171-3.029,0.96-5.973,3.115-8.128l21.333-21.333c1.984-2.005,4.693-3.136,7.531-3.136h192c4.309,0,8.213,2.603,9.856,6.592
	c1.643,3.989,0.725,8.576-2.304,11.627L402.243,380.9C400.173,382.948,397.443,384.014,394.691,384.014z M304.003,287.14
	l89.899,71.915l81.707-81.707H313.773L304.003,287.14z"/>
<path d="M394.691,384.014H245.357c-5.888,0-10.667-4.779-10.667-10.667v-42.667c0-2.837,1.131-5.547,3.115-7.552l42.667-42.667
	c4.16-4.16,10.923-4.16,15.083,0c4.16,4.16,4.16,10.923,0,15.083l-39.531,39.552v27.584h138.667c5.888,0,10.667,4.779,10.667,10.667
	C405.357,379.236,400.579,384.014,394.691,384.014z"/>
<path d="M288.024,234.681c-2.816,0-5.547-1.109-7.552-3.115l-21.333-21.333c-1.984-2.005-3.115-4.715-3.115-7.552v-192
	c0-4.309,2.603-8.213,6.592-9.856c3.989-1.643,8.576-0.747,11.627,2.304l106.667,106.667c3.861,3.84,4.181,9.963,0.789,14.208
	L296.365,230.67c-1.899,2.368-4.715,3.819-7.744,3.989C288.429,234.681,288.216,234.681,288.024,234.681z M277.357,198.265
	l9.792,9.771l71.915-89.899L277.357,36.43V198.265z"/>
<path d="M373.357,277.348h-42.667c-2.837,0-5.547-1.131-7.552-3.115l-42.667-42.667c-4.16-4.16-4.16-10.923,0-15.083
	c4.16-4.16,10.923-4.16,15.083,0l39.552,39.531h27.584V117.348c0-5.888,4.779-10.667,10.667-10.667
	c5.888,0,10.667,4.779,10.667,10.667v149.333C384.024,272.569,379.245,277.348,373.357,277.348z"/>
<g>
</g>
<g>
</g>
<g>
</g>
<g>
</g>
<g>
</g>
<g>
</g>
<g>
</g>
<g>
</g>
<g>
</g>
<g>
</g>
<g>
</g>
<g>
</g>
<g>
</g>
<g>
</g>
<g>
</g>
</svg>
