<?xml version="1.0" encoding="iso-8859-1"?>
<!-- Generator: Adobe Illustrator 19.0.0, SVG Export Plug-In . SVG Version: 6.00 Build 0)  -->
<svg version="1.1" id="Capa_1" xmlns="http://www.w3.org/2000/svg" xmlns:xlink="http://www.w3.org/1999/xlink" x="0px" y="0px"
	 viewBox="0 0 512.044 512.044" style="enable-background:new 0 0 512.044 512.044;" xml:space="preserve">
<g>
	<path style="fill:#90A4AE;" d="M64.011,128.044h106.667c5.888,0,10.667,4.779,10.667,10.667v85.333
		c0,5.888-4.779,10.667-10.667,10.667H64.011c-5.888,0-10.667-4.779-10.667-10.667V138.71
		C53.344,132.822,58.123,128.044,64.011,128.044z"/>
	<path style="fill:#90A4AE;" d="M341.344,128.044h-42.667c-5.888,0-10.667,4.779-10.667,10.667v85.333
		c0,5.888,4.779,10.667,10.667,10.667h21.333c17.664,0,32,14.336,32,32v42.667c0,5.888,4.779,10.667,10.667,10.667h85.333
		c5.888,0,10.667-4.779,10.667-10.667v-64C458.614,180.609,406.112,128.107,341.344,128.044z"/>
</g>
<path style="fill:#2196F3;" d="M414.134,367.318c-3.733-4.843-10.688-5.76-15.531-2.027c-0.768,0.576-1.451,1.259-2.027,2.027
	c-7.445,10.667-44.544,65.792-44.544,91.392c0,29.461,23.872,53.333,53.333,53.333c29.461,0,53.333-23.872,53.333-53.333
	C458.678,433.11,421.558,378.092,414.134,367.318z"/>
<path style="fill:#455A64;" d="M234.678,106.71c-5.888,0-10.667-4.779-10.667-10.667V43.265c0-5.888,4.779-10.667,10.667-10.667
	s10.667,4.779,10.667,10.667v52.779C245.344,101.932,240.566,106.71,234.678,106.71z"/>
<g>
	<path style="fill:#607D8B;" d="M213.344,85.377h42.667c29.461,0,53.333,23.872,53.333,53.333v85.333
		c0,29.461-23.872,53.333-53.333,53.333h-42.667c-29.461,0-53.333-23.872-53.333-53.333V138.71
		C160.011,109.249,183.883,85.377,213.344,85.377z"/>
	<path style="fill:#607D8B;" d="M298.678,0.044c-21.568,1.429-42.987,4.693-64,9.749c-21.013-5.056-42.432-8.32-64-9.749
		c-17.664,0-32,14.336-32,32s14.336,32,32,32c21.568-1.429,42.987-4.693,64-9.749c21.013,5.056,42.432,8.32,64,9.749
		c17.664,0,32-14.336,32-32S316.342,0.044,298.678,0.044z"/>
</g>
<path d="M170.678,234.71H64.011c-5.888,0-10.667-4.779-10.667-10.667V138.71c0-5.888,4.779-10.667,10.667-10.667h106.667
	c5.888,0,10.667,4.779,10.667,10.667v85.333C181.344,229.932,176.566,234.71,170.678,234.71z M74.678,213.377h85.333v-64H74.678
	V213.377z"/>
<path d="M256.011,277.377h-42.667c-29.397,0-53.333-23.936-53.333-53.333V138.71c0-29.397,23.936-53.333,53.333-53.333h42.667
	c29.419,0,53.333,23.936,53.333,53.333v85.333C309.344,253.441,285.43,277.377,256.011,277.377z M213.344,106.71
	c-17.643,0-32,14.357-32,32v85.333c0,17.643,14.357,32,32,32h42.667c17.643,0,32-14.357,32-32V138.71c0-17.643-14.357-32-32-32
	H213.344z"/>
<path d="M448.011,320.044h-85.333c-5.888,0-10.667-4.779-10.667-10.667V266.71c0-17.643-14.357-32-32-32h-21.333
	c-5.888,0-10.667-4.779-10.667-10.667V138.71c0-5.888,4.779-10.667,10.667-10.667h42.667c64.683,0,117.333,52.629,117.333,117.333
	v64C458.678,315.265,453.899,320.044,448.011,320.044z M373.344,298.71h64v-53.333c0-52.928-43.072-96-96-96h-32v64h10.667
	c29.419,0,53.333,23.936,53.333,53.333V298.71z"/>
<path d="M405.344,512.044c-29.419,0-53.333-23.915-53.333-53.333c0-25.472,37.099-80.597,44.565-91.392
	c3.968-5.76,13.589-5.76,17.536,0c7.467,10.795,44.565,65.92,44.565,91.392C458.678,488.129,434.763,512.044,405.344,512.044z
	 M405.344,392.684c-15.36,24.021-32,54.443-32,66.027c0,17.643,14.357,32,32,32s32-14.357,32-32
	C437.344,447.105,420.704,416.684,405.344,392.684z"/>
<path d="M298.678,64.044c-22.016-1.515-43.328-4.8-64-9.792c-20.672,4.992-41.941,8.277-63.253,9.771c0,0-0.021,0-0.043,0
	c-18.389,0-32.704-14.357-32.704-31.979c0-17.643,14.357-32,32-32c21.995,1.493,43.285,4.779,64,9.771
	c20.715-4.992,41.984-8.277,63.253-9.771c18.027-0.96,32.747,14.101,32.747,32C330.678,49.686,316.32,64.044,298.678,64.044z
	 M234.678,32.598c0.875,0,1.728,0.107,2.581,0.32c20.288,5.056,41.216,8.363,62.187,9.813c5.099-0.021,9.899-4.8,9.899-10.688
	c0-5.781-4.629-10.496-10.347-10.667c-20.8,1.472-41.557,4.757-61.739,9.771c-1.685,0.427-3.456,0.427-5.141,0
	c-20.331-5.035-41.259-8.341-62.187-9.792c-5.141,0.021-9.92,4.8-9.92,10.688s4.779,10.667,10.667,10.667
	c20.224-1.429,41.131-4.757,61.419-9.792C232.95,32.705,233.803,32.598,234.678,32.598z"/>
<path d="M234.678,106.71c-5.888,0-10.667-4.779-10.667-10.667V43.265c0-5.888,4.779-10.667,10.667-10.667
	s10.667,4.779,10.667,10.667v52.779C245.344,101.932,240.566,106.71,234.678,106.71z"/>
<g>
</g>
<g>
</g>
<g>
</g>
<g>
</g>
<g>
</g>
<g>
</g>
<g>
</g>
<g>
</g>
<g>
</g>
<g>
</g>
<g>
</g>
<g>
</g>
<g>
</g>
<g>
</g>
<g>
</g>
</svg>
