<?xml version="1.0" encoding="iso-8859-1"?>
<!-- Generator: Adobe Illustrator 19.0.0, SVG Export Plug-In . SVG Version: 6.00 Build 0)  -->
<svg version="1.1" id="Capa_1" xmlns="http://www.w3.org/2000/svg" xmlns:xlink="http://www.w3.org/1999/xlink" x="0px" y="0px"
	 viewBox="0 0 490.667 490.667" style="enable-background:new 0 0 490.667 490.667;" xml:space="preserve">
<path style="fill:#CFD8DC;" d="M337.984,125.099c4.288-4.032,4.501-10.795,0.448-15.083c-2.005-2.133-4.821-3.349-7.765-3.349
	H117.333c-5.888,0-10.667,4.779-10.667,10.667c0,0.661,0.064,1.301,0.192,1.963l11.947,64c0.939,5.035,5.355,8.704,10.475,8.704
	h133.333c2.709,0,5.333-1.045,7.317-2.901L337.984,125.099z"/>
<g>
	<path style="fill:#2196F3;" d="M289.493,170.667H116.416l22.443,119.296c1.088,5.781,6.677,9.6,12.459,8.491
		c2.005-0.384,3.84-1.323,5.333-2.709L289.493,170.667z"/>
	<path style="fill:#2196F3;" d="M373.056,183.701c1.301-5.739-2.304-11.456-8.064-12.757c-3.563-0.811-7.296,0.277-9.877,2.859
		l-192,192c-2.645,2.645-3.733,6.485-2.816,10.133l10.667,42.667c1.195,4.757,5.461,8.085,10.368,8.064h128
		c4.971,0,9.28-3.456,10.389-8.299L373.056,183.701z"/>
</g>
<path style="fill:#F44336;" d="M419.243,72.533c-0.171-0.213-0.235-0.469-0.427-0.661c-0.192-0.192-0.448-0.256-0.661-0.427
	c-97.067-94.421-252.288-92.288-346.709,4.779c-92.587,95.168-92.587,246.741-0.021,341.909c0.171,0.213,0.235,0.469,0.427,0.661
	s0.448,0.256,0.661,0.427c97.067,94.421,252.288,92.288,346.709-4.779C511.808,319.275,511.808,167.701,419.243,72.533z
	 M21.333,245.333c-0.213-123.499,99.733-223.787,223.232-224c55.936-0.107,109.888,20.779,151.189,58.496L79.829,395.755
	C42.219,354.688,21.355,301.013,21.333,245.333z M469.333,245.333c0.213,123.499-99.733,223.787-223.232,224
	c-55.936,0.107-109.888-20.779-151.189-58.496L410.837,94.912C448.448,135.979,469.312,189.653,469.333,245.333z"/>
<path d="M149.333,298.667c-5.035,0-9.515-3.584-10.475-8.704l-32-170.667c-0.597-3.115,0.235-6.336,2.261-8.768
	c2.027-2.432,5.035-3.861,8.213-3.861h213.333c5.888,0,10.667,4.779,10.667,10.667S336.555,128,330.667,128H130.197l29.632,158.037
	c1.088,5.781-2.709,11.349-8.512,12.437C150.635,298.603,149.973,298.667,149.333,298.667z"/>
<path d="M309.333,426.667h-128c-4.885,0-9.152-3.328-10.347-8.085l-10.667-42.667c-1.429-5.717,2.048-11.499,7.765-12.928
	c5.717-1.408,11.499,2.048,12.928,7.765l8.661,34.581h111.147l51.456-226.368c1.323-5.717,6.933-9.344,12.757-8.043
	c5.76,1.323,9.344,7.019,8.043,12.779l-53.333,234.667C318.635,423.232,314.304,426.667,309.333,426.667z"/>
<path d="M266.667,192h-128c-5.888,0-10.667-4.779-10.667-10.667s4.779-10.667,10.667-10.667h128c5.888,0,10.667,4.779,10.667,10.667
	S272.555,192,266.667,192z"/>
<path d="M245.333,490.667C110.059,490.667,0,380.608,0,245.333S110.059,0,245.333,0s245.333,110.059,245.333,245.333
	S380.608,490.667,245.333,490.667z M245.333,21.333c-123.52,0-224,100.48-224,224s100.48,224,224,224s224-100.48,224-224
	S368.853,21.333,245.333,21.333z"/>
<path d="M79.403,421.931c-2.731,0-5.461-1.045-7.552-3.115c-4.16-4.16-4.16-10.923,0-15.083L403.733,71.872
	c4.16-4.16,10.923-4.16,15.083,0c4.16,4.16,4.16,10.923,0,15.083L86.955,418.816C84.864,420.885,82.133,421.931,79.403,421.931z"/>
<g>
</g>
<g>
</g>
<g>
</g>
<g>
</g>
<g>
</g>
<g>
</g>
<g>
</g>
<g>
</g>
<g>
</g>
<g>
</g>
<g>
</g>
<g>
</g>
<g>
</g>
<g>
</g>
<g>
</g>
</svg>
