<?xml version="1.0" encoding="iso-8859-1"?>
<!-- Generator: Adobe Illustrator 19.0.0, SVG Export Plug-In . SVG Version: 6.00 Build 0)  -->
<svg version="1.1" id="Capa_1" xmlns="http://www.w3.org/2000/svg" xmlns:xlink="http://www.w3.org/1999/xlink" x="0px" y="0px"
	 viewBox="0 0 511.987 511.987" style="enable-background:new 0 0 511.987 511.987;" xml:space="preserve">
<path style="fill:#4CAF50;" d="M479.223,148.829c0.512-3.371,0.789-6.763,0.853-10.176C480.013,73.885,427.511,21.384,362.743,21.32
	c-16.683,0.021-33.152,3.733-48.256,10.837c-26.133-35.243-75.883-42.645-111.125-16.512c-13.355,9.899-23.275,23.744-28.352,39.573
	c-14.272-8.256-30.464-12.587-46.933-12.565c-53.013,0-96,42.987-96,96c0.064,9.237,1.515,18.411,4.267,27.221
	c-16.576,21.141-25.579,47.232-25.6,74.112c-0.341,67.392,54.037,122.304,121.429,122.624c12.245,0.064,24.448-1.728,36.16-5.291
	l159.851,0.64c11.264,3.051,22.891,4.629,34.56,4.693c76.587-0.021,138.645-62.144,138.624-138.709
	C501.346,197.299,493.666,171.208,479.223,148.829z"/>
<path style="fill:#388E3C;" d="M434.295,237.768c-21.333-21.333-105.792-24.128-137.579-24.427
	c-9.621-41.259-12.608-83.819-8.832-126.016c1.109-5.781-2.688-11.371-8.469-12.48c-3.456-0.661-7.04,0.427-9.536,2.923
	c-23.765,23.765-55.275,125.803-64.469,156.885h-120c-5.888,0-10.667,4.757-10.688,10.645c0,4.608,2.944,8.704,7.339,10.155
	c0.896,0.299,85.611,28.501,119.467,57.451c-4.928,63.168-4.501,126.656,1.28,189.76c0.683,5.333,5.227,9.323,10.603,9.323h106.667
	c5.888,0,10.667-4.779,10.667-10.667c0-0.832-0.107-1.685-0.299-2.496c-11.285-46.827-39.851-171.029-42.219-206.699
	c26.027-24.939,87.488-36.139,138.517-36.139c5.888,0,10.667-4.757,10.688-10.645C437.431,242.504,436.301,239.773,434.295,237.768z
	"/>
<path d="M132.898,362.568c-28.928,0-57.557-10.219-79.915-29.483c-24.683-21.269-39.616-50.88-42.048-83.371
	c-2.261-30.421,6.699-59.968,25.301-83.883c-9.472-30.827-2.688-64.597,18.283-89.451c30.187-35.797,81.237-43.776,120.469-21.269
	c6.123-18.965,19.2-35.179,36.992-45.077C247.202-9.592,291.085,0.52,314.53,32.093c15.04-6.976,31.509-10.667,48.149-10.773
	c64.747,0,117.397,52.629,117.397,117.333c-0.128,3.584-0.405,6.976-0.811,10.261c21.269,32.939,27.584,73.237,17.301,111.232
	c-9.664,35.691-32.64,65.472-64.704,83.883s-69.355,23.253-105.067,13.547c-5.696-1.536-9.045-7.403-7.509-13.077
	c1.536-5.675,7.381-9.024,13.077-7.509c30.208,8.171,61.76,4.096,88.853-11.456c27.115-15.552,46.592-40.768,54.741-70.955
	c9.003-33.301,2.965-68.672-16.619-97.067c-1.536-2.261-2.197-5.035-1.728-7.765c0.597-3.819,0.981-7.637,1.131-11.52
	c0-52.501-43.072-95.573-96-95.573c-16.299,0.107-32.427,4.459-46.592,12.608c-2.453,1.429-5.44,1.792-8.171,1.024
	c-2.752-0.768-5.077-2.603-6.464-5.077c-15.637-28.053-51.157-38.187-79.168-22.528c-16.747,9.323-27.819,26.304-29.611,45.397
	c-0.363,3.968-2.901,7.381-6.571,8.896c-3.648,1.493-7.872,0.853-10.923-1.728c-31.232-26.304-78.08-22.357-104.405,8.875
	c-17.344,20.544-22.187,48.96-12.629,74.091c1.408,3.669,0.661,7.787-1.877,10.752c-17.557,20.373-26.112,46.357-24.107,73.173
	s14.315,51.243,34.688,68.8c26.389,22.699,63.403,30.187,96.555,19.541c5.589-1.792,11.605,1.28,13.419,6.869
	c1.792,5.611-1.28,11.627-6.891,13.419C157.901,360.648,145.357,362.568,132.898,362.568z"/>
<path d="M320.077,511.987H213.41c-5.376,0-9.92-4.011-10.581-9.344c-3.691-29.568-8.213-151.787-1.28-189.739
	c-33.877-28.949-118.613-57.152-119.488-57.451c-4.971-1.643-8.021-6.656-7.189-11.819c0.832-5.184,5.291-8.981,10.539-8.981h120
	c9.195-31.083,40.683-133.099,64.448-156.885c3.328-3.328,8.405-4.075,12.544-1.877c4.139,2.197,6.357,6.827,5.483,11.435
	c-7.552,39.125,4.16,103.339,8.811,126.016c31.765,0.299,116.288,3.136,137.579,24.427c3.051,3.051,3.968,7.637,2.304,11.627
	c-1.621,3.989-5.525,6.592-9.835,6.592c-51.051,0-112.491,11.2-138.517,36.139c2.368,35.669,30.933,159.851,42.219,206.677
	c0.768,3.157,0.021,6.528-2.005,9.109C326.434,510.493,323.341,511.987,320.077,511.987z M223.01,490.653h83.563
	c-9.984-42.133-39.829-170.944-39.829-202.667c0-2.624,0.96-5.141,2.709-7.104c20.203-22.656,59.328-35.605,99.008-41.749
	c-25.771-3.136-55.893-4.459-80.341-4.48c-0.021,0-0.021,0-0.043,0c-4.949,0-9.28-3.413-10.389-8.256
	c-0.619-2.709-11.563-50.432-13.333-96.299c-14.635,34.219-30.635,83.157-40.683,118.165c-1.323,4.587-5.504,7.723-10.261,7.723
	h-70.443c28.48,12.288,60.928,28.736,77.995,45.781c2.965,2.965,3.925,7.381,2.453,11.285
	C217.25,329.437,218.743,442.952,223.01,490.653z"/>
<g>
</g>
<g>
</g>
<g>
</g>
<g>
</g>
<g>
</g>
<g>
</g>
<g>
</g>
<g>
</g>
<g>
</g>
<g>
</g>
<g>
</g>
<g>
</g>
<g>
</g>
<g>
</g>
<g>
</g>
</svg>
