<?xml version="1.0" encoding="iso-8859-1"?>
<!-- Generator: Adobe Illustrator 19.0.0, SVG Export Plug-In . SVG Version: 6.00 Build 0)  -->
<svg version="1.1" id="Capa_1" xmlns="http://www.w3.org/2000/svg" xmlns:xlink="http://www.w3.org/1999/xlink" x="0px" y="0px"
	 viewBox="0 0 512.037 512.037" style="enable-background:new 0 0 512.037 512.037;" xml:space="preserve">
<rect x="3.563" y="320.019" style="fill:#03A9F4;" width="508.437" height="181.333"/>
<g>
	<path style="fill:#0288D1;" d="M224,373.352h-85.333c-5.888,0-10.667-4.779-10.667-10.667c0-5.888,4.779-10.667,10.667-10.667H224
		c5.888,0,10.667,4.779,10.667,10.667C234.667,368.573,229.888,373.352,224,373.352z"/>
	<path style="fill:#0288D1;" d="M394.667,394.685h-85.333c-5.888,0-10.667-4.779-10.667-10.667s4.779-10.667,10.667-10.667h85.333
		c5.888,0,10.667,4.779,10.667,10.667S400.555,394.685,394.667,394.685z"/>
	<path style="fill:#0288D1;" d="M266.667,437.352h-64c-5.888,0-10.667-4.779-10.667-10.667c0-5.888,4.779-10.667,10.667-10.667h64
		c5.888,0,10.667,4.779,10.667,10.667C277.333,432.573,272.555,437.352,266.667,437.352z"/>
	<path style="fill:#0288D1;" d="M96.427,373.352c-5.888,0-10.667-4.779-10.667-10.667c0-5.888,4.779-10.667,10.667-10.667h0.213
		c5.888,0,10.667,4.779,10.667,10.667c0,5.888-4.779,10.667-10.667,10.667H96.427z"/>
	<path style="fill:#0288D1;" d="M267.093,394.685c-5.888,0-10.667-4.779-10.667-10.667s4.779-10.667,10.667-10.667h0.213
		c5.888,0,10.667,4.779,10.667,10.667s-4.779,10.667-10.667,10.667H267.093z"/>
	<path style="fill:#0288D1;" d="M309.76,437.352c-5.888,0-10.667-4.779-10.667-10.667c0-5.888,4.779-10.667,10.667-10.667h0.213
		c5.888,0,10.667,4.779,10.667,10.667c0,5.888-4.779,10.667-10.667,10.667H309.76z"/>
	<path style="fill:#0288D1;" d="M160.427,437.352c-5.888,0-10.667-4.779-10.667-10.667c0-5.888,4.779-10.667,10.667-10.667h0.213
		c5.888,0,10.667,4.779,10.667,10.667c0,5.888-4.779,10.667-10.667,10.667H160.427z"/>
	<path style="fill:#0288D1;" d="M224.427,480.019c-5.888,0-10.667-4.779-10.667-10.667c0-5.888,4.779-10.667,10.667-10.667h0.213
		c5.888,0,10.667,4.779,10.667,10.667c0,5.888-4.779,10.667-10.667,10.667H224.427z"/>
	<path style="fill:#0288D1;" d="M267.093,480.019c-5.888,0-10.667-4.779-10.667-10.667c0-5.888,4.779-10.667,10.667-10.667h0.213
		c5.888,0,10.667,4.779,10.667,10.667c0,5.888-4.779,10.667-10.667,10.667H267.093z"/>
	<path style="fill:#0288D1;" d="M309.76,480.019c-5.888,0-10.667-4.779-10.667-10.667c0-5.888,4.779-10.667,10.667-10.667h0.213
		c5.888,0,10.667,4.779,10.667,10.667c0,5.888-4.779,10.667-10.667,10.667H309.76z"/>
</g>
<path style="fill:#546E7A;" d="M458.667,96.019c-2.069,0-4.096-0.597-5.824-1.728c-11.456-8.107-23.915-14.699-37.056-19.605
	c-5.888,0-10.667-4.779-10.667-10.667s4.779-10.667,10.667-10.667c15.125,3.392,29.419,9.835,41.984,18.901
	c12.395-10.368,27.52-16.939,43.563-18.901c5.888,0,10.667,4.779,10.667,10.667s-4.779,10.667-10.667,10.667
	c-13.333,3.008-25.643,9.472-35.691,18.731C463.701,95.101,461.227,96.019,458.667,96.019z"/>
<circle style="fill:#FFC107;" cx="245.333" cy="192.019" r="96"/>
<g>
	<path style="fill:#FFD54F;" d="M245.333,74.685c-5.888,0-10.667-4.779-10.667-10.667V21.352c0-5.888,4.779-10.667,10.667-10.667
		S256,15.464,256,21.352v42.667C256,69.907,251.221,74.685,245.333,74.685z"/>
	<path style="fill:#FFD54F;" d="M181.333,91.752c-3.819,0-7.339-2.027-9.237-5.333l-21.333-36.928
		c-2.731-5.227-0.704-11.669,4.501-14.4c4.907-2.56,10.965-0.939,13.952,3.733l21.333,36.928c2.944,5.099,1.195,11.627-3.904,14.571
		C185.024,91.261,183.189,91.752,181.333,91.752z"/>
	<path style="fill:#FFD54F;" d="M134.4,138.685c-1.877,0-3.712-0.491-5.333-1.429l-36.928-21.333
		c-4.971-3.157-6.443-9.749-3.285-14.72c2.965-4.672,9.024-6.293,13.952-3.733l36.928,21.333c5.099,2.965,6.805,9.493,3.84,14.592
		C141.675,136.659,138.176,138.664,134.4,138.685z"/>
	<path style="fill:#FFD54F;" d="M393.131,288.019c-1.877,0-3.712-0.491-5.333-1.429l-36.928-21.333
		c-4.971-3.157-6.443-9.749-3.285-14.72c2.965-4.672,9.024-6.293,13.952-3.733l36.928,21.333c5.099,2.944,6.848,9.472,3.904,14.571
		C400.469,286.013,396.949,288.04,393.131,288.019L393.131,288.019z"/>
	<path style="fill:#FFD54F;" d="M117.333,202.685H74.667c-5.888,0-10.667-4.779-10.667-10.667c0-5.888,4.779-10.667,10.667-10.667
		h42.667c5.888,0,10.667,4.779,10.667,10.667C128,197.907,123.221,202.685,117.333,202.685z"/>
	<path style="fill:#FFD54F;" d="M416,202.685h-42.667c-5.888,0-10.667-4.779-10.667-10.667c0-5.888,4.779-10.667,10.667-10.667H416
		c5.888,0,10.667,4.779,10.667,10.667C426.667,197.907,421.888,202.685,416,202.685z"/>
	<path style="fill:#FFD54F;" d="M97.536,288.019c-5.888,0-10.667-4.779-10.667-10.667c0-3.819,2.027-7.339,5.333-9.237
		l36.928-21.333c5.227-2.731,11.669-0.704,14.4,4.501c2.56,4.907,0.939,10.965-3.733,13.952l-36.928,21.333
		C101.248,287.507,99.413,288.019,97.536,288.019z"/>
	<path style="fill:#FFD54F;" d="M356.267,138.685c-5.888,0-10.667-4.779-10.667-10.667c0-3.819,2.027-7.339,5.333-9.237
		l36.928-21.333c5.227-2.731,11.669-0.704,14.4,4.501c2.56,4.907,0.939,10.965-3.733,13.952L361.6,137.235
		C359.979,138.173,358.144,138.685,356.267,138.685z"/>
	<path style="fill:#FFD54F;" d="M309.333,91.752c-5.888,0-10.667-4.779-10.667-10.667c0-1.877,0.491-3.712,1.429-5.333
		l21.333-36.928c3.157-4.971,9.749-6.443,14.72-3.285c4.672,2.965,6.293,9.024,3.733,13.952l-21.333,36.928
		C316.651,89.704,313.131,91.752,309.333,91.752z"/>
</g>
<path d="M501.333,330.685H10.667C4.779,330.685,0,325.907,0,320.019s4.779-10.667,10.667-10.667h490.667
	c5.888,0,10.667,4.779,10.667,10.667S507.221,330.685,501.333,330.685z"/>
<path d="M224,373.352h-85.333c-5.888,0-10.667-4.779-10.667-10.667c0-5.888,4.779-10.667,10.667-10.667H224
	c5.888,0,10.667,4.779,10.667,10.667C234.667,368.573,229.888,373.352,224,373.352z"/>
<path d="M394.667,394.685h-85.333c-5.888,0-10.667-4.779-10.667-10.667s4.779-10.667,10.667-10.667h85.333
	c5.888,0,10.667,4.779,10.667,10.667S400.555,394.685,394.667,394.685z"/>
<path d="M266.667,437.352h-64c-5.888,0-10.667-4.779-10.667-10.667c0-5.888,4.779-10.667,10.667-10.667h64
	c5.888,0,10.667,4.779,10.667,10.667C277.333,432.573,272.555,437.352,266.667,437.352z"/>
<path d="M96.427,373.352c-5.888,0-10.773-4.779-10.773-10.667c0-5.888,4.672-10.667,10.56-10.667h0.213
	c5.888,0,10.667,4.779,10.667,10.667C107.093,368.573,102.315,373.352,96.427,373.352z"/>
<path d="M267.093,394.685c-5.888,0-10.773-4.779-10.773-10.667s4.672-10.667,10.56-10.667h0.213c5.888,0,10.667,4.779,10.667,10.667
	S272.981,394.685,267.093,394.685z"/>
<path d="M309.76,437.352c-5.867,0-10.773-4.779-10.773-10.667c0-5.888,4.651-10.667,10.56-10.667h0.213
	c5.888,0,10.667,4.779,10.667,10.667C320.427,432.573,315.648,437.352,309.76,437.352z"/>
<path d="M160.427,437.352c-5.888,0-10.773-4.779-10.773-10.667c0-5.888,4.672-10.667,10.56-10.667h0.213
	c5.888,0,10.667,4.779,10.667,10.667C171.093,432.573,166.315,437.352,160.427,437.352z"/>
<path d="M224.427,480.019c-5.888,0-10.773-4.779-10.773-10.667c0-5.888,4.672-10.667,10.56-10.667h0.213
	c5.888,0,10.667,4.779,10.667,10.667C235.093,475.24,230.315,480.019,224.427,480.019z"/>
<path d="M267.093,480.019c-5.888,0-10.773-4.779-10.773-10.667c0-5.888,4.672-10.667,10.56-10.667h0.213
	c5.888,0,10.667,4.779,10.667,10.667C277.76,475.24,272.981,480.019,267.093,480.019z"/>
<path d="M309.76,480.019c-5.867,0-10.773-4.779-10.773-10.667c0-5.888,4.651-10.667,10.56-10.667h0.213
	c5.888,0,10.667,4.779,10.667,10.667C320.427,475.24,315.648,480.019,309.76,480.019z"/>
<path d="M458.667,96.019c-2.133,0-4.245-0.619-6.08-1.899c-12.288-8.533-25.728-15.253-39.936-19.968
	c-5.611-1.856-8.619-7.893-6.763-13.483s7.872-8.64,13.483-6.763c13.589,4.501,26.517,10.624,38.613,18.219
	c12.16-9.216,26.283-15.573,41.323-18.56c5.675-1.088,11.371,2.624,12.523,8.405c1.152,5.781-2.603,11.392-8.405,12.523
	c-13.973,2.752-26.987,9.259-37.611,18.795C463.787,95.101,461.227,96.019,458.667,96.019z"/>
<path d="M245.333,288.019c-52.928,0-96-43.072-96-96s43.072-96,96-96s96,43.072,96,96S298.261,288.019,245.333,288.019z
	 M245.333,117.352c-41.173,0-74.667,33.493-74.667,74.667s33.493,74.667,74.667,74.667S320,233.192,320,192.019
	S286.507,117.352,245.333,117.352z"/>
<path d="M245.333,74.685c-5.888,0-10.667-4.779-10.667-10.667V21.352c0-5.888,4.779-10.667,10.667-10.667S256,15.464,256,21.352
	v42.667C256,69.907,251.221,74.685,245.333,74.685z"/>
<path d="M181.333,91.837c-3.691,0-7.275-1.92-9.259-5.333l-21.333-36.949c-2.923-5.099-1.173-11.627,3.925-14.571
	c5.056-2.944,11.605-1.195,14.571,3.904l21.333,36.949c2.944,5.099,1.195,11.627-3.904,14.571
	C184.981,91.389,183.147,91.837,181.333,91.837z"/>
<path d="M134.485,138.685c-1.813,0-3.648-0.448-5.333-1.429l-36.949-21.333c-5.099-2.944-6.869-9.472-3.904-14.571
	s9.451-6.848,14.571-3.904l36.949,21.333c5.099,2.944,6.848,9.472,3.904,14.571C141.76,136.765,138.176,138.685,134.485,138.685z"/>
<path d="M393.131,288.019c-1.813,0-3.648-0.448-5.333-1.429l-36.928-21.333c-5.099-2.944-6.848-9.472-3.904-14.571
	c2.944-5.099,9.493-6.805,14.571-3.904l36.928,21.333c5.099,2.944,6.848,9.451,3.904,14.571
	C400.405,286.099,396.8,288.019,393.131,288.019z"/>
<path d="M117.333,202.685H74.667c-5.888,0-10.667-4.779-10.667-10.667c0-5.888,4.779-10.667,10.667-10.667h42.667
	c5.888,0,10.667,4.779,10.667,10.667C128,197.907,123.221,202.685,117.333,202.685z"/>
<path d="M416,202.685h-42.667c-5.888,0-10.667-4.779-10.667-10.667c0-5.888,4.779-10.667,10.667-10.667H416
	c5.888,0,10.667,4.779,10.667,10.667C426.667,197.907,421.888,202.685,416,202.685z"/>
<path d="M97.536,288.019c-3.691,0-7.275-1.92-9.259-5.333c-2.944-5.099-1.173-11.627,3.925-14.571l36.949-21.333
	c5.056-2.965,11.627-1.216,14.571,3.904c2.944,5.099,1.195,11.627-3.904,14.571l-36.949,21.333
	C101.184,287.571,99.349,288.019,97.536,288.019z"/>
<path d="M356.181,138.685c-3.669,0-7.275-1.899-9.237-5.333c-2.965-5.099-1.216-11.627,3.904-14.571l36.928-21.333
	c5.099-2.923,11.648-1.216,14.571,3.904c2.965,5.099,1.216,11.627-3.904,14.571l-36.928,21.333
	C359.829,138.237,357.995,138.685,356.181,138.685z"/>
<path d="M309.333,91.837c-1.813,0-3.648-0.448-5.333-1.429c-5.099-2.944-6.848-9.472-3.904-14.571l21.333-36.949
	c2.944-5.099,9.472-6.805,14.571-3.904c5.099,2.944,6.848,9.472,3.904,14.571l-21.333,36.949
	C316.608,89.917,313.003,91.837,309.333,91.837z"/>
<g>
</g>
<g>
</g>
<g>
</g>
<g>
</g>
<g>
</g>
<g>
</g>
<g>
</g>
<g>
</g>
<g>
</g>
<g>
</g>
<g>
</g>
<g>
</g>
<g>
</g>
<g>
</g>
<g>
</g>
</svg>
