<?xml version="1.0" encoding="iso-8859-1"?>
<!-- Generator: Adobe Illustrator 19.0.0, SVG Export Plug-In . SVG Version: 6.00 Build 0)  -->
<svg version="1.1" id="Capa_1" xmlns="http://www.w3.org/2000/svg" xmlns:xlink="http://www.w3.org/1999/xlink" x="0px" y="0px"
	 viewBox="0 0 490.665 490.665" style="enable-background:new 0 0 490.665 490.665;" xml:space="preserve">
<path style="fill:#2196F3;" d="M254.101,111.274c-3.712-4.843-10.645-5.76-15.488-2.048c-0.768,0.597-1.451,1.28-2.048,2.048
	c-8.939,12.928-87.232,127.659-87.232,176.725c0,53.013,42.987,96,96,96s96-42.987,96-96
	C341.333,238.932,263.04,124.202,254.101,111.274z"/>
<path style="fill:#BBDEFB;" d="M245.333,319.999c-17.664,0-32-14.336-32-32c0-5.888-4.779-10.667-10.667-10.667
	S192,282.111,192,287.999c0,29.461,23.872,53.333,53.333,53.333c5.888,0,10.667-4.779,10.667-10.667
	C256,324.778,251.221,319.999,245.333,319.999z"/>
<g>
	<path style="fill:#455A64;" d="M245.333,447.999c-111.936,0-202.667-90.731-202.667-202.667S133.397,42.666,245.333,42.666
		S448,133.396,448,245.332C447.872,357.204,357.205,447.871,245.333,447.999z M245.333,63.999C145.195,63.999,64,145.194,64,245.332
		s81.195,181.333,181.333,181.333s181.333-81.195,181.333-181.333C426.539,145.236,345.429,64.127,245.333,63.999z"/>
	<path style="fill:#455A64;" d="M10.667,298.666C4.779,298.666,0,293.887,0,287.999c0-2.091,0.619-4.16,1.792-5.909l42.667-64
		c1.771-2.667,4.651-4.373,7.829-4.693c3.157-0.256,6.251,0.875,8.533,3.072l53.333,53.333c4.245,4.096,4.352,10.837,0.256,15.083
		c-4.096,4.245-10.837,4.352-15.083,0.256c-0.085-0.085-0.171-0.171-0.256-0.256l-44.075-44.139l-35.456,53.163
		C17.557,296.874,14.229,298.666,10.667,298.666z"/>
	<path style="fill:#455A64;" d="M437.333,277.332c-2.837,0-5.547-1.109-7.552-3.115l-53.333-53.333
		c-4.096-4.245-3.968-10.987,0.256-15.083c4.139-3.989,10.688-3.989,14.827,0l44.117,44.139l35.456-53.184
		c3.264-4.907,9.899-6.229,14.805-2.965c4.907,3.264,6.229,9.899,2.965,14.805l-42.667,64c-1.771,2.667-4.651,4.373-7.829,4.693
		L437.333,277.332z"/>
</g>
<path d="M245.333,383.999c-52.928,0-96-43.072-96-96c0-49.024,78.293-163.797,87.211-176.725c4.011-5.781,13.568-5.781,17.557,0
	c8.939,12.928,87.232,127.701,87.232,176.725C341.333,340.927,298.261,383.999,245.333,383.999z M245.333,136.404
	c-26.837,40.619-74.667,119.595-74.667,151.595c0,41.173,33.493,74.667,74.667,74.667S320,329.172,320,287.999
	C320,255.978,272.171,177.002,245.333,136.404z"/>
<path d="M245.333,341.332c-29.397,0-53.333-23.915-53.333-53.333c0-5.888,4.779-10.667,10.667-10.667s10.667,4.779,10.667,10.667
	c0,17.643,14.357,32,32,32c5.888,0,10.667,4.779,10.667,10.667C256,336.554,251.221,341.332,245.333,341.332z"/>
<path d="M245.333,447.999c-111.744,0-202.667-90.923-202.667-202.667S133.589,42.666,245.333,42.666S448,133.588,448,245.332
	S357.077,447.999,245.333,447.999z M245.333,63.999C145.344,63.999,64,145.343,64,245.332s81.344,181.333,181.333,181.333
	s181.333-81.344,181.333-181.333S345.323,63.999,245.333,63.999z"/>
<path d="M10.667,298.666c-2.027,0-4.075-0.576-5.909-1.792c-4.907-3.264-6.229-9.899-2.965-14.784l42.667-64
	c1.771-2.667,4.651-4.395,7.829-4.693c3.349-0.235,6.336,0.811,8.597,3.072l53.333,53.333c4.16,4.16,4.16,10.923,0,15.083
	c-4.16,4.16-10.923,4.16-15.083,0l-44.139-44.139L19.541,293.93C17.493,297.002,14.101,298.666,10.667,298.666z"/>
<path d="M437.333,277.332c-2.816,0-5.547-1.109-7.552-3.115l-53.333-53.333c-4.16-4.16-4.16-10.923,0-15.083
	c4.16-4.16,10.923-4.16,15.083,0l44.117,44.139l35.456-53.184c3.285-4.907,9.941-6.208,14.784-2.965
	c4.885,3.264,6.229,9.877,2.965,14.784l-42.667,64c-1.771,2.667-4.651,4.373-7.829,4.715
	C438.037,277.311,437.696,277.332,437.333,277.332z"/>
<g>
</g>
<g>
</g>
<g>
</g>
<g>
</g>
<g>
</g>
<g>
</g>
<g>
</g>
<g>
</g>
<g>
</g>
<g>
</g>
<g>
</g>
<g>
</g>
<g>
</g>
<g>
</g>
<g>
</g>
</svg>
