<?xml version="1.0" encoding="iso-8859-1"?>
<!-- Generator: Adobe Illustrator 19.0.0, SVG Export Plug-In . SVG Version: 6.00 Build 0)  -->
<svg version="1.1" id="Capa_1" xmlns="http://www.w3.org/2000/svg" xmlns:xlink="http://www.w3.org/1999/xlink" x="0px" y="0px"
	 viewBox="0 0 490.71 490.71" style="enable-background:new 0 0 490.71 490.71;" xml:space="preserve">
<g>
	<path style="fill:#455A64;" d="M489.246,421.312L383.752,239.083l30.187,6.037c5.781,1.173,11.413-2.539,12.587-8.32
		s-2.539-11.413-8.32-12.587l0,0l-53.333-10.667c-0.448-0.021-0.896-0.021-1.344,0c-1.685-0.277-3.435,0-4.928,0.832
		c-0.405,0.107-0.789,0.256-1.173,0.405l-0.192,0.171c-0.789,0.533-1.515,1.152-2.133,1.877c-0.917,0.704-1.557,1.685-1.856,2.795
		c-0.341,0.64-0.619,1.301-0.832,1.984l-0.128,0.32l-10.667,53.333c-1.152,5.781,2.581,11.392,8.363,12.544
		c0.661,0.128,1.344,0.171,2.027,0.171c5.077,0,9.429-3.563,10.453-8.533l5.12-25.6l93.867,162.133H309.342
		c-5.888,0-10.667,4.779-10.667,10.667c0,5.888,4.779,10.667,10.667,10.667h170.667c5.888,0,10.667-4.779,10.667-10.667
		C490.675,424.768,490.184,422.934,489.246,421.312z"/>
	<path style="fill:#455A64;" d="M231.56,376.427c-4.245-4.096-10.987-3.968-15.083,0.256c-3.989,4.139-3.989,10.688,0,14.827
		l24.448,24.469H28.915l87.061-154.773c2.88-5.141,1.067-11.648-4.075-14.528c-5.141-2.88-11.648-1.067-14.528,4.075l-96,170.667
		c-2.88,5.141-1.067,11.648,4.075,14.528c1.6,0.896,3.392,1.365,5.227,1.365h230.251l-24.448,24.448
		c-4.245,4.096-4.352,10.837-0.256,15.083c4.096,4.245,10.837,4.352,15.083,0.256c0.085-0.085,0.171-0.171,0.256-0.256
		l42.667-42.667c4.16-4.16,4.16-10.923,0-15.083L231.56,376.427z"/>
	<path style="fill:#455A64;" d="M117.683,226.411c0.683,2.581,2.261,4.864,4.459,6.4c0.192,0.128,0.32,0.341,0.533,0.469
		c0.213,0.128,0.384,0,0.576,0.149c2.069,1.173,4.501,1.557,6.848,1.067l53.333-10.667c5.781-1.173,9.493-6.805,8.32-12.587
		c-1.173-5.781-6.805-9.493-12.587-8.32l-30.187,6.037l96.128-166.059l86.848,154.368c3.072,5.035,9.643,6.613,14.656,3.541
		c4.779-2.923,6.485-9.024,3.925-13.995l-96-170.667c-1.856-3.349-5.355-5.461-9.195-5.504c-3.776,0.149-7.253,2.155-9.301,5.333
		L132.936,194.112l-5.141-25.6c-1.173-5.781-6.805-9.493-12.587-8.32l0,0c-5.781,1.173-9.493,6.805-8.32,12.587l0,0l10.667,53.333
		L117.683,226.411z"/>
</g>
<path d="M480.008,437.312H309.342c-5.888,0-10.667-4.779-10.667-10.667c0-5.888,4.779-10.667,10.667-10.667h152.171L353.459,229.312
	c-2.965-5.099-1.216-11.627,3.883-14.571c5.056-2.965,11.605-1.237,14.592,3.883l117.333,202.667
	c1.92,3.307,1.92,7.381,0.021,10.688C487.347,435.264,483.827,437.312,480.008,437.312z"/>
<path d="M128.008,234.646c-1.813,0-3.648-0.448-5.333-1.429c-5.099-2.944-6.848-9.472-3.883-14.571L236.126,15.979
	c1.92-3.307,5.483-5.696,9.301-5.333c3.84,0.021,7.36,2.112,9.237,5.44l96,170.667c2.901,5.141,1.067,11.627-4.053,14.528
	c-5.099,2.901-11.648,1.067-14.528-4.053L245.235,42.859L137.246,229.312C135.262,232.747,131.678,234.646,128.008,234.646z"/>
<path d="M251.294,437.312H10.675c-3.797,0-7.296-2.027-9.216-5.291s-1.941-7.296-0.085-10.603l96-170.667
	c2.88-5.141,9.365-6.997,14.528-4.053c5.141,2.88,6.955,9.387,4.053,14.528l-87.04,154.752h222.379
	c5.888,0,10.667,4.779,10.667,10.667C261.96,432.534,257.182,437.312,251.294,437.312z"/>
<path d="M224.008,479.979c-2.731,0-5.461-1.045-7.552-3.115c-4.16-4.16-4.16-10.923,0-15.083l35.115-35.115l-35.115-35.115
	c-4.16-4.16-4.16-10.923,0-15.083c4.16-4.16,10.923-4.16,15.083,0l42.667,42.667c4.16,4.16,4.16,10.923,0,15.083l-42.667,42.667
	C229.47,478.934,226.739,479.979,224.008,479.979z"/>
<path d="M128.008,234.646c-4.971,0-9.429-3.499-10.453-8.576l-10.667-53.333c-1.152-5.781,2.581-11.392,8.363-12.544
	c5.803-1.216,11.413,2.581,12.544,8.363l8.576,42.88l42.88-8.576c5.867-1.216,11.413,2.581,12.544,8.363
	c1.152,5.781-2.603,11.392-8.363,12.544l-53.333,10.667C129.395,234.582,128.691,234.646,128.008,234.646z"/>
<path d="M352.03,287.979c-0.704,0-1.408-0.064-2.112-0.213c-5.781-1.152-9.536-6.763-8.384-12.544l10.667-53.333
	c1.173-5.781,7.04-9.515,12.544-8.363l53.333,10.667c5.781,1.152,9.536,6.763,8.384,12.544c-1.173,5.803-6.976,9.493-12.544,8.363
	l-42.88-8.576l-8.576,42.859C361.438,284.48,357,287.979,352.03,287.979z"/>
<g>
</g>
<g>
</g>
<g>
</g>
<g>
</g>
<g>
</g>
<g>
</g>
<g>
</g>
<g>
</g>
<g>
</g>
<g>
</g>
<g>
</g>
<g>
</g>
<g>
</g>
<g>
</g>
<g>
</g>
</svg>
