<?xml version="1.0" encoding="iso-8859-1"?>
<!-- Generator: Adobe Illustrator 19.0.0, SVG Export Plug-In . SVG Version: 6.00 Build 0)  -->
<svg version="1.1" id="Capa_1" xmlns="http://www.w3.org/2000/svg" xmlns:xlink="http://www.w3.org/1999/xlink" x="0px" y="0px"
	 viewBox="0 0 512.014 512.014" style="enable-background:new 0 0 512.014 512.014;" xml:space="preserve">
<g>
	<path style="fill:#4CAF50;" d="M511.189,28.357c-1.643-3.989-5.547-6.592-9.856-6.592c-80.043,0-153.067,25.216-195.307,67.477
		c-37.995,38.507-37.568,100.523,0.939,138.517c38.123,37.611,99.413,37.611,137.557,0c18.261-18.261,23.808-51.989,29.675-87.68
		c6.4-38.4,12.8-78.293,34.667-100.096C511.915,36.933,512.832,32.347,511.189,28.357z"/>
	<path style="fill:#4CAF50;" d="M218.752,35.717C190.784,11.291,154.432-1.36,117.333,0.432c-5.888,0-10.667,4.757-10.688,10.645
		c0,2.837,1.131,5.568,3.136,7.573c9.515,13.952,14.997,30.251,15.851,47.125c0.768,16.853,6.443,33.088,16.341,46.741
		c21.205,21.205,55.595,21.205,76.8,0S239.979,56.923,218.752,35.717L218.752,35.717z"/>
</g>
<path style="fill:#388E3C;" d="M288,320.432c-4.864,0-9.109-3.307-10.325-8.021c-12.032-47.061-48.811-174.699-73.984-199.893
	c-4.096-4.245-3.968-10.987,0.256-15.083c4.139-3.989,10.688-3.989,14.827,0c25.131,25.131,54.229,118.485,69.461,172.352
	c20.608-59.925,54.4-114.432,98.901-159.552c4.096-4.245,10.837-4.352,15.083-0.256c4.245,4.096,4.352,10.837,0.256,15.083
	c-0.085,0.085-0.171,0.171-0.256,0.256c-50.795,51.627-86.635,116.075-103.723,186.453c-0.939,4.907-5.163,8.512-10.155,8.661H288
	L288,320.432z"/>
<path style="fill:#FFE082;" d="M510.869,411.248c-14.592-29.504-47.829-44.779-79.723-36.672l-69.013,17.259
	c-3.072-26.688-18.923-42.347-50.475-50.219l-192-42.667c-5.653-1.259-11.264,2.219-12.672,7.829l-32,128
	c-1.408,5.44,1.643,11.029,6.976,12.8l159.595,53.205c13.931,6.293,28.928,9.899,44.203,10.667
	c21.632,0,46.933-9.451,102.656-32.277l117.333-53.333c5.355-2.432,7.723-8.768,5.291-14.123c-0.064-0.128-0.107-0.235-0.171-0.363
	V411.248z"/>
<path style="fill:#455A64;" d="M128,288.944c0.277-3.243-0.917-6.443-3.285-8.683c-18.347-17.301-91.435-22.912-113.429-24.213
	c-2.923-0.149-5.781,0.896-7.936,2.88C1.195,260.955,0,263.771,0,266.715v192c0,5.888,4.779,10.667,10.667,10.667h64
	c4.629,0,8.725-2.965,10.155-7.36C103.808,405.573,118.251,347.696,128,288.944z"/>
<path style="fill:#FFCA28;" d="M307.733,425.093c-4.907,0-9.792-0.469-14.592-1.429l-82.112-16.427
	c-5.781-1.173-9.493-6.805-8.32-12.587c1.173-5.781,6.805-9.493,12.587-8.32l82.091,16.427c7.765,1.536,15.787,1.344,23.467-0.555
	l41.557-10.389c2.837,11.435-4.096,22.997-15.531,25.856l-20.885,5.227C320.021,424.389,313.899,425.115,307.733,425.093z"/>
<path d="M376.171,255.536c-25.536,0-51.072-9.899-70.229-29.611c-37.248-38.293-37.248-98.283,0.021-136.576
	c42.325-42.368,115.328-67.584,195.371-67.584c4.309,0,8.213,2.603,9.856,6.592c1.643,3.989,0.725,8.576-2.304,11.627
	c-21.803,21.803-28.352,61.611-34.667,100.117c-5.867,35.691-11.413,69.397-29.675,87.659c-0.043,0.021-0.064,0.064-0.107,0.107
	C425.429,246.32,400.789,255.536,376.171,255.536z M479.467,43.76c-65.664,4.011-123.776,26.005-158.315,60.544
	c-29.035,29.845-29.056,76.779,0.085,106.731c29.461,30.272,77.952,30.955,108.288,1.557c13.355-13.44,18.325-43.819,23.616-75.989
	C458.325,105.051,464.085,70.171,479.467,43.76z M436.992,220.208h0.213H436.992z"/>
<path d="M180.352,128.432c-14.507,0-28.139-5.653-38.379-15.915c-10.368-10.325-13.269-28.011-16.341-46.72
	c-3.029-18.411-6.165-37.461-15.851-47.147c-2.987-2.965-3.925-7.424-2.411-11.371c1.515-3.925,5.184-6.613,9.387-6.827
	c37.312-1.792,73.216,10.389,101.397,34.752c10.837,10.773,16.491,24.405,16.512,38.912c0,14.507-5.653,28.139-15.915,38.4
	S194.859,128.432,180.352,128.432L180.352,128.432z M136.917,22.213c5.227,12.459,7.595,26.859,9.771,40.107
	c2.389,14.571,4.864,29.632,10.347,35.115c12.459,12.459,34.176,12.437,46.635,0c12.864-12.864,12.843-33.771,0-46.635
	C184.96,34.693,161.664,24.731,136.917,22.213z"/>
<path d="M288,320.453c-4.885,0-9.131-3.285-10.325-8.021c-12.032-47.061-48.811-174.699-74.005-199.893
	c-4.16-4.16-4.16-10.923,0-15.083c4.16-4.16,10.923-4.16,15.083,0c25.195,25.195,54.4,118.976,69.589,172.757
	c20.352-59.925,54.037-114.624,98.752-159.915c4.117-4.181,10.88-4.245,15.083-0.107c4.181,4.139,4.224,10.901,0.085,15.083
	c-51.051,51.712-86.955,116.373-103.872,186.987c-1.152,4.779-5.397,8.149-10.283,8.192
	C288.064,320.453,288.021,320.453,288,320.453z"/>
<path d="M74.667,469.765h-64C4.779,469.765,0,464.987,0,459.099v-192c0-2.944,1.216-5.76,3.349-7.765
	c2.133-2.027,4.992-3.029,7.957-2.88c21.973,1.301,95.061,6.912,113.365,24.213c2.581,2.432,3.776,6.016,3.179,9.515
	c-9.813,58.24-24.32,116.203-43.072,172.267C83.328,466.821,79.253,469.765,74.667,469.765z M21.333,448.432h45.632
	c16.533-50.56,29.525-102.635,38.677-154.987c-13.781-6.443-50.389-12.224-84.309-14.912V448.432z"/>
<path d="M285.781,511.749c-13.909,0-26.283-3.925-44.203-10.688L81.984,447.877c-5.589-1.877-8.597-7.915-6.741-13.504
	c1.856-5.589,7.851-8.64,13.483-6.741l160,53.333c38.443,14.571,41.536,15.68,131.243-21.077l105.749-48.064
	c-11.776-14.293-30.72-20.757-49.387-16.149l-81.728,20.437c-5.696,1.344-11.52-2.048-12.928-7.765
	c-1.408-5.717,2.048-11.499,7.765-12.928l81.728-20.437c32.128-8.021,64.917,7.083,79.723,36.693
	c1.301,2.581,1.472,5.611,0.512,8.341c-0.981,2.731-3.029,4.949-5.653,6.144l-117.333,53.333
	C332.736,502.299,307.392,511.749,285.781,511.749z"/>
<path d="M307.755,425.499c-4.907,0-9.835-0.491-14.656-1.451l-92.523-18.496c-5.781-1.152-9.515-6.784-8.363-12.544
	c1.152-5.781,6.72-9.6,12.544-8.384l92.523,18.496c7.723,1.515,15.808,1.323,23.403-0.555l20.501-5.099
	c-1.323-19.456-10.816-28.8-34.432-34.688l-191.723-42.603c-5.76-1.301-9.365-6.976-8.107-12.736
	c1.28-5.781,7.04-9.323,12.736-8.107l192,42.667c35.371,8.853,51.008,27.456,51.008,60.395v3.349c0,4.885-3.328,9.173-8.085,10.347
	l-28.715,7.168C319.979,424.752,313.856,425.499,307.755,425.499z M352,405.765h0.213H352z"/>
<g>
</g>
<g>
</g>
<g>
</g>
<g>
</g>
<g>
</g>
<g>
</g>
<g>
</g>
<g>
</g>
<g>
</g>
<g>
</g>
<g>
</g>
<g>
</g>
<g>
</g>
<g>
</g>
<g>
</g>
</svg>
