<?xml version="1.0" encoding="iso-8859-1"?>
<!-- Generator: Adobe Illustrator 19.0.0, SVG Export Plug-In . SVG Version: 6.00 Build 0)  -->
<svg version="1.1" id="Capa_1" xmlns="http://www.w3.org/2000/svg" xmlns:xlink="http://www.w3.org/1999/xlink" x="0px" y="0px"
	 viewBox="0 0 469.505 469.505" style="enable-background:new 0 0 469.505 469.505;" xml:space="preserve">
<path style="fill:#4CAF50;" d="M436.614,28.096c-1.643-3.989-5.547-6.592-9.856-6.592c-80.043,0-153.067,25.237-195.307,67.477
	c-37.696,38.784-36.821,100.8,1.963,138.496c38.016,36.949,98.517,36.949,136.533,0c18.261-18.261,23.808-51.989,29.696-87.68
	c6.4-38.4,12.8-78.293,34.667-100.075C437.361,36.672,438.278,32.086,436.614,28.096z"/>
<path style="fill:#388E3C;" d="M213.425,320.171c-4.864,0-9.109-3.307-10.325-8.021c-12.032-47.061-48.789-174.677-73.984-199.872
	c-4.096-4.245-3.968-10.987,0.256-15.083c4.139-3.989,10.688-3.989,14.827,0c25.131,25.131,54.293,118.443,69.461,172.331
	c20.608-59.925,54.4-114.432,98.901-159.552c4.096-4.245,10.837-4.352,15.083-0.256c4.245,4.096,4.352,10.837,0.256,15.083
	c-0.085,0.085-0.171,0.171-0.256,0.256c-50.795,51.627-86.656,116.075-103.723,186.453c-0.939,4.907-5.163,8.512-10.155,8.661
	L213.425,320.171L213.425,320.171z"/>
<path style="fill:#455A64;" d="M349.958,303.104c-2.005-2.688-5.184-4.267-8.533-4.267h-256c-5.888,0-10.667,4.779-10.645,10.688
	c0,0.981,0.149,1.984,0.405,2.923l42.667,149.333c1.301,4.565,5.483,7.723,10.24,7.723h170.667c4.757,0,8.939-3.157,10.24-7.723
	l42.667-149.333C352.582,309.249,351.964,305.771,349.958,303.104z"/>
<path style="fill:#4CAF50;" d="M144.198,35.457C116.23,11.008,79.857-1.642,42.758,0.171c-5.888,0-10.667,4.757-10.688,10.645
	c0,2.837,1.131,5.568,3.136,7.573c9.515,13.952,14.997,30.272,15.829,47.147c0.747,16.853,6.443,33.088,16.341,46.741
	c21.589,20.821,55.979,20.203,76.8-1.387c20.288-21.035,20.288-54.379,0-75.413L144.198,35.457z"/>
<path d="M298.758,469.505H128.092c-4.757,0-8.939-3.157-10.261-7.723L75.163,312.449c-0.917-3.221-0.277-6.677,1.749-9.344
	c2.005-2.709,5.163-4.267,8.512-4.267h256c3.349,0,6.507,1.557,8.512,4.245c2.027,2.667,2.645,6.123,1.728,9.344l-42.667,149.333
	C307.697,466.347,303.537,469.505,298.758,469.505z M136.134,448.171h154.581l36.565-128H99.569L136.134,448.171z"/>
<path d="M302.193,254.721c-0.768,0-1.536,0-2.304-0.021c-26.176-0.597-50.517-11.349-68.565-30.272
	c-36.224-37.909-36.224-97.323,0-135.253c42.475-42.453,115.477-67.669,195.435-67.669c4.309,0,8.213,2.603,9.856,6.592
	c1.643,3.989,0.725,8.576-2.304,11.627c-21.803,21.803-28.352,61.589-34.667,100.075c-5.867,35.669-11.413,69.355-29.675,87.637
	c-0.064,0.064-0.107,0.128-0.171,0.192C351.43,245.142,327.516,254.721,302.193,254.721z M404.892,43.499
	c-65.6,4.011-123.733,26.027-158.315,60.565c-28.16,29.483-28.16,75.968,0.171,105.621c14.123,14.805,33.195,23.211,53.632,23.68
	c20.971,0.32,39.808-7.019,54.613-21.099c13.333-13.461,18.325-43.819,23.595-75.947C383.75,104.769,389.51,69.91,404.892,43.499z
	 M362.417,219.905h0.213H362.417z"/>
<path d="M105.563,127.937c-14.357,0-27.904-5.547-38.123-15.637c-0.021-0.021-0.043-0.043-0.064-0.064
	c-10.347-10.347-13.248-28.011-16.32-46.72c-3.008-18.411-6.144-37.44-15.851-47.125c-2.987-2.987-3.925-7.424-2.411-11.371
	c1.515-3.947,5.205-6.613,9.408-6.848c37.205-1.749,73.237,10.411,101.397,34.752c21.355,21.611,21.355,55.829,0.619,76.843
	c-10.176,10.325-23.787,16.085-38.293,16.171C105.819,127.937,105.691,127.937,105.563,127.937z M82.438,97.131
	c6.208,6.123,14.4,9.472,23.104,9.472c0.085,0,0.149,0,0.235,0c8.811-0.064,17.067-3.541,23.232-9.813
	c12.587-12.779,12.587-33.536,0-46.293c-18.624-16.085-41.92-26.027-66.667-28.544c5.227,12.459,7.595,26.837,9.771,40.107
	C74.502,76.587,76.977,91.606,82.438,97.131z"/>
<path d="M213.425,320.171c-4.864,0-9.131-3.285-10.325-8.021c-12.032-47.061-48.811-174.699-74.005-199.915
	c-4.16-4.16-4.16-10.923,0-15.083c4.16-4.16,10.923-4.16,15.083,0c25.195,25.216,54.4,118.997,69.611,172.779
	c20.352-59.947,54.037-114.667,98.731-159.936c4.139-4.203,10.901-4.245,15.083-0.107c4.181,4.139,4.224,10.901,0.085,15.083
	c-51.029,51.691-86.955,116.352-103.872,186.987c-1.152,4.779-5.397,8.149-10.283,8.192
	C213.467,320.171,213.446,320.171,213.425,320.171z"/>
<g>
</g>
<g>
</g>
<g>
</g>
<g>
</g>
<g>
</g>
<g>
</g>
<g>
</g>
<g>
</g>
<g>
</g>
<g>
</g>
<g>
</g>
<g>
</g>
<g>
</g>
<g>
</g>
<g>
</g>
</svg>
