<?xml version="1.0" encoding="iso-8859-1"?>
<!-- Generator: Adobe Illustrator 19.0.0, SVG Export Plug-In . SVG Version: 6.00 Build 0)  -->
<svg version="1.1" id="Capa_1" xmlns="http://www.w3.org/2000/svg" xmlns:xlink="http://www.w3.org/1999/xlink" x="0px" y="0px"
	 viewBox="0 0 469.333 469.333" style="enable-background:new 0 0 469.333 469.333;" xml:space="preserve">
<path style="fill:#388E3C;" d="M213.333,362.667H256c5.888,0,10.667,4.779,10.667,10.667v85.333c0,5.888-4.779,10.667-10.667,10.667
	h-42.667c-5.888,0-10.667-4.779-10.667-10.667v-85.333C202.667,367.445,207.445,362.667,213.333,362.667z"/>
<path style="fill:#4CAF50;" d="M405.333,362.667c-36.16,0-79.872-40.533-111.317-85.333H384c5.888,0,10.667-4.779,10.667-10.667
	S389.888,256,384,256c-36.117,0-80.576-41.536-109.227-85.333h66.56c5.888,0,10.667-4.779,10.667-10.667
	s-4.779-10.667-10.667-10.667c-37.653,0-96-92.117-96-138.667C245.333,4.779,240.555,0,234.667,0S224,4.779,224,10.667
	c0,46.549-58.347,138.667-96,138.667c-5.888,0-10.667,4.779-10.667,10.667s4.779,10.667,10.667,10.667h66.56
	C165.909,214.464,121.451,256,85.333,256c-5.888,0-10.667,4.779-10.667,10.667s4.779,10.667,10.667,10.667h89.984
	c-31.445,44.8-75.157,85.333-111.317,85.333c-5.888,0-10.667,4.779-10.667,10.667S58.112,384,64,384h341.333
	c5.888,0,10.667-4.779,10.667-10.667S411.221,362.667,405.333,362.667z"/>
<path d="M405.333,384H64c-5.888,0-10.667-4.779-10.667-10.667S58.112,362.667,64,362.667c36.16,0,79.893-40.64,111.317-85.333
	H85.333c-5.888,0-10.667-4.779-10.667-10.667S79.445,256,85.333,256c36.117,0,80.597-41.536,109.227-85.333H128
	c-5.888,0-10.667-4.779-10.667-10.667s4.779-10.667,10.667-10.667c37.653,0,96-92.117,96-138.667C224,4.779,228.779,0,234.667,0
	s10.667,4.779,10.667,10.667c0,46.549,58.325,138.667,96,138.667c5.888,0,10.667,4.779,10.667,10.667s-4.779,10.667-10.667,10.667
	h-66.539C303.424,214.464,347.904,256,384,256c5.888,0,10.667,4.779,10.667,10.667s-4.779,10.667-10.667,10.667h-90.005
	c31.488,44.693,75.2,85.333,111.339,85.333c5.888,0,10.667,4.779,10.667,10.667S411.221,384,405.333,384z M122.667,362.667h224
	c-31.509-21.675-60.587-56.725-81.6-90.347c-2.069-3.264-2.176-7.424-0.299-10.816c1.877-3.392,5.483-5.504,9.365-5.504h52.203
	c-31.189-21.461-60.501-56.277-79.787-90.795c-1.856-3.307-1.813-7.339,0.107-10.603c1.92-3.264,5.419-5.269,9.195-5.269h39.616
	c-25.237-22.08-48.043-57.899-60.8-90.965c-12.757,33.067-35.563,68.885-60.821,90.965h39.616c3.776,0,7.275,2.005,9.195,5.269
	c1.92,3.264,1.963,7.296,0.107,10.603c-19.285,34.539-48.597,69.333-79.787,90.795h52.181c3.883,0,7.445,2.112,9.344,5.504
	c1.877,3.371,1.771,7.531-0.277,10.816C183.253,305.941,154.176,340.992,122.667,362.667z"/>
<path d="M256,469.333h-42.667c-5.888,0-10.667-4.779-10.667-10.667v-85.333c0-5.888,4.779-10.667,10.667-10.667H256
	c5.888,0,10.667,4.779,10.667,10.667v85.333C266.667,464.555,261.888,469.333,256,469.333z M224,448h21.333v-64H224V448z"/>
<g>
</g>
<g>
</g>
<g>
</g>
<g>
</g>
<g>
</g>
<g>
</g>
<g>
</g>
<g>
</g>
<g>
</g>
<g>
</g>
<g>
</g>
<g>
</g>
<g>
</g>
<g>
</g>
<g>
</g>
</svg>
