<?xml version="1.0" encoding="iso-8859-1"?>
<!-- Generator: Adobe Illustrator 19.0.0, SVG Export Plug-In . SVG Version: 6.00 Build 0)  -->
<svg version="1.1" id="Capa_1" xmlns="http://www.w3.org/2000/svg" xmlns:xlink="http://www.w3.org/1999/xlink" x="0px" y="0px"
	 viewBox="0 0 512 512" style="enable-background:new 0 0 512 512;" xml:space="preserve">
<path style="fill:#FFA000;" d="M32,352h234.667c5.888,0,10.667,4.779,10.667,10.667v64c0,5.888-4.779,10.667-10.667,10.667H32
	c-5.888,0-10.667-4.779-10.667-10.667v-64C21.333,356.779,26.112,352,32,352z"/>
<path style="fill:#388E3C;" d="M373.333,309.333c-5.888,0-10.667,4.779-10.667,10.667h-21.333c0-5.888-4.779-10.667-10.667-10.667
	S320,314.112,320,320v170.667c0,5.888,4.779,10.667,10.667,10.667h42.667c5.888,0,10.667-4.779,10.667-10.667V320
	C384,314.112,379.221,309.333,373.333,309.333z"/>
<circle style="fill:#4CAF50;" cx="352" cy="170.667" r="160"/>
<g>
	<path style="fill:#388E3C;" d="M288,202.667c-5.888,0-10.667-4.779-10.667-10.667s-4.779-10.667-10.667-10.667S256,186.112,256,192
		s-4.779,10.667-10.667,10.667s-10.667-4.779-10.667-10.667c0-17.664,14.336-32,32-32s32,14.336,32,32
		C298.667,197.888,293.888,202.667,288,202.667z"/>
	<path style="fill:#388E3C;" d="M394.667,266.667c-5.888,0-10.667-4.779-10.667-10.667s-4.779-10.667-10.667-10.667
		s-10.667,4.779-10.667,10.667s-4.779,10.667-10.667,10.667c-5.888,0-10.667-4.779-10.667-10.667c0-17.664,14.336-32,32-32
		s32,14.336,32,32C405.333,261.888,400.555,266.667,394.667,266.667z"/>
	<path style="fill:#388E3C;" d="M437.333,180.992c-5.888,0-10.667-4.779-10.667-10.667s-4.779-10.667-10.667-10.667
		c-5.888,0-10.667,4.779-10.667,10.667s-4.779,10.667-10.667,10.667c-5.888,0-10.667-4.779-10.667-10.667c0-17.664,14.336-32,32-32
		c17.664,0,32,14.336,32,32C448,176.213,443.221,180.992,437.333,180.992z"/>
	<path style="fill:#388E3C;" d="M330.667,117.333c-5.888,0-10.667-4.779-10.667-10.667S315.221,96,309.333,96
		s-10.667,4.779-10.667,10.667s-4.779,10.667-10.667,10.667s-10.667-4.779-10.667-10.667c0-17.664,14.336-32,32-32s32,14.336,32,32
		C341.333,112.555,336.555,117.333,330.667,117.333z"/>
</g>
<g>
	<path style="fill:#FF6F00;" d="M32,501.333c-5.888,0-10.667-4.779-10.667-10.667v-21.333c0-5.888,4.779-10.667,10.667-10.667
		s10.667,4.779,10.667,10.667v21.333C42.667,496.555,37.888,501.333,32,501.333z"/>
	<path style="fill:#FF6F00;" d="M266.667,501.333c-5.888,0-10.667-4.779-10.667-10.667v-21.333c0-5.888,4.779-10.667,10.667-10.667
		s10.667,4.779,10.667,10.667v21.333C277.333,496.555,272.555,501.333,266.667,501.333z"/>
	<path style="fill:#FF6F00;" d="M32,330.667c-5.888,0-10.667,4.779-10.667,10.667v85.333c0,5.888,4.779,10.667,10.667,10.667
		s10.667-4.779,10.667-10.667v-85.333C42.667,335.445,37.888,330.667,32,330.667z"/>
	<path style="fill:#FF6F00;" d="M266.667,330.667c-5.888,0-10.667,4.779-10.667,10.667v85.333c0,5.888,4.779,10.667,10.667,10.667
		s10.667-4.779,10.667-10.667v-85.333C277.333,335.445,272.555,330.667,266.667,330.667z"/>
</g>
<path style="fill:#FFC107;" d="M10.667,416H288c5.888,0,10.667,4.779,10.667,10.667v42.667c0,5.888-4.779,10.667-10.667,10.667
	H10.667C4.779,480,0,475.221,0,469.333v-42.667C0,420.779,4.779,416,10.667,416z"/>
<path d="M288,480H10.667C4.779,480,0,475.221,0,469.333v-42.667C0,420.779,4.779,416,10.667,416H288
	c5.888,0,10.667,4.779,10.667,10.667v42.667C298.667,475.221,293.888,480,288,480z M21.333,458.667h256v-21.333h-256V458.667z"/>
<path d="M266.667,437.333H32c-5.888,0-10.667-4.779-10.667-10.667v-64C21.333,356.779,26.112,352,32,352h234.667
	c5.888,0,10.667,4.779,10.667,10.667v64C277.333,432.555,272.555,437.333,266.667,437.333z M42.667,416H256v-42.667H42.667V416z"/>
<path d="M352,330.667c-88.235,0-160-71.765-160-160s71.765-160,160-160s160,71.765,160,160S440.235,330.667,352,330.667z M352,32
	c-76.459,0-138.667,62.208-138.667,138.667S275.541,309.333,352,309.333s138.667-62.208,138.667-138.667S428.459,32,352,32z"/>
<path d="M373.333,501.333h-42.667c-5.888,0-10.667-4.779-10.667-10.667V320c0-5.888,4.779-10.667,10.667-10.667
	s10.667,4.779,10.667,10.667v160h21.333V320c0-5.888,4.779-10.667,10.667-10.667S384,314.112,384,320v170.667
	C384,496.555,379.221,501.333,373.333,501.333z"/>
<path d="M288,202.667c-5.888,0-10.667-4.779-10.667-10.667s-4.779-10.667-10.667-10.667S256,186.112,256,192
	s-4.779,10.667-10.667,10.667s-10.667-4.779-10.667-10.667c0-17.643,14.357-32,32-32c17.643,0,32,14.357,32,32
	C298.667,197.888,293.888,202.667,288,202.667z"/>
<path d="M394.667,266.667c-5.888,0-10.667-4.779-10.667-10.667s-4.8-10.667-10.667-10.667s-10.667,4.779-10.667,10.667
	s-4.779,10.667-10.667,10.667c-5.888,0-10.667-4.779-10.667-10.667c0-17.643,14.357-32,32-32s32,14.357,32,32
	C405.333,261.888,400.555,266.667,394.667,266.667z"/>
<path d="M437.333,180.992c-5.888,0-10.667-4.779-10.667-10.667s-4.8-10.667-10.667-10.667c-5.867,0-10.667,4.779-10.667,10.667
	s-4.779,10.667-10.667,10.667c-5.888,0-10.667-4.779-10.667-10.667c0-17.643,14.357-32,32-32c17.643,0,32,14.357,32,32
	C448,176.213,443.221,180.992,437.333,180.992z"/>
<path d="M330.667,117.333c-5.888,0-10.667-4.779-10.667-10.667S315.2,96,309.333,96s-10.667,4.779-10.667,10.667
	s-4.779,10.667-10.667,10.667s-10.667-4.779-10.667-10.667c0-17.643,14.357-32,32-32s32,14.357,32,32
	C341.333,112.555,336.555,117.333,330.667,117.333z"/>
<path d="M32,501.333c-5.888,0-10.667-4.779-10.667-10.667v-21.333c0-5.888,4.779-10.667,10.667-10.667s10.667,4.779,10.667,10.667
	v21.333C42.667,496.555,37.888,501.333,32,501.333z"/>
<path d="M266.667,501.333c-5.888,0-10.667-4.779-10.667-10.667v-21.333c0-5.888,4.779-10.667,10.667-10.667
	s10.667,4.779,10.667,10.667v21.333C277.333,496.555,272.555,501.333,266.667,501.333z"/>
<path d="M32,373.333c-5.888,0-10.667-4.779-10.667-10.667v-21.333c0-5.888,4.779-10.667,10.667-10.667s10.667,4.779,10.667,10.667
	v21.333C42.667,368.555,37.888,373.333,32,373.333z"/>
<path d="M266.667,373.333c-5.888,0-10.667-4.779-10.667-10.667v-21.333c0-5.888,4.779-10.667,10.667-10.667
	s10.667,4.779,10.667,10.667v21.333C277.333,368.555,272.555,373.333,266.667,373.333z"/>
<g>
</g>
<g>
</g>
<g>
</g>
<g>
</g>
<g>
</g>
<g>
</g>
<g>
</g>
<g>
</g>
<g>
</g>
<g>
</g>
<g>
</g>
<g>
</g>
<g>
</g>
<g>
</g>
<g>
</g>
</svg>
