<?xml version="1.0" encoding="iso-8859-1"?>
<!-- Generator: Adobe Illustrator 19.0.0, SVG Export Plug-In . SVG Version: 6.00 Build 0)  -->
<svg version="1.1" id="Capa_1" xmlns="http://www.w3.org/2000/svg" xmlns:xlink="http://www.w3.org/1999/xlink" x="0px" y="0px"
	 viewBox="0 0 471.568 471.568" style="enable-background:new 0 0 471.568 471.568;" xml:space="preserve">
<path style="fill:#388E3C;" d="M152.408,7.311C119.917-7.345,81.688,0.485,57.56,26.746c-4.16,4.16-4.16,10.923,0,15.083
	l42.667,42.667c4.16,4.16,10.923,4.16,15.083,0l3.136-3.221v16.917c0,3.755,1.963,7.232,5.184,9.152l46.443,27.861
	c0.661,0.405,1.387,0.747,2.133,1.003c21.056,6.592,40.235,18.069,56.021,33.472c1.984,2.027,4.715,3.157,7.552,3.179
	c1.408,0,2.773-0.277,4.075-0.811c3.989-1.643,6.592-5.547,6.592-9.856C246.445,96.101,205.912,29.519,152.408,7.311z"/>
<path style="fill:#4CAF50;" d="M413.997,26.746C389.869,0.506,351.64-7.281,319.171,7.397
	c-53.525,22.123-94.059,88.704-94.059,154.795c0,4.309,2.603,8.213,6.592,9.856c1.301,0.533,2.667,0.811,4.075,0.811
	c2.837,0,5.547-1.109,7.552-3.115c15.765-15.424,34.923-26.901,55.957-33.536c0.747-0.256,1.472-0.576,2.133-1.003l46.443-27.861
	c3.221-1.92,5.184-5.397,5.184-9.152V81.274l3.115,3.115c4.16,4.16,10.923,4.16,15.083,0l42.667-42.667
	c4.16-4.16,4.16-10.923,0-15.083L413.997,26.746z"/>
<path style="fill:#6D4C41;" d="M267.779,172.069c-0.448-5.867-5.568-10.283-11.435-9.835c-5.525,0.469-9.771,5.12-9.749,10.667
	h-21.611c-0.448-5.867-5.568-10.283-11.435-9.835c-4.971,0.384-9.003,4.117-9.749,9.045l-21.333,288
	c-0.427,5.867,3.968,10.987,9.856,11.435c0.277,0.021,0.555,0.021,0.811,0.021h85.333c5.888,0.021,10.688-4.736,10.688-10.645
	c0-0.277,0-0.555-0.021-0.811L267.779,172.069z"/>
<g>
	<path style="fill:#795548;" d="M267.779,407.525h-64c-5.888,0-10.667-4.779-10.667-10.667c0-5.888,4.779-10.667,10.667-10.667h64
		c5.888,0,10.667,4.779,10.667,10.667C278.445,402.746,273.667,407.525,267.779,407.525z"/>
	<path style="fill:#795548;" d="M257.112,343.525h-42.667c-5.888,0-10.667-4.779-10.667-10.667c0-5.888,4.779-10.667,10.667-10.667
		h42.667c5.888,0,10.667,4.779,10.667,10.667C267.779,338.746,263,343.525,257.112,343.525z"/>
	<path style="fill:#795548;" d="M257.112,279.525h-42.667c-5.888,0-10.667-4.779-10.667-10.667s4.779-10.667,10.667-10.667h42.667
		c5.888,0,10.667,4.779,10.667,10.667S263,279.525,257.112,279.525z"/>
	<path style="fill:#795548;" d="M257.112,215.525h-42.667c-5.888,0-10.667-4.779-10.667-10.667s4.779-10.667,10.667-10.667h42.667
		c5.888,0,10.667,4.779,10.667,10.667S263,215.525,257.112,215.525z"/>
</g>
<path style="fill:#388E3C;" d="M400.045,117.647c-59.627-21.888-126.528-7.445-171.819,37.099c-4.16,4.16-4.181,10.923-0.021,15.083
	c1.451,1.472,3.307,2.475,5.333,2.901l124.096,26.453c4.608,0.981,9.323-1.173,11.584-5.291l4.757-8.661l6.912,13.824
	c1.493,2.987,4.331,5.12,7.616,5.717l58.667,10.667c0.64,0.128,1.28,0.171,1.92,0.171c5.888,0,10.667-4.779,10.667-10.667
	C460.419,166.117,436.461,131.109,400.045,117.647z"/>
<path style="fill:#4CAF50;" d="M243.331,154.746c-45.269-44.587-112.192-59.029-171.819-37.099
	c-36.395,13.44-60.331,48.405-59.733,87.189c0,5.888,4.779,10.667,10.667,10.667c0.64,0,1.28-0.043,1.92-0.171l58.667-10.667
	c3.285-0.597,6.123-2.731,7.616-5.717l6.912-13.824l4.757,8.661c2.261,4.117,6.976,6.272,11.584,5.291l124.011-26.453
	c5.76-1.237,9.429-6.891,8.213-12.651c-0.427-2.027-1.429-3.861-2.901-5.333L243.331,154.746z"/>
<path d="M235.779,172.858c-2.731,0-5.44-1.067-7.488-3.051c-15.659-15.381-35.008-27.008-55.957-33.579
	c-0.789-0.256-1.557-0.597-2.283-1.024l-46.421-27.861c-3.221-1.941-5.184-5.397-5.184-9.152V81.274l-3.115,3.115
	c-4.16,4.16-10.923,4.16-15.083,0L57.581,41.722c-2.005-1.984-3.136-4.693-3.136-7.531s1.131-5.547,3.115-7.552
	c26.731-26.731,60.395-33.6,94.827-19.328c53.611,22.208,94.059,88.789,94.059,154.88c0,4.309-2.581,8.171-6.549,9.835
	C238.573,172.581,237.165,172.858,235.779,172.858z M179.971,116.261c15.296,4.928,29.867,12.224,43.029,21.461
	c-8.256-48.704-39.915-94.635-78.784-110.72c-16.469-6.827-40.149-10.432-63.552,7.637l27.115,27.136l13.781-13.781
	c3.051-3.072,7.637-3.968,11.627-2.304c3.989,1.621,6.592,5.525,6.592,9.835v36.629L179.971,116.261z"/>
<path d="M22.445,215.525c-2.475,0-4.907-0.875-6.827-2.475c-2.432-2.027-3.84-5.013-3.84-8.192c0-39.68,21.803-71.467,59.797-87.189
	c55.211-22.848,127.445-7.317,171.733,36.992c2.752,2.752,3.797,6.827,2.688,10.581c-1.109,3.712-4.16,6.571-8,7.381L113.88,199.098
	c-4.608,0.96-9.301-1.195-11.563-5.312l-4.757-8.64l-6.912,13.824c-1.493,3.008-4.331,5.12-7.637,5.717l-58.667,10.667
	C23.725,215.461,23.085,215.525,22.445,215.525z M125.976,128.656c-16.171,0-32,2.816-46.229,8.704
	c-25.749,10.667-41.579,29.76-45.611,54.528l39.829-7.232l13.611-27.221c1.771-3.563,5.355-5.824,9.323-5.909
	c4.16-0.107,7.637,2.048,9.557,5.525l10.731,19.52l95.147-20.288C187.501,138.426,156.12,128.656,125.976,128.656z"/>
<path d="M235.779,172.858c-1.387,0-2.795-0.277-4.117-0.832c-3.968-1.664-6.549-5.547-6.549-9.835
	c0-66.091,40.448-132.672,94.059-154.88c34.389-14.272,68.053-7.403,94.805,19.349c4.16,4.16,4.16,10.923,0,15.083L371.309,84.41
	c-4.16,4.16-10.923,4.16-15.083,0l-3.115-3.136v16.917c0,3.755-1.963,7.211-5.184,9.152l-46.443,27.861
	c-0.704,0.448-1.472,0.789-2.283,1.024c-20.928,6.592-40.299,18.197-55.936,33.579C241.219,171.791,238.509,172.858,235.779,172.858
	z M353.773,21.434c-9.856,0-18.901,2.453-26.432,5.568c-38.869,16.107-70.549,62.037-78.784,110.72
	c13.163-9.237,27.733-16.512,43.051-21.461l40.171-24.107V55.525c0-4.309,2.603-8.213,6.592-9.856
	c3.989-1.643,8.555-0.747,11.627,2.304l13.781,13.803l27.115-27.115C378.2,24.869,365.421,21.434,353.773,21.434z M342.445,98.191
	h0.213H342.445z"/>
<path d="M449.112,215.525c-0.619,0-1.28-0.043-1.92-0.171l-58.667-10.667c-3.285-0.597-6.123-2.709-7.616-5.717l-6.891-13.803
	l-4.757,8.64c-2.283,4.117-6.912,6.229-11.584,5.312L233.56,172.645c-3.84-0.832-6.891-3.691-8-7.424
	c-1.109-3.755-0.064-7.808,2.688-10.581c44.288-44.288,116.565-59.883,171.733-36.992c38.016,15.744,59.819,47.531,59.819,87.189
	c0,3.157-1.387,6.165-3.84,8.192C453.997,214.65,451.587,215.525,449.112,215.525z M397.592,184.656l39.829,7.232
	c-4.011-24.768-19.883-43.861-45.611-54.528c-40.832-16.896-94.443-8.491-132.629,18.901l95.189,20.288l10.709-19.52
	c1.899-3.477,5.269-5.696,9.557-5.525c3.968,0.085,7.552,2.347,9.344,5.888L397.592,184.656z"/>
<path d="M278.445,471.525h-85.333c-2.965,0-5.803-1.237-7.808-3.413c-2.027-2.176-3.051-5.077-2.816-8.043l21.333-288
	c0.448-5.867,5.269-10.432,11.435-9.835c5.867,0.448,10.283,5.547,9.835,11.435l-20.48,276.544h62.357l-20.48-276.544
	c-0.448-5.867,3.968-10.987,9.835-11.435c5.696-0.427,11.008,3.968,11.435,9.835l21.333,288c0.213,2.965-0.811,5.867-2.837,8.043
	C284.227,470.287,281.411,471.525,278.445,471.525z"/>
<path d="M267.779,407.525h-64c-5.888,0-10.667-4.779-10.667-10.667c0-5.888,4.779-10.667,10.667-10.667h64
	c5.888,0,10.667,4.779,10.667,10.667C278.445,402.746,273.667,407.525,267.779,407.525z"/>
<path d="M257.112,343.525h-42.667c-5.888,0-10.667-4.779-10.667-10.667c0-5.888,4.779-10.667,10.667-10.667h42.667
	c5.888,0,10.667,4.779,10.667,10.667C267.779,338.746,263,343.525,257.112,343.525z"/>
<path d="M257.112,279.525h-42.667c-5.888,0-10.667-4.779-10.667-10.667s4.779-10.667,10.667-10.667h42.667
	c5.888,0,10.667,4.779,10.667,10.667S263,279.525,257.112,279.525z"/>
<path d="M257.112,215.525h-42.667c-5.888,0-10.667-4.779-10.667-10.667s4.779-10.667,10.667-10.667h42.667
	c5.888,0,10.667,4.779,10.667,10.667S263,215.525,257.112,215.525z"/>
<g>
</g>
<g>
</g>
<g>
</g>
<g>
</g>
<g>
</g>
<g>
</g>
<g>
</g>
<g>
</g>
<g>
</g>
<g>
</g>
<g>
</g>
<g>
</g>
<g>
</g>
<g>
</g>
<g>
</g>
</svg>
