<?xml version="1.0" encoding="iso-8859-1"?>
<!-- Generator: Adobe Illustrator 19.0.0, SVG Export Plug-In . SVG Version: 6.00 Build 0)  -->
<svg version="1.1" id="Capa_1" xmlns="http://www.w3.org/2000/svg" xmlns:xlink="http://www.w3.org/1999/xlink" x="0px" y="0px"
	 viewBox="0 0 512.005 512.005" style="enable-background:new 0 0 512.005 512.005;" xml:space="preserve">
<circle style="fill:#FFC107;" cx="213.348" cy="181.333" r="85.333"/>
<path style="fill:#CFD8DC;" d="M328.697,303.125L222.031,153.792c-1.813-2.56-4.672-4.203-7.808-4.459
	c-3.115-0.192-6.187,0.917-8.427,3.093l-42.667,42.667c-0.811,0.811-1.493,1.749-2.005,2.773l-36.437,72.768
	c-2.667,5.248-0.555,11.669,4.715,14.336c0.192,0.107,0.405,0.192,0.597,0.277l75.563,32.384l40.917,81.835
	c1.643,3.285,4.864,5.504,8.533,5.845l1.003,0.021c3.349,0,6.528-1.579,8.533-4.267l64-85.333
	C331.343,312.021,331.407,306.901,328.697,303.125z"/>
<path style="fill:#607D8B;" d="M499.215,494.933l-62.976-83.968l-20.779-62.357c-0.896-2.688-2.816-4.907-5.355-6.165
	l-85.333-42.667c-4.608-2.304-10.219-0.981-13.312,3.136l-53.653,71.531l-34.944-69.888c-1.131-2.261-3.008-4.032-5.333-5.035
	l-79.147-33.92c-5.205-2.24-11.243-0.021-13.76,5.056l-27.52,55.253c-0.725,1.472-1.109,3.115-1.088,4.757v38.251l-39.552,39.531
	c-2.005,2.005-3.115,4.715-3.115,7.552v38.251l-39.552,39.531c-4.181,4.16-4.181,10.923-0.021,15.083
	c2.005,2.005,4.736,3.136,7.573,3.136h469.333c5.888,0,10.667-4.779,10.667-10.667C501.348,499.029,500.601,496.789,499.215,494.933
	z"/>
<g>
	<path style="fill:#FFD54F;" d="M213.348,64c-5.888,0-10.667-4.779-10.667-10.667V10.667C202.681,4.779,207.46,0,213.348,0
		s10.667,4.779,10.667,10.667v42.667C224.015,59.221,219.236,64,213.348,64z"/>
	<path style="fill:#FFD54F;" d="M149.348,81.067c-3.819,0-7.339-2.027-9.237-5.333l-21.333-36.928
		c-2.731-5.227-0.704-11.669,4.501-14.4c4.907-2.56,10.965-0.939,13.952,3.733l21.333,36.928c2.944,5.099,1.195,11.627-3.904,14.571
		C153.039,80.576,151.204,81.067,149.348,81.067z"/>
	<path style="fill:#FFD54F;" d="M102.415,128c-1.877,0-3.712-0.491-5.333-1.429l-36.928-21.333
		c-4.971-3.157-6.443-9.749-3.285-14.72c2.965-4.672,9.024-6.293,13.952-3.733l36.928,21.333c5.099,2.965,6.805,9.493,3.84,14.592
		C109.689,125.973,106.191,127.979,102.415,128z"/>
	<path style="fill:#FFD54F;" d="M361.145,277.333c-1.877,0-3.712-0.491-5.333-1.429l-36.928-21.333
		c-4.971-3.157-6.443-9.749-3.285-14.72c2.965-4.672,9.024-6.293,13.952-3.733l36.928,21.333c5.099,2.944,6.848,9.472,3.904,14.571
		C368.484,275.328,364.964,277.355,361.145,277.333L361.145,277.333z"/>
	<path style="fill:#FFD54F;" d="M85.348,192H42.681c-5.888,0-10.667-4.779-10.667-10.667s4.779-10.667,10.667-10.667h42.667
		c5.888,0,10.667,4.779,10.667,10.667S91.236,192,85.348,192z"/>
	<path style="fill:#FFD54F;" d="M384.015,192h-42.667c-5.888,0-10.667-4.779-10.667-10.667s4.779-10.667,10.667-10.667h42.667
		c5.888,0,10.667,4.779,10.667,10.667S389.903,192,384.015,192z"/>
	<path style="fill:#FFD54F;" d="M65.551,277.333c-5.888,0-10.667-4.779-10.667-10.667c0-3.819,2.027-7.339,5.333-9.237
		l36.928-21.333c5.227-2.731,11.669-0.704,14.4,4.501c2.56,4.907,0.939,10.965-3.733,13.952l-36.928,21.333
		C69.263,276.821,67.428,277.333,65.551,277.333z"/>
	<path style="fill:#FFD54F;" d="M324.281,128c-5.888,0-10.667-4.779-10.667-10.667c0-3.819,2.027-7.339,5.333-9.237l36.928-21.333
		c5.227-2.731,11.669-0.704,14.4,4.501c2.56,4.907,0.939,10.965-3.733,13.952l-36.928,21.333
		C327.993,127.488,326.159,128,324.281,128z"/>
	<path style="fill:#FFD54F;" d="M277.348,81.067c-5.888,0-10.667-4.779-10.667-10.667c0-1.877,0.491-3.712,1.429-5.333
		l21.333-36.928c3.157-4.971,9.749-6.443,14.72-3.285c4.672,2.965,6.293,9.024,3.733,13.952l-21.333,36.928
		C284.665,79.019,281.145,81.067,277.348,81.067z"/>
</g>
<path d="M490.681,512c-3.221,0-6.443-1.472-8.533-4.267l-64-85.333c-0.683-0.917-1.216-1.941-1.579-3.029l-19.947-59.819
	l-81.365-40.683c-1.557-0.768-2.901-1.92-3.925-3.328l-99.349-139.093l-32.533,32.533l-62.101,124.203v40.149
	c0,2.837-1.131,5.547-3.115,7.552l-39.552,39.531v38.251c0,2.837-1.131,5.547-3.115,7.552L28.9,508.885
	c-4.16,4.16-10.923,4.16-15.083,0s-4.16-10.923,0-15.083l39.531-39.552V416c0-2.837,1.131-5.547,3.115-7.552l39.552-39.531v-38.251
	c0-1.643,0.384-3.285,1.131-4.779l64-128c0.512-1.024,1.195-1.963,2.005-2.773l42.667-42.667c2.219-2.219,5.376-3.243,8.427-3.093
	c3.115,0.256,5.973,1.877,7.808,4.437l105.131,147.179l82.965,41.472c2.517,1.28,4.459,3.477,5.355,6.165l20.779,62.357
	l62.933,83.968c3.52,4.715,2.56,11.392-2.155,14.933C495.161,511.317,492.9,512,490.681,512z"/>
<path d="M213.348,64c-5.888,0-10.667-4.779-10.667-10.667V10.667C202.681,4.779,207.46,0,213.348,0s10.667,4.779,10.667,10.667
	v42.667C224.015,59.221,219.236,64,213.348,64z"/>
<path d="M149.348,81.152c-3.691,0-7.275-1.92-9.259-5.333l-21.333-36.949c-2.923-5.099-1.173-11.627,3.925-14.571
	c5.077-2.965,11.627-1.195,14.571,3.904l21.333,36.949c2.944,5.099,1.195,11.627-3.904,14.571
	C152.996,80.704,151.161,81.152,149.348,81.152z"/>
<path d="M102.5,128c-1.813,0-3.648-0.448-5.333-1.429l-36.949-21.333c-5.099-2.944-6.869-9.472-3.904-14.571
	s9.472-6.869,14.571-3.904l36.949,21.333c5.099,2.944,6.848,9.472,3.904,14.571C109.775,126.08,106.191,128,102.5,128z"/>
<path d="M361.145,277.333c-1.813,0-3.648-0.448-5.333-1.429l-36.928-21.333c-5.099-2.944-6.848-9.472-3.904-14.571
	c2.944-5.12,9.451-6.827,14.571-3.904l36.928,21.333c5.099,2.944,6.848,9.472,3.904,14.571
	C368.42,275.435,364.815,277.333,361.145,277.333z"/>
<path d="M85.348,192H42.681c-5.888,0-10.667-4.779-10.667-10.667s4.779-10.667,10.667-10.667h42.667
	c5.888,0,10.667,4.779,10.667,10.667S91.236,192,85.348,192z"/>
<path d="M384.015,192h-42.667c-5.888,0-10.667-4.779-10.667-10.667s4.779-10.667,10.667-10.667h42.667
	c5.888,0,10.667,4.779,10.667,10.667S389.903,192,384.015,192z"/>
<path d="M65.551,277.333c-3.691,0-7.275-1.92-9.259-5.333c-2.944-5.099-1.195-11.627,3.904-14.571l36.949-21.333
	c5.077-2.965,11.605-1.195,14.571,3.904c2.944,5.099,1.195,11.627-3.904,14.571l-36.949,21.333
	C69.199,276.885,67.364,277.333,65.551,277.333z"/>
<path d="M324.196,128c-3.669,0-7.275-1.899-9.237-5.333c-2.965-5.099-1.216-11.627,3.904-14.571l36.928-21.333
	c5.099-2.944,11.627-1.216,14.571,3.904c2.965,5.099,1.216,11.627-3.904,14.571l-36.928,21.333
	C327.844,127.552,326.009,128,324.196,128z"/>
<path d="M277.348,81.152c-1.813,0-3.648-0.448-5.333-1.429c-5.099-2.944-6.848-9.472-3.904-14.571l21.333-36.949
	c2.944-5.099,9.472-6.827,14.571-3.904c5.099,2.944,6.848,9.472,3.904,14.571l-21.333,36.949
	C284.623,79.232,281.017,81.152,277.348,81.152z"/>
<path d="M291.833,225.259c-1.387,0-2.816-0.277-4.181-0.853c-5.419-2.304-7.936-8.576-5.632-13.995
	c7.829-18.347,8.043-38.635,0.597-57.152c-7.424-18.496-21.632-33.003-39.979-40.832c-18.347-7.829-38.635-8.043-57.152-0.619
	c-18.475,7.445-33.003,21.632-40.811,39.979c-7.957,18.624-7.957,40,0,58.624c2.304,5.419-0.213,11.691-5.632,13.995
	c-5.44,2.304-11.691-0.213-13.995-5.632c-10.219-23.957-10.219-51.413,0-75.371c10.069-23.573,28.715-41.835,52.501-51.392
	c23.808-9.557,49.877-9.28,73.472,0.789c23.573,10.069,41.835,28.715,51.413,52.501c9.536,23.787,9.28,49.877-0.789,73.472
	C299.919,222.827,295.972,225.259,291.833,225.259z"/>
<path d="M256.015,405.333c-0.32,0-0.64-0.021-0.96-0.043c-3.669-0.341-6.933-2.539-8.576-5.845l-40.917-81.835l-71.083-30.464
	c-5.419-2.325-7.936-8.597-5.611-14.016c2.325-5.44,8.619-7.957,13.995-5.611l74.667,32c2.325,1.003,4.224,2.795,5.333,5.035
	l34.944,69.888l53.675-71.509c3.563-4.736,10.261-5.653,14.933-2.155c4.715,3.541,5.675,10.219,2.155,14.933l-64,85.333
	C262.521,403.776,259.364,405.333,256.015,405.333z"/>
<g>
</g>
<g>
</g>
<g>
</g>
<g>
</g>
<g>
</g>
<g>
</g>
<g>
</g>
<g>
</g>
<g>
</g>
<g>
</g>
<g>
</g>
<g>
</g>
<g>
</g>
<g>
</g>
<g>
</g>
</svg>
