<?xml version="1.0" encoding="iso-8859-1"?>
<!-- Generator: Adobe Illustrator 19.0.0, SVG Export Plug-In . SVG Version: 6.00 Build 0)  -->
<svg version="1.1" id="Capa_1" xmlns="http://www.w3.org/2000/svg" xmlns:xlink="http://www.w3.org/1999/xlink" x="0px" y="0px"
	 viewBox="0 0 469.333 469.333" style="enable-background:new 0 0 469.333 469.333;" xml:space="preserve">
<path style="fill:#455A64;" d="M193.436,469.333H86.77c-4.885,0-9.152-3.328-10.347-8.085L33.756,290.581
	c-1.557-5.675,1.792-11.541,7.467-13.099c5.675-1.557,11.541,1.792,13.099,7.467c0.043,0.149,0.085,0.32,0.128,0.469L95.111,448
	h90.005l40.661-162.581c1.301-5.739,6.997-9.365,12.757-8.064s9.365,6.997,8.064,12.757c-0.043,0.171-0.085,0.32-0.128,0.469
	l-42.667,170.667C202.61,466.005,198.343,469.333,193.436,469.333z"/>
<path style="fill:#607D8B;" d="M435.698,284.011l-13.675-109.312l0,0C418.674,148.011,395.996,128,369.095,128h-47.659
	c-1.472,0-2.923,0.32-4.267,0.917l-93.995,41.749h-51.072c-17.664,0-32,14.336-32,32s14.336,32,32,32h64
	c1.664,0,3.285-0.384,4.779-1.131l28.565-14.293l20.032,240.32c0.469,5.547,5.099,9.792,10.667,9.771h85.333
	c5.611,0.021,10.283-4.331,10.667-9.92L406.044,320c17.643-1.152,30.997-16.384,29.845-34.027c-0.043-0.64-0.107-1.259-0.192-1.899
	L435.698,284.011z"/>
<circle style="fill:#455A64;" cx="342.855" cy="53.333" r="53.333"/>
<path style="fill:#FFC107;" d="M180.978,324.757l-42.667-64c-1.749-2.688-4.629-4.416-7.808-4.757
	c-3.157-0.192-6.229,0.917-8.533,3.093L79.303,301.76c-3.584,3.605-4.139,9.237-1.323,13.461l42.667,64
	c1.728,2.667,4.587,4.416,7.744,4.779h1.045c2.837,0,5.547-1.109,7.552-3.115l42.667-42.667
	C183.239,334.613,183.794,328.981,180.978,324.757z"/>
<path d="M193.436,469.333H86.77c-4.885,0-9.152-3.328-10.347-8.085L33.756,290.581c-1.429-5.717,2.048-11.499,7.765-12.928
	c5.717-1.387,11.499,2.048,12.928,7.765L95.111,448h90.005l40.661-162.581c1.408-5.739,7.211-9.195,12.928-7.765
	c5.717,1.429,9.195,7.232,7.765,12.928l-42.667,170.667C202.588,466.005,198.322,469.333,193.436,469.333z"/>
<path d="M385.436,469.333h-85.333c-5.547,0-10.176-4.245-10.624-9.771l-20.011-240.32l-28.587,14.293
	c-1.493,0.747-3.115,1.131-4.779,1.131h-64c-17.643,0-32-14.357-32-32s14.357-32,32-32h51.072l93.931-41.749
	c1.387-0.597,2.837-0.917,4.331-0.917h47.659c26.859,0,49.6,20.075,52.928,46.72l0,0l13.653,109.333
	c0.171,1.323,0.256,2.645,0.256,3.968c0,16.939-13.205,30.827-29.867,31.936l-9.963,139.477
	C395.698,465.003,391.047,469.333,385.436,469.333z M309.916,448h65.579l9.963-139.413c0.405-5.589,5.056-9.92,10.645-9.92h7.808
	c5.867,0,10.667-4.8,10.667-10.667l-13.739-110.635c-1.984-15.979-15.616-28.032-31.744-28.032h-45.376l-93.952,41.749
	c-1.365,0.597-2.837,0.917-4.331,0.917h-53.333c-5.888,0-10.667,4.779-10.667,10.667s4.779,10.667,10.667,10.667h61.483
	l40.427-20.203c3.179-1.557,6.933-1.472,10.005,0.235c3.093,1.749,5.099,4.885,5.397,8.427L309.916,448z"/>
<path d="M342.77,106.667c-29.419,0-53.333-23.936-53.333-53.333S313.351,0,342.77,0s53.333,23.936,53.333,53.333
	S372.188,106.667,342.77,106.667z M342.77,21.333c-17.643,0-32,14.357-32,32s14.357,32,32,32s32-14.357,32-32
	S360.434,21.333,342.77,21.333z"/>
<path d="M129.436,384c-0.341,0-0.704-0.021-1.045-0.043c-3.179-0.341-6.059-2.048-7.829-4.715l-42.667-64
	c-2.816-4.224-2.261-9.856,1.323-13.461l42.667-42.667c2.261-2.24,5.333-3.285,8.597-3.093c3.179,0.341,6.059,2.048,7.829,4.715
	l42.667,64c2.816,4.224,2.261,9.856-1.323,13.461l-42.667,42.667C134.962,382.891,132.252,384,129.436,384z M100.487,310.677
	l30.592,45.888l27.285-27.264l-30.592-45.888L100.487,310.677z"/>
<g>
</g>
<g>
</g>
<g>
</g>
<g>
</g>
<g>
</g>
<g>
</g>
<g>
</g>
<g>
</g>
<g>
</g>
<g>
</g>
<g>
</g>
<g>
</g>
<g>
</g>
<g>
</g>
<g>
</g>
</svg>
