<?xml version="1.0" encoding="iso-8859-1"?>
<!-- Generator: Adobe Illustrator 19.0.0, SVG Export Plug-In . SVG Version: 6.00 Build 0)  -->
<svg version="1.1" id="Capa_1" xmlns="http://www.w3.org/2000/svg" xmlns:xlink="http://www.w3.org/1999/xlink" x="0px" y="0px"
	 viewBox="0 0 511.235 511.235" style="enable-background:new 0 0 511.235 511.235;" xml:space="preserve">
<g>
	<path style="fill:#388E3C;" d="M117.51,6.531l-106.667,320c-1.856,5.589,1.152,11.627,6.741,13.483
		c1.088,0.363,2.219,0.555,3.371,0.555h163.563c4.587,0,8.661-2.944,10.112-7.296l24.896-74.667c0.747-2.176,0.747-4.565,0-6.741
		L137.734,6.531c-2.517-5.589-9.088-8.064-14.677-5.547C120.603,2.094,118.619,4.057,117.51,6.531z"/>
	<path style="fill:#388E3C;" d="M500.4,326.531l-106.667-320c-2.517-5.589-9.088-8.064-14.677-5.547
		c-2.475,1.109-4.437,3.093-5.547,5.547l-81.771,245.333c-0.747,2.176-0.747,4.565,0,6.741l24.896,74.667
		c1.451,4.352,5.525,7.296,10.112,7.296h163.541c5.888,0,10.667-4.779,10.667-10.667C500.955,328.75,500.763,327.619,500.4,326.531z
		"/>
</g>
<path style="fill:#4CAF50;" d="M372.4,433.198l-106.667-320c-2.517-5.589-9.088-8.064-14.677-5.547
	c-2.475,1.109-4.437,3.093-5.547,5.547l-106.667,320c-1.856,5.589,1.152,11.627,6.741,13.483c1.088,0.363,2.219,0.555,3.371,0.555
	h213.333c5.888,0,10.667-4.779,10.667-10.667C372.955,435.417,372.763,434.286,372.4,433.198z"/>
<g>
	<path style="fill:#388E3C;" d="M255.622,511.235c-5.888,0-10.667-4.779-10.667-10.667V393.902c0-5.888,4.779-10.667,10.667-10.667
		c5.888,0,10.667,4.779,10.667,10.667v106.667C266.288,506.457,261.51,511.235,255.622,511.235z"/>
	<path style="fill:#388E3C;" d="M383.622,404.569c-5.888,0-10.667-4.779-10.667-10.667V287.235c0-5.888,4.779-10.667,10.667-10.667
		c5.888,0,10.667,4.779,10.667,10.667v106.667C394.288,399.79,389.51,404.569,383.622,404.569z"/>
	<path style="fill:#388E3C;" d="M127.622,404.569c-5.888,0-10.667-4.779-10.667-10.667V287.235c0-5.888,4.779-10.667,10.667-10.667
		c5.888,0,10.667,4.779,10.667,10.667v106.667C138.288,399.79,133.51,404.569,127.622,404.569z"/>
</g>
<path d="M184.518,340.569H20.955c-3.435,0-6.656-1.643-8.661-4.437c-2.005-2.773-2.56-6.357-1.451-9.6l106.667-320
	c2.901-8.704,17.323-8.704,20.224,0l81.771,245.333c0.747,2.197,0.747,4.565,0,6.741l-24.875,74.667
	C193.179,337.625,189.104,340.569,184.518,340.569z M35.76,319.235h141.077l21.333-64L127.622,43.63L35.76,319.235z"/>
<path d="M490.288,340.569H326.726c-4.587,0-8.661-2.944-10.133-7.296l-24.875-74.667c-0.725-2.197-0.725-4.565,0-6.741
	L373.488,6.531c2.923-8.704,17.323-8.704,20.245,0l106.667,320c1.088,3.243,0.533,6.827-1.472,9.6
	C496.944,338.926,493.723,340.569,490.288,340.569z M334.406,319.235h141.077L383.622,43.63l-70.528,211.605L334.406,319.235z"/>
<path d="M255.622,511.235c-5.888,0-10.667-4.779-10.667-10.667V393.902c0-5.888,4.779-10.667,10.667-10.667
	c5.888,0,10.667,4.779,10.667,10.667v106.667C266.288,506.457,261.51,511.235,255.622,511.235z"/>
<path d="M383.622,404.569c-5.888,0-10.667-4.779-10.667-10.667V287.235c0-5.888,4.779-10.667,10.667-10.667
	c5.888,0,10.667,4.779,10.667,10.667v106.667C394.288,399.79,389.51,404.569,383.622,404.569z"/>
<path d="M127.622,404.569c-5.888,0-10.667-4.779-10.667-10.667V287.235c0-5.888,4.779-10.667,10.667-10.667
	c5.888,0,10.667,4.779,10.667,10.667v106.667C138.288,399.79,133.51,404.569,127.622,404.569z"/>
<path d="M362.288,447.235H148.955c-3.435,0-6.656-1.643-8.661-4.437c-2.005-2.773-2.56-6.357-1.451-9.6l106.667-320
	c2.901-8.704,17.323-8.704,20.224,0l106.667,320c1.088,3.243,0.533,6.827-1.472,9.6
	C368.944,445.593,365.723,447.235,362.288,447.235z M163.76,425.902h183.744l-91.883-275.605L163.76,425.902z"/>
<g>
</g>
<g>
</g>
<g>
</g>
<g>
</g>
<g>
</g>
<g>
</g>
<g>
</g>
<g>
</g>
<g>
</g>
<g>
</g>
<g>
</g>
<g>
</g>
<g>
</g>
<g>
</g>
<g>
</g>
</svg>
