<?xml version="1.0" encoding="iso-8859-1"?>
<!-- Generator: Adobe Illustrator 19.0.0, SVG Export Plug-In . SVG Version: 6.00 Build 0)  -->
<svg version="1.1" id="Capa_1" xmlns="http://www.w3.org/2000/svg" xmlns:xlink="http://www.w3.org/1999/xlink" x="0px" y="0px"
	 viewBox="0 0 512.355 512.355" style="enable-background:new 0 0 512.355 512.355;" xml:space="preserve">
<g>
	<path style="fill:#388E3C;" d="M266.861,363.022c-5.888,0-10.667-4.779-10.667-10.667v-192c0-5.888,4.779-10.667,10.667-10.667
		s10.667,4.779,10.667,10.667v192C277.527,358.243,272.749,363.022,266.861,363.022z"/>
	<path style="fill:#388E3C;" d="M266.861,363.022c-5.888,0-10.667-4.779-10.667-10.667c0-28.352-22.912-45.909-39.616-58.731
		c-4.437-3.243-8.661-6.763-12.693-10.496c-4.096-4.245-3.968-10.987,0.256-15.083c4.139-3.989,10.688-3.989,14.827,0
		c3.392,3.093,6.955,5.973,10.667,8.64c17.856,13.803,47.893,36.779,47.893,75.669C277.527,358.243,272.749,363.022,266.861,363.022
		z"/>
</g>
<path style="fill:#4CAF50;" d="M218.967,206.307c-27.968-24.448-64.341-37.099-101.44-35.285c-5.888,0-10.667,4.757-10.688,10.645
	c0,2.837,1.131,5.568,3.136,7.573c9.515,13.952,14.997,30.272,15.829,47.147c0.747,16.853,6.443,33.088,16.341,46.741
	c21.589,20.821,55.979,20.203,76.8-1.387c20.288-21.035,20.288-54.379,0-75.413L218.967,206.307z"/>
<path style="fill:#455A64;" d="M403.394,345.955c-2.005-2.688-5.184-4.267-8.533-4.267h-256c-5.888,0-10.667,4.779-10.645,10.688
	c0,0.981,0.149,1.984,0.405,2.923l42.667,149.333c1.301,4.565,5.483,7.723,10.24,7.723h170.667c4.757,0,8.939-3.157,10.24-7.723
	l42.667-149.333C406.018,352.099,405.399,348.622,403.394,345.955z"/>
<path style="fill:#EC407A;" d="M358.146,66.68c-6.677-20.587-27.691-32.896-48.917-28.672c-2.731-23.403-23.915-40.171-47.317-37.44
	c-19.648,2.304-35.136,17.792-37.44,37.44c-23.104-4.629-45.589,10.325-50.24,33.429c-3.904,19.413,6.059,38.933,24.064,47.189
	c-11.563,20.544-4.288,46.549,16.256,58.112c17.259,9.707,38.912,6.293,52.309-8.277c15.979,17.323,42.987,18.389,60.288,2.411
	c7.061-6.507,11.712-15.211,13.205-24.704c1.515-9.472-0.213-19.179-4.928-27.52C355.074,109.603,364.845,87.267,358.146,66.68z"/>
<path d="M266.861,107.022c-1.408,0.043-2.795-0.235-4.053-0.853c-1.323-0.469-2.517-1.28-3.413-2.347
	c-1.088-0.896-1.877-2.069-2.325-3.413c-0.619-1.259-0.917-2.645-0.875-4.053c-0.043-2.837,1.109-5.547,3.179-7.488
	c0.896-1.067,2.091-1.877,3.413-2.325c2.603-1.067,5.504-1.067,8.107,0c1.344,0.448,2.517,1.237,3.413,2.325
	c2.091,1.92,3.264,4.651,3.221,7.488c0.043,1.387-0.235,2.773-0.853,4.032c-0.448,1.323-1.259,2.517-2.347,3.413
	C272.407,105.891,269.698,107.064,266.861,107.022z"/>
<path style="fill:#FAFAFA;" d="M267.287,107.022c-5.888,0-10.667-4.779-10.667-10.667s4.779-10.667,10.667-10.667h0.213
	c5.888,0,10.667,4.779,10.667,10.667s-4.779,10.667-10.667,10.667H267.287z"/>
<path d="M266.861,363.022c-5.888,0-10.667-4.779-10.667-10.667v-192c0-5.888,4.779-10.667,10.667-10.667s10.667,4.779,10.667,10.667
	v192C277.527,358.243,272.749,363.022,266.861,363.022z"/>
<path d="M180.759,299.192c-14.016,0-28.032-5.397-38.656-16.149c-10.304-10.347-13.205-27.989-16.277-46.677
	c-3.008-18.411-6.144-37.44-15.851-47.125c-2.987-2.987-3.925-7.424-2.411-11.371s5.205-6.613,9.408-6.848
	c37.184-1.771,73.237,10.389,101.397,34.752c22.059,22.315,21.824,56.768,0.512,77.781
	C208.322,293.987,194.541,299.192,180.759,299.192z M137.111,192.803c5.227,12.437,7.595,26.837,9.771,40.085
	c2.389,14.549,4.864,29.611,10.368,35.115c0,0.021,0.021,0.021,0.043,0.043c12.779,12.928,33.707,13.077,46.613,0.32
	c12.928-12.757,13.077-33.685,0.32-46.613C185.239,205.347,161.879,195.342,137.111,192.803z"/>
<path d="M266.861,363.022c-5.888,0-10.667-4.779-10.667-10.667c0-28.373-22.933-45.931-39.659-58.773
	c-5.163-3.968-9.621-7.445-12.672-10.475c-4.16-4.16-4.16-10.923,0-15.104s10.923-4.16,15.083,0
	c2.539,2.539,6.293,5.355,10.581,8.64c17.941,13.781,48,36.821,48,75.712C277.527,358.243,272.749,363.022,266.861,363.022z"/>
<path d="M352.194,512.355H181.527c-4.757,0-8.939-3.157-10.261-7.723l-42.667-149.333c-0.917-3.221-0.277-6.677,1.749-9.344
	c2.005-2.709,5.163-4.267,8.512-4.267h256c3.349,0,6.507,1.557,8.512,4.245c2.027,2.667,2.645,6.123,1.728,9.344l-42.667,149.333
	C361.133,509.198,356.973,512.355,352.194,512.355z M189.57,491.022h154.581l36.565-128H153.005L189.57,491.022z"/>
<path d="M235.309,182.499c-8.875,0-17.813-2.752-25.472-8.448c-17.472-13.056-22.08-36.971-11.52-55.424
	c-4.267-1.941-8.213-4.608-11.712-7.936c-17.045-16.213-17.707-43.285-1.472-60.331c7.872-8.256,18.475-12.949,29.867-13.227
	c3.136-0.128,6.379,0.192,9.472,0.811c0.533-4.757,1.877-9.429,4.011-13.867c10.261-21.205,35.819-30.059,57.003-19.819
	c10.24,4.971,17.963,13.632,21.717,24.405c1.045,3.051,1.749,6.165,2.112,9.301c9.472-1.92,19.307-0.597,28.032,3.925
	c10.133,5.227,17.6,14.101,21.056,24.96c3.456,10.859,2.475,22.421-2.752,32.533c-4.459,8.597-11.499,15.275-20.181,19.221
	c2.304,4.096,3.968,8.576,4.843,13.333c2.048,11.221-0.405,22.571-6.869,31.936c-6.464,9.365-16.235,15.68-27.435,17.728
	c-11.115,2.091-22.528-0.384-31.915-6.848c-2.645-1.835-5.035-3.925-7.168-6.229C258.626,177.678,247.021,182.499,235.309,182.499z
	 M220.269,100.856c4.565,0,8.704,2.944,10.133,7.381c1.6,4.907-0.555,10.24-5.099,12.672c-2.731,1.472-5.163,3.563-6.997,6.08
	c-3.477,4.651-4.885,10.261-4.075,15.893c0.832,5.653,3.776,10.624,8.363,14.037c9.408,6.997,22.805,5.12,29.845-4.331
	c1.984-2.645,3.328-5.781,3.925-9.045c0.896-5.077,5.312-8.789,10.475-8.789c0,0,0,0,0.021,0c5.141,0,9.557,3.669,10.496,8.747
	c1.024,5.611,4.181,10.475,8.875,13.717c4.693,3.243,10.261,4.437,15.957,3.435c5.611-1.024,10.475-4.181,13.739-8.875
	c3.221-4.693,4.459-10.347,3.413-15.957c-1.173-6.4-5.12-11.84-10.837-14.933c-4.544-2.453-6.677-7.808-5.077-12.715
	c1.6-4.885,6.635-8,11.605-7.232c3.093,0.405,6.208,0.149,9.216-0.789h0.021c5.44-1.728,9.856-5.461,12.48-10.517
	s3.115-10.837,1.365-16.277c-1.728-5.419-5.461-9.856-10.517-12.459c-5.077-2.624-10.795-3.136-16.299-1.365
	c-3.051,0.96-5.888,2.667-8.235,4.885c-3.797,3.563-9.515,3.904-13.653,0.875c-4.16-3.051-5.568-8.619-3.307-13.269
	c2.496-5.12,2.837-10.923,0.96-16.299c-1.856-5.376-5.717-9.707-10.837-12.181c-10.624-5.12-23.381-0.683-28.523,9.899
	c-2.859,5.888-2.859,12.672,0,18.603c2.24,4.651,0.853,10.219-3.328,13.269c-4.16,2.965-9.92,2.603-13.632-0.96
	c-4.117-3.925-9.301-5.675-15.232-5.867c-5.696,0.128-10.987,2.475-14.933,6.613c-3.925,4.117-6.016,9.515-5.867,15.232
	c0.149,5.717,2.496,11.008,6.613,14.933c4.715,4.48,11.093,6.549,17.536,5.696C219.33,100.878,219.799,100.856,220.269,100.856z"/>
<path d="M266.861,107.022c-1.493,0-2.773-0.213-4.053-0.853c-1.28-0.427-2.56-1.28-3.413-2.347c-2.133-1.92-3.2-4.693-3.2-7.467
	c0-1.493,0.213-2.773,0.853-4.053c0.427-1.28,1.28-2.56,2.347-3.413c0.853-1.067,2.133-1.92,3.413-2.347
	c2.56-1.067,5.547-1.067,8.107,0c1.28,0.427,2.56,1.28,3.413,2.347c2.133,1.92,3.2,4.693,3.2,7.467c0,1.28-0.213,2.773-0.853,4.053
	c-0.427,1.28-1.28,2.56-2.347,3.413c-0.853,1.067-2.133,1.92-3.413,2.347C269.634,106.808,268.141,107.022,266.861,107.022z"/>
<path d="M267.287,107.022c-5.888,0-10.773-4.779-10.773-10.667s4.672-10.667,10.56-10.667h0.213c5.888,0,10.667,4.779,10.667,10.667
	S273.175,107.022,267.287,107.022z"/>
<g>
</g>
<g>
</g>
<g>
</g>
<g>
</g>
<g>
</g>
<g>
</g>
<g>
</g>
<g>
</g>
<g>
</g>
<g>
</g>
<g>
</g>
<g>
</g>
<g>
</g>
<g>
</g>
<g>
</g>
</svg>
