<?xml version="1.0" encoding="iso-8859-1"?>
<!-- Generator: Adobe Illustrator 19.0.0, SVG Export Plug-In . SVG Version: 6.00 Build 0)  -->
<svg version="1.1" id="Capa_1" xmlns="http://www.w3.org/2000/svg" xmlns:xlink="http://www.w3.org/1999/xlink" x="0px" y="0px"
	 viewBox="0 0 512 512" style="enable-background:new 0 0 512 512;" xml:space="preserve">
<path style="fill:#CFD8DC;" d="M309.333,256c-5.888,0-10.667-4.757-10.688-10.645c0-2.837,1.131-5.568,3.136-7.573
	c24.171-24.149,52.352-80.192,39.552-109.611c-6.549-15.104-24.64-22.357-53.013-21.504c-32.299-0.043-63.211-12.992-85.888-35.989
	c-17.749-15.317-29.077-36.736-31.765-60.011C170.667,4.779,175.445,0,181.333,0S192,4.779,192,10.667
	c2.773,17.493,11.755,33.408,25.301,44.8c18.517,18.987,43.883,29.76,70.4,29.867c47.659-1.323,66.133,17.899,73.237,34.368
	c18.773,43.435-20.075,109.205-44.032,133.163C314.901,254.869,312.171,256,309.333,256z"/>
<path style="fill:#2196F3;" d="M10.667,320.192h490.667c5.888,0,10.667,4.779,10.667,10.667v170.475
	c0,5.888-4.779,10.667-10.667,10.667H10.667C4.779,512,0,507.221,0,501.333V330.859C0,324.971,4.779,320.192,10.667,320.192z"/>
<path id="SVGCleanerId_0" d="M202.667,426.667h-64c-5.888,0-10.667-4.779-10.667-10.667c0-5.888,4.779-10.667,10.667-10.667h64
	c5.888,0,10.667,4.779,10.667,10.667C213.333,421.888,208.555,426.667,202.667,426.667z"/>
<path style="fill:#BBDEFB;" d="M32.427,426.667c-5.888,0-10.667-4.779-10.667-10.667c0-5.803,4.651-10.56,10.453-10.667h0.213
	c5.888,0,10.667,4.779,10.667,10.667C43.093,421.888,38.315,426.667,32.427,426.667z"/>
<path d="M245.76,426.667c-5.888,0-10.667-4.779-10.667-10.667c0-5.845,4.715-10.603,10.56-10.667h0.213
	c5.888,0,10.667,4.779,10.667,10.667c0,5.888-4.779,10.667-10.667,10.667H245.76z"/>
<g>
	<path style="fill:#BBDEFB;" d="M160.427,511.808c-5.888,0-10.667-4.779-10.667-10.667c0-5.845,4.715-10.603,10.56-10.667h0.213
		c5.888,0,10.667,4.779,10.667,10.667s-4.779,10.667-10.667,10.667H160.427z"/>
	<path style="fill:#BBDEFB;" d="M224.427,512c-5.888,0-10.667-4.779-10.667-10.667c0-5.845,4.715-10.603,10.56-10.667h0.213
		c5.888,0,10.667,4.779,10.667,10.667S230.421,512,224.533,512H224.427z"/>
	<path style="fill:#BBDEFB;" d="M267.093,512c-5.888,0-10.667-4.779-10.667-10.667c0-5.845,4.715-10.603,10.56-10.667h0.213
		c5.888,0,10.667,4.779,10.667,10.667S273.088,512,267.2,512H267.093z"/>
</g>
<path style="fill:#607D8B;" d="M168.405,324.096c-2.027-2.581-5.12-4.096-8.405-4.096H96c-3.712,0-7.147,1.92-9.088,5.077
	c-8.448,14.571-13.504,30.869-14.784,47.659c-0.32,5.888,4.203,10.901,10.069,11.221c0.192,0,0.384,0.021,0.597,0.021h66.539
	c4.885,0,9.152-3.328,10.347-8.085l10.667-42.667C171.136,330.048,170.411,326.677,168.405,324.096z"/>
<path style="fill:#546E7A;" d="M157.739,366.763c-2.027-2.581-5.12-4.096-8.405-4.096h-66.56c-5.653,0-10.325,4.395-10.667,10.027
	c-1.621,18.155,4.032,36.203,15.723,50.197c2.027,2.411,5.013,3.776,8.171,3.776h42.667c4.885,0,9.152-3.328,10.347-8.085
	l10.667-42.667C160.469,372.736,159.765,369.344,157.739,366.763z"/>
<path style="fill:#BBDEFB;" d="M416.427,426.667c-5.888,0-10.667-4.779-10.667-10.667c0-5.845,4.715-10.603,10.56-10.667h0.213
	c5.888,0,10.667,4.779,10.667,10.667c0,5.888-4.779,10.667-10.667,10.667H416.427z"/>
<path style="fill:#455A64;" d="M349.291,265.771c-4.117-6.229-11.157-9.92-18.624-9.771c-29.867,0-32-12.075-32-32
	c0-3.605-1.835-6.976-4.864-8.939c-3.029-1.963-6.848-2.261-10.155-0.811C118.613,287.595,127.573,411.733,128,416.939
	c0.491,5.525,5.12,9.749,10.667,9.728h170.667c4.331,0,8.213-2.624,9.856-6.613C331.093,391.083,368.427,294.4,349.291,265.771z"/>
<path style="fill:#FAFAFA;" d="M245.333,298.667c-1.408,0.043-2.795-0.235-4.053-0.853c-1.323-0.448-2.517-1.259-3.413-2.347
	c-4.117-3.947-4.267-10.475-0.341-14.592c0.107-0.107,0.213-0.235,0.341-0.341c3.008-3.051,7.573-3.968,11.52-2.325
	c1.344,0.427,2.517,1.237,3.413,2.325c2.069,1.92,3.221,4.629,3.2,7.467c0.021,1.387-0.277,2.773-0.853,4.032
	c-0.448,1.344-1.259,2.517-2.347,3.413c-0.896,1.088-2.091,1.899-3.413,2.347C248.128,298.411,246.741,298.709,245.333,298.667z"/>
<path style="fill:#CFD8DC;" d="M288,384h-0.789c-9.728-0.747-95.211-8.277-95.211-53.333c0-5.888,4.779-10.667,10.667-10.667
	s10.667,4.779,10.667,10.667c0,18.048,45.013,29.867,75.456,32c5.888,0.213,10.496,5.163,10.283,11.051
	C298.859,379.605,293.909,384.213,288,384L288,384z"/>
<g>
	<path style="fill:#BBDEFB;" d="M309.333,469.333H160c-5.888,0-10.667-4.779-10.667-10.667c0-5.888,4.779-10.667,10.667-10.667
		h149.333c5.888,0,10.667,4.779,10.667,10.667C320,464.555,315.221,469.333,309.333,469.333z"/>
	<path style="fill:#BBDEFB;" d="M352.427,469.333c-5.888,0-10.667-4.779-10.667-10.667c0-5.845,4.715-10.603,10.56-10.667h0.213
		c5.888,0,10.667,4.779,10.667,10.667c0,5.888-4.779,10.667-10.667,10.667H352.427z"/>
	<path style="fill:#BBDEFB;" d="M117.76,469.333c-5.888,0-10.667-4.779-10.667-10.667c0-5.803,4.651-10.56,10.453-10.667h0.213
		c5.888,0,10.667,4.779,10.667,10.667C128.427,464.555,123.648,469.333,117.76,469.333z"/>
</g>
<path d="M53.333,341.525H10.667C4.779,341.525,0,336.747,0,330.859s4.779-10.667,10.667-10.667h42.667
	c5.888,0,10.667,4.779,10.667,10.667S59.221,341.525,53.333,341.525z"/>
<path d="M501.333,341.333h-128c-5.888,0-10.667-4.779-10.667-10.667S367.445,320,373.333,320h128
	c5.888,0,10.667,4.779,10.667,10.667S507.221,341.333,501.333,341.333z"/>
<g>
	<path id="SVGCleanerId_0_1_" d="M202.667,426.667h-64c-5.888,0-10.667-4.779-10.667-10.667c0-5.888,4.779-10.667,10.667-10.667h64
		c5.888,0,10.667,4.779,10.667,10.667C213.333,421.888,208.555,426.667,202.667,426.667z"/>
</g>
<path d="M32.427,426.667c-5.888,0-10.773-4.779-10.773-10.667c0-5.888,4.672-10.667,10.56-10.667h0.213
	c5.888,0,10.667,4.779,10.667,10.667C43.093,421.888,38.315,426.667,32.427,426.667z"/>
<path d="M245.76,426.667c-5.888,0-10.773-4.779-10.773-10.667c0-5.888,4.672-10.667,10.56-10.667h0.213
	c5.888,0,10.667,4.779,10.667,10.667C256.427,421.888,251.648,426.667,245.76,426.667z"/>
<path d="M160.427,511.808c-5.888,0-10.773-4.779-10.773-10.667s4.672-10.667,10.56-10.667h0.213c5.888,0,10.667,4.779,10.667,10.667
	S166.315,511.808,160.427,511.808z"/>
<path d="M224.427,512c-5.888,0-10.773-4.779-10.773-10.667s4.672-10.667,10.56-10.667h0.213c5.888,0,10.667,4.779,10.667,10.667
	S230.315,512,224.427,512z"/>
<path d="M267.093,512c-5.888,0-10.773-4.779-10.773-10.667s4.672-10.667,10.56-10.667h0.213c5.888,0,10.667,4.779,10.667,10.667
	S272.981,512,267.093,512z"/>
<path d="M416.427,426.667c-5.867,0-10.773-4.779-10.773-10.667c0-5.888,4.651-10.667,10.56-10.667h0.213
	c5.888,0,10.667,4.779,10.667,10.667C427.093,421.888,422.315,426.667,416.427,426.667z"/>
<path d="M309.333,426.667c-1.344,0-2.731-0.256-4.032-0.789c-5.461-2.24-8.064-8.469-5.824-13.909
	c25.792-62.805,40.981-126.955,31.872-134.592c-39.552-0.043-50.133-20.075-52.949-37.077
	c-136.832,67.755-129.173,173.653-129.088,174.763c0.512,5.867-3.819,11.051-9.685,11.563c-5.952,0.512-11.051-3.84-11.563-9.685
	c-0.448-5.248-9.429-129.323,155.627-202.688c3.285-1.472,7.125-1.152,10.155,0.811c2.987,1.963,4.821,5.333,4.821,8.939
	c0,19.904,2.155,32,32,32c7.765,0,14.4,3.477,18.603,9.771c19.157,28.565-18.176,125.312-30.059,154.283
	C317.504,424.171,313.515,426.667,309.333,426.667z"/>
<path d="M245.333,298.667c-2.773,0-5.547-1.067-7.467-3.2c-2.133-1.92-3.2-4.48-3.2-7.467c0-1.301,0.213-2.773,0.853-4.053
	c0.427-1.28,1.28-2.56,2.347-3.413c3.84-4.032,11.093-4.032,14.933,0c1.067,0.853,1.92,2.155,2.347,3.413
	c0.64,1.28,0.853,2.752,0.853,4.053c0,2.773-1.067,5.547-3.2,7.467C250.88,297.6,248.107,298.667,245.333,298.667z"/>
<path d="M288.021,384c-0.277,0-0.533,0-0.789-0.021c-9.749-0.725-95.232-8.256-95.232-53.312c0-5.888,4.779-10.667,10.667-10.667
	s10.667,4.779,10.667,10.667c0,18.048,45.013,29.781,75.456,32.021c5.845,0.448,10.261,5.568,9.856,11.435
	C298.219,379.733,293.547,384,288.021,384z"/>
<path d="M96,426.667c-3.072,0-6.123-1.323-8.213-3.861c-34.731-41.856-2.261-95.509-0.875-97.749C88.875,321.92,92.309,320,96,320
	h64c5.888,0,10.667,4.779,10.667,10.667s-4.779,10.667-10.667,10.667h-57.6c-5.909,12.224-17.984,43.989,1.792,67.861
	c3.755,4.544,3.136,11.264-1.387,15.019C100.821,425.856,98.411,426.667,96,426.667z"/>
<path d="M138.667,384H85.333c-5.888,0-10.667-4.779-10.667-10.667s4.779-10.667,10.667-10.667h53.333
	c5.888,0,10.667,4.779,10.667,10.667S144.555,384,138.667,384z"/>
<path d="M309.333,256c-2.731,0-5.461-1.045-7.552-3.115c-4.16-4.16-4.16-10.923,0-15.083
	c24.149-24.171,52.245-80.213,39.552-109.632c-6.571-15.147-24.747-22.528-52.992-21.504c-30.379,0.491-61.397-12.224-85.888-35.989
	c-19.605-19.008-31.787-42.005-31.787-60.011C170.667,4.779,175.445,0,181.333,0S192,4.779,192,10.667
	c0,10.027,7.829,27.755,25.301,44.693c20.373,19.776,45.696,30.677,70.4,29.973c47.36-1.301,66.112,17.899,73.237,34.368
	c18.773,43.435-20.075,109.205-44.032,133.163C314.795,254.955,312.064,256,309.333,256z"/>
<path d="M373.333,426.667H288c-5.888,0-10.667-4.779-10.667-10.667c0-5.888,4.779-10.667,10.667-10.667h85.333
	c5.888,0,10.667,4.779,10.667,10.667C384,421.888,379.221,426.667,373.333,426.667z"/>
<path d="M309.333,469.333H160c-5.888,0-10.667-4.779-10.667-10.667c0-5.888,4.779-10.667,10.667-10.667h149.333
	c5.888,0,10.667,4.779,10.667,10.667C320,464.555,315.221,469.333,309.333,469.333z"/>
<path d="M352.427,469.333c-5.867,0-10.773-4.779-10.773-10.667c0-5.888,4.651-10.667,10.56-10.667h0.213
	c5.888,0,10.667,4.779,10.667,10.667C363.093,464.555,358.315,469.333,352.427,469.333z"/>
<path d="M117.76,469.333c-5.888,0-10.773-4.779-10.773-10.667c0-5.888,4.672-10.667,10.56-10.667h0.213
	c5.888,0,10.667,4.779,10.667,10.667C128.427,464.555,123.648,469.333,117.76,469.333z"/>
<g>
</g>
<g>
</g>
<g>
</g>
<g>
</g>
<g>
</g>
<g>
</g>
<g>
</g>
<g>
</g>
<g>
</g>
<g>
</g>
<g>
</g>
<g>
</g>
<g>
</g>
<g>
</g>
<g>
</g>
</svg>
