<?xml version="1.0" encoding="iso-8859-1"?>
<!-- Generator: Adobe Illustrator 19.0.0, SVG Export Plug-In . SVG Version: 6.00 Build 0)  -->
<svg version="1.1" id="Capa_1" xmlns="http://www.w3.org/2000/svg" xmlns:xlink="http://www.w3.org/1999/xlink" x="0px" y="0px"
	 viewBox="0 0 512.978 512.978" style="enable-background:new 0 0 512.978 512.978;" xml:space="preserve">
<circle style="fill:#CFD8DC;" cx="267.092" cy="245.333" r="234.667"/>
<path style="fill:#4CAF50;" d="M206.398,344.811c-18.261-18.261-51.989-23.808-87.68-29.675c-38.4-6.4-78.293-12.8-100.075-34.667
	c-4.16-4.181-10.923-4.181-15.083-0.021c-2.005,2.005-3.136,4.715-3.136,7.552c0,80.043,25.237,153.067,67.477,195.307
	c37.696,38.784,99.712,39.659,138.496,1.963c38.784-37.696,39.659-99.712,1.963-138.496
	C207.721,346.112,207.06,345.451,206.398,344.811z"/>
<path style="fill:#455A64;" d="M267.092,0C131.668,0.149,21.908,109.909,21.758,245.333c0,5.888,4.779,10.667,10.667,10.667h96.277
	c0.277,10.155,0.789,20.48,1.856,31.509c0.661,5.824,5.803,10.069,11.648,9.6c5.867-0.555,10.155-5.76,9.6-11.627
	c-1.003-10.325-1.493-19.968-1.771-29.461h106.389v212.075c-1.195-0.235-2.283-0.384-3.584-0.704
	c-5.717-1.344-11.435,2.197-12.8,7.893c-0.021,0.405-0.021,0.789,0,1.195c-0.213,0.619-0.363,1.259-0.469,1.92
	c-0.192,5.995,4.416,11.051,10.389,11.456c5.717,0.427,11.413,0.832,17.259,0.832c135.488,0,245.333-109.845,245.333-245.333
	S402.708,0.021,267.22,0.021L267.092,0z M457.534,362.667h-68.139c10.091-34.688,15.488-70.549,16.064-106.667h85.099
	C488.809,293.781,477.438,330.496,457.534,362.667z M256.425,22.4v84.267h-80.619C195.369,60.16,224.233,28.245,256.425,22.4z
	 M277.758,22.4c32.192,5.845,61.056,37.76,80.619,84.267h-80.619V22.4z M366.292,128c11.093,34.496,17.088,70.443,17.835,106.667
	H277.758V128H366.292z M405.46,234.667c-0.576-36.117-5.973-71.979-16.064-106.667h68.139
	c19.904,32.171,31.253,68.885,33.003,106.667H405.46z M442.665,106.667h-60.523c-9.835-27.52-25.216-52.715-45.205-74.027
	C378.665,46.443,415.422,72.171,442.665,106.667z M197.246,32.64c-19.989,21.312-35.371,46.507-45.205,74.027H91.518
	C118.761,72.171,155.518,46.443,197.246,32.64z M76.649,128h68.139c-10.091,34.688-15.488,70.549-16.064,106.667H43.625
	C45.374,196.885,56.745,160.171,76.649,128z M150.057,234.667c0.747-36.224,6.741-72.171,17.835-106.667h88.533v106.667H150.057z
	 M384.148,256c-0.747,36.224-6.741,72.171-17.835,106.667h-88.555V256H384.148z M277.758,468.267V384h80.619
	C338.814,430.507,309.95,462.421,277.758,468.267z M336.937,458.027c19.989-21.312,35.371-46.507,45.205-74.027h60.523
	C415.422,418.496,378.665,444.224,336.937,458.027z"/>
<path style="fill:#388E3C;" d="M203.092,480c-0.491,0.043-1.003,0.043-1.493,0c-30.379-4.267-98.923-65.152-112.363-77.333
	c-4.373-3.968-4.693-10.709-0.725-15.061c3.968-4.373,10.709-4.693,15.061-0.747c29.227,26.368,82.453,69.333,100.992,71.808
	c5.888,0.405,10.347,5.504,9.941,11.392c-0.405,5.888-5.504,10.347-11.392,9.941H203.092z"/>
<path d="M267.092,490.667c-5.888,0-10.667-4.779-10.667-10.667V10.667C256.425,4.779,261.204,0,267.092,0
	s10.667,4.779,10.667,10.667V480C277.758,485.888,272.98,490.667,267.092,490.667z"/>
<path d="M501.758,256H32.425c-5.888,0-10.667-4.779-10.667-10.667s4.779-10.667,10.667-10.667h469.333
	c5.888,0,10.667,4.779,10.667,10.667S507.646,256,501.758,256z"/>
<path d="M459.092,128h-384c-5.888,0-10.667-4.779-10.667-10.667s4.779-10.667,10.667-10.667h384c5.888,0,10.667,4.779,10.667,10.667
	S464.98,128,459.092,128z"/>
<path d="M459.092,384h-192c-5.888,0-10.667-4.779-10.667-10.667s4.779-10.667,10.667-10.667h192c5.888,0,10.667,4.779,10.667,10.667
	S464.98,384,459.092,384z"/>
<path d="M267.092,490.667c-5.483,0-10.88-0.384-16.299-0.768c-5.867-0.448-11.307-5.611-10.88-11.477
	c0.427-5.867,3.989-10.581,10.368-9.963l2.069,0.149c4.885,0.363,9.771,0.725,14.741,0.725c123.52,0,224-100.48,224-224
	s-100.48-224-224-224s-224,100.48-224,224c0,5.888-4.779,10.667-10.667,10.667s-10.667-4.779-10.667-10.667
	C21.758,110.059,131.817,0,267.092,0s245.333,110.059,245.333,245.333S402.366,490.667,267.092,490.667z"/>
<path d="M135.7,510.613c-24.341,0-48.683-9.045-67.627-27.157C25.641,440.96,0.425,367.957,0.425,288
	c0-4.309,2.603-8.213,6.592-9.856c4.011-1.621,8.576-0.725,11.627,2.304c21.803,21.803,61.589,28.352,100.075,34.667
	c35.669,5.867,69.355,11.413,87.637,29.675c0.064,0.064,0.128,0.107,0.192,0.171c18.069,18.944,27.669,43.776,27.072,69.909
	c-0.597,26.176-11.349,50.517-30.272,68.565C184.382,501.547,160.02,510.613,135.7,510.613z M22.42,309.867
	c4.011,65.6,26.027,123.733,60.565,158.315c29.44,28.16,75.947,28.16,105.621-0.171c14.805-14.123,23.211-33.195,23.68-53.632
	c0.469-20.416-7.019-39.808-21.099-54.613c-13.461-13.333-43.819-18.325-75.947-23.595C83.689,331.008,48.83,325.248,22.42,309.867z
	"/>
<path d="M267.092,490.667c-6.485-0.043-12.949-0.875-19.307-2.432c-5.717-1.408-9.216-7.189-7.787-12.907
	c1.408-5.739,7.189-9.216,12.907-7.787c4.736,1.173,9.515,1.771,14.272,1.813c63.509-0.021,117.248-102.613,117.248-224.021
	s-53.739-224-117.333-224s-117.333,102.592-117.333,224c0,12.992,0.683,26.091,2.091,40.064c0.576,5.845-3.691,11.093-9.557,11.669
	c-5.845,0.704-11.093-3.691-11.669-9.536c-1.472-14.677-2.197-28.48-2.197-42.197C128.425,107.755,189.332,0,267.092,0
	s138.667,107.755,138.667,245.333C405.758,382.891,344.852,490.667,267.092,490.667z"/>
<path d="M203.092,480c-0.491,0-0.981-0.043-1.472-0.107c-30.4-4.203-98.923-65.152-112.363-77.333
	c-4.373-3.968-4.693-10.688-0.747-15.061c3.947-4.352,10.688-4.693,15.083-0.725c29.227,26.453,82.453,69.44,100.971,72
	c5.824,0.811,9.899,6.187,9.088,12.011C212.905,476.139,208.34,480,203.092,480z"/>
<g>
</g>
<g>
</g>
<g>
</g>
<g>
</g>
<g>
</g>
<g>
</g>
<g>
</g>
<g>
</g>
<g>
</g>
<g>
</g>
<g>
</g>
<g>
</g>
<g>
</g>
<g>
</g>
<g>
</g>
</svg>
