<?xml version="1.0" encoding="iso-8859-1"?>
<!-- Generator: Adobe Illustrator 19.0.0, SVG Export Plug-In . SVG Version: 6.00 Build 0)  -->
<svg version="1.1" id="Capa_1" xmlns="http://www.w3.org/2000/svg" xmlns:xlink="http://www.w3.org/1999/xlink" x="0px" y="0px"
	 viewBox="0 0 490.795 490.795" style="enable-background:new 0 0 490.795 490.795;" xml:space="preserve">
<g>
	<path style="fill:#CFD8DC;" d="M288.088,277.462c-5.888,0-10.667,4.779-10.667,10.667v64c0,5.888,4.779,10.667,10.667,10.667
		s10.667-4.779,10.667-10.667v-64C298.755,282.24,293.976,277.462,288.088,277.462z"/>
	<path style="fill:#CFD8DC;" d="M327,214.144l-170.667,64c-5.504,2.069-8.299,8.235-6.229,13.739
		c1.557,4.16,5.547,6.912,9.984,6.912c15.893,0,32,18.325,32,53.333c0,5.888,4.779,10.667,10.667,10.667s10.667-4.779,10.667-10.667
		c1.877-23.723-6.933-47.04-24-63.616l145.067-54.4c5.525-2.069,8.32-8.235,6.229-13.739c-2.069-5.525-8.235-8.32-13.739-6.251
		L327,214.144z"/>
	<path style="fill:#CFD8DC;" d="M327,150.144l-170.667,64c-5.525,2.069-8.32,8.235-6.251,13.739c2.069,5.525,8.235,8.32,13.76,6.251
		l170.667-64c5.525-2.069,8.32-8.235,6.229-13.739C338.67,150.87,332.526,148.075,327,150.144L327,150.144z"/>
	<path style="fill:#CFD8DC;" d="M327,86.144l-170.667,64c-5.525,2.069-8.32,8.235-6.229,13.76c2.069,5.525,8.235,8.32,13.739,6.229
		l170.667-64c5.525-2.069,8.32-8.235,6.229-13.739C338.67,86.87,332.526,84.075,327,86.144z"/>
	<path style="fill:#CFD8DC;" d="M160.088,106.795c1.28,0,2.56-0.235,3.755-0.683l170.667-64c5.525-2.069,8.32-8.235,6.229-13.76
		c-2.091-5.525-8.235-8.32-13.739-6.229l-170.667,64c-5.525,2.048-8.341,8.171-6.315,13.696
		C151.576,104.043,155.608,106.816,160.088,106.795z"/>
	<path style="fill:#CFD8DC;" d="M160.088,42.795c1.152,0,2.283-0.192,3.371-0.555l64-21.333c5.653-1.643,8.896-7.573,7.253-13.227
		s-7.573-8.896-13.227-7.253c-0.256,0.085-0.512,0.171-0.768,0.256l-64,21.333c-5.589,1.877-8.597,7.915-6.72,13.504
		C151.448,39.851,155.523,42.795,160.088,42.795z"/>
</g>
<path style="fill:#607D8B;" d="M170.008,405.462l1.003,11.563c1.472,17.643,9.152,34.197,21.653,46.741l27.008,27.029h51.499
	l27.029-27.029c12.501-12.544,20.181-29.099,21.653-46.741l1.003-11.563H170.008z"/>
<path style="fill:#455A64;" d="M170.755,341.462v69.547c-0.043,2.133,0.064,4.267,0.299,6.4l1.152,9.365h146.453l1.152-9.365
	c0.235-2.133,0.341-4.267,0.299-6.4v-69.547H170.755z"/>
<path d="M271.171,490.795h-51.499l-27.051-27.051c-14.101-14.08-21.867-32.853-21.867-52.821v-69.461h149.333v69.483
	c0,19.947-7.765,38.677-21.867,52.8L271.171,490.795z M228.504,469.462h33.835l20.8-20.821
	c10.091-10.091,15.616-23.467,15.616-37.717v-48.128H192.088v48.149c0,14.059,5.696,27.819,15.616,37.739L228.504,469.462z"/>
<path d="M288.088,362.795c-5.888,0-10.667-4.779-10.667-10.667v-64c0-5.888,4.779-10.667,10.667-10.667s10.667,4.779,10.667,10.667
	v64C298.755,358.016,293.976,362.795,288.088,362.795z"/>
<path d="M202.755,362.795c-5.888,0-10.667-4.779-10.667-10.667c0-35.029-16.085-53.333-32-53.333c-5.163,0-9.579-3.691-10.496-8.768
	c-0.917-5.056,1.92-10.069,6.741-11.883l170.667-64c5.483-2.048,11.669,0.704,13.739,6.229c2.091,5.525-0.704,11.669-6.229,13.739
	l-145.067,54.4c13.76,11.584,23.979,32.427,23.979,63.616C213.422,358.016,208.643,362.795,202.755,362.795z"/>
<path d="M160.088,234.795c-4.309,0-8.384-2.645-9.984-6.912c-2.069-5.525,0.725-11.669,6.229-13.739l170.667-64
	c5.483-2.048,11.669,0.725,13.739,6.229c2.091,5.525-0.704,11.669-6.229,13.739l-170.667,64
	C162.606,234.581,161.347,234.795,160.088,234.795z"/>
<path d="M160.088,170.795c-4.309,0-8.384-2.645-9.984-6.912c-2.069-5.525,0.725-11.669,6.229-13.739l170.667-64
	c5.483-2.027,11.669,0.725,13.739,6.229c2.091,5.525-0.704,11.669-6.229,13.739l-170.667,64
	C162.606,170.581,161.347,170.795,160.088,170.795z"/>
<path d="M160.088,106.795c-4.309,0-8.384-2.645-9.984-6.912c-2.069-5.525,0.725-11.669,6.229-13.739l170.667-64
	c5.483-2.048,11.669,0.704,13.739,6.229c2.091,5.525-0.704,11.669-6.229,13.739l-170.667,64
	C162.606,106.581,161.347,106.795,160.088,106.795z"/>
<path d="M160.088,42.795c-4.459,0-8.619-2.816-10.112-7.296c-1.877-5.589,1.152-11.627,6.741-13.483l64-21.333
	c5.653-1.877,11.627,1.152,13.483,6.741c1.856,5.589-1.152,11.627-6.741,13.483l-64,21.333
	C162.328,42.624,161.198,42.795,160.088,42.795z"/>
<path d="M309.422,426.795h-128c-5.888,0-10.667-4.779-10.667-10.667c0-5.888,4.779-10.667,10.667-10.667h128
	c5.888,0,10.667,4.779,10.667,10.667C320.088,422.016,315.31,426.795,309.422,426.795z"/>
<g>
</g>
<g>
</g>
<g>
</g>
<g>
</g>
<g>
</g>
<g>
</g>
<g>
</g>
<g>
</g>
<g>
</g>
<g>
</g>
<g>
</g>
<g>
</g>
<g>
</g>
<g>
</g>
<g>
</g>
</svg>
