<?xml version="1.0" encoding="iso-8859-1"?>
<!-- Generator: Adobe Illustrator 19.0.0, SVG Export Plug-In . SVG Version: 6.00 Build 0)  -->
<svg version="1.1" id="Capa_1" xmlns="http://www.w3.org/2000/svg" xmlns:xlink="http://www.w3.org/1999/xlink" x="0px" y="0px"
	 viewBox="0 0 512 512" style="enable-background:new 0 0 512 512;" xml:space="preserve">
<path style="fill:#4CAF50;" d="M319.683,6.592C318.041,2.603,314.137,0,309.827,0c-80.043,0-153.067,25.237-195.307,67.477
	c-38.784,37.696-39.659,99.712-1.963,138.496s99.712,39.659,138.496,1.963c0.661-0.64,1.323-1.301,1.963-1.963
	c18.261-18.261,23.808-51.989,29.696-87.68c6.4-38.4,12.8-78.293,34.667-100.096C320.409,15.147,321.326,10.581,319.683,6.592z"/>
<path style="fill:#FFD54F;" d="M351.15,24.341l-10.837-4.864c-1.408,5.184-4.096,9.941-7.829,13.803
	c-17.067,17.067-22.955,53.333-28.736,88.469c-6.4,39.232-12.544,76.224-35.648,99.328c-30.485,31.189-75.904,42.645-117.547,29.675
	v13.867c0,2.795,1.088,5.483,3.051,7.467l1.557,1.685c1.088,1.216,2.133,2.432,3.413,3.563c4.587,4.011,7.765,9.387,9.088,15.339
	C171.971,315.264,185.091,384,224.494,384h85.333c39.339,0,52.416-68.267,56.725-90.773c1.408-6.293,4.779-12.011,9.6-16.299
	c64.512-59.797,68.331-160.576,8.533-225.088C374.809,41.195,363.523,31.936,351.15,24.341L351.15,24.341z"/>
<path style="fill:#388E3C;" d="M96.494,277.333c-5.888,0-10.667-4.779-10.667-10.667c0-96.939,100.267-181.333,117.333-181.333
	c5.888,0,10.667,4.779,10.667,10.667c0,5.12-3.627,9.493-8.661,10.475c-13.355,6.123-98.005,77.12-98.005,160.192
	C107.161,272.555,102.382,277.333,96.494,277.333z"/>
<g>
	<path style="fill:#FFA000;" d="M309.827,426.667h-85.333c-5.888,0-10.667-4.779-10.667-10.667c0-5.888,4.779-10.667,10.667-10.667
		h85.333c5.888,0,10.667,4.779,10.667,10.667C320.494,421.888,315.715,426.667,309.827,426.667z"/>
	<path style="fill:#FFA000;" d="M309.827,469.333h-85.333c-5.888,0-10.667-4.779-10.667-10.667c0-5.888,4.779-10.667,10.667-10.667
		h85.333c5.888,0,10.667,4.779,10.667,10.667C320.494,464.555,315.715,469.333,309.827,469.333z"/>
	<path style="fill:#FFA000;" d="M288.494,512h-42.667c-5.888,0-10.667-4.779-10.667-10.667s4.779-10.667,10.667-10.667h42.667
		c5.888,0,10.667,4.779,10.667,10.667S294.382,512,288.494,512z"/>
</g>
<path d="M185.283,233.216c-0.768,0-1.557,0-2.325-0.021c-26.155-0.597-50.517-11.349-68.565-30.272
	c-36.224-37.909-36.224-97.323,0-135.253C156.867,25.216,229.87,0,309.827,0c4.309,0,8.213,2.603,9.856,6.592
	c1.643,3.989,0.725,8.576-2.304,11.627c-21.781,21.803-28.352,61.589-34.667,100.075c-5.867,35.669-11.413,69.376-29.675,87.659
	c-0.064,0.043-0.128,0.107-0.192,0.171C234.499,223.637,210.563,233.216,185.283,233.216z M287.961,21.995
	c-65.621,4.032-123.733,26.027-158.315,60.565c-28.16,29.483-28.16,75.968,0.171,105.621c14.144,14.805,33.195,23.211,53.632,23.68
	c20.352,0.192,39.787-7.019,54.592-21.099c13.333-13.483,18.325-43.819,23.616-75.968C266.819,83.264,272.558,48.384,287.961,21.995
	z M245.486,198.4h0.213H245.486z"/>
<path d="M96.494,277.333c-5.888,0-10.667-4.779-10.667-10.667c0-96.939,100.245-181.333,117.333-181.333
	c5.888,0,10.667,4.779,10.667,10.667c0,5.205-3.733,9.536-8.661,10.475c-13.355,6.123-98.005,77.12-98.005,160.192
	C107.161,272.555,102.382,277.333,96.494,277.333z"/>
<path d="M309.827,426.667h-85.333c-5.888,0-10.667-4.779-10.667-10.667c0-5.888,4.779-10.667,10.667-10.667h85.333
	c5.888,0,10.667,4.779,10.667,10.667C320.494,421.888,315.715,426.667,309.827,426.667z"/>
<path d="M309.827,469.333h-85.333c-5.888,0-10.667-4.779-10.667-10.667c0-5.888,4.779-10.667,10.667-10.667h85.333
	c5.888,0,10.667,4.779,10.667,10.667C320.494,464.555,315.715,469.333,309.827,469.333z"/>
<path d="M288.494,512h-42.667c-5.888,0-10.667-4.779-10.667-10.667s4.779-10.667,10.667-10.667h42.667
	c5.888,0,10.667,4.779,10.667,10.667S294.382,512,288.494,512z"/>
<path d="M309.827,383.936h-85.333c-39.424,0-52.523-68.757-56.832-91.328c-1.216-5.739-4.395-11.179-8.917-15.189
	c-1.408-1.323-2.496-2.517-3.584-3.733L153.603,272c-4.117-4.203-4.053-10.965,0.149-15.083c4.181-4.139,10.944-4.075,15.083,0.149
	l2.219,2.411c0.64,0.725,1.28,1.451,2.005,2.133c7.744,6.848,13.312,16.427,15.509,26.795
	c12.779,67.008,29.355,74.219,35.925,74.219h85.333c6.528,0,23.04-7.168,35.755-73.429c2.325-11.051,7.915-20.672,16.149-28.053
	c26.901-24.96,42.517-59.072,43.904-95.915c1.344-36.864-11.712-72.021-36.8-99.051c-8.213-8.853-17.536-16.576-27.733-22.976
	c-4.992-3.115-6.507-9.728-3.371-14.699c3.157-5.013,9.813-6.464,14.699-3.371c11.797,7.403,22.571,16.32,32.021,26.539
	c28.971,31.189,44.053,71.808,42.475,114.347s-19.627,81.92-50.837,110.891c-4.971,4.459-8.256,10.133-9.6,16.512
	C362.222,315.627,349.145,383.936,309.827,383.936z"/>
<g>
</g>
<g>
</g>
<g>
</g>
<g>
</g>
<g>
</g>
<g>
</g>
<g>
</g>
<g>
</g>
<g>
</g>
<g>
</g>
<g>
</g>
<g>
</g>
<g>
</g>
<g>
</g>
<g>
</g>
</svg>
