<?xml version="1.0" encoding="iso-8859-1"?>
<!-- Generator: Adobe Illustrator 19.0.0, SVG Export Plug-In . SVG Version: 6.00 Build 0)  -->
<svg version="1.1" id="Capa_1" xmlns="http://www.w3.org/2000/svg" xmlns:xlink="http://www.w3.org/1999/xlink" x="0px" y="0px"
	 viewBox="0 0 512.014 512.014" style="enable-background:new 0 0 512.014 512.014;" xml:space="preserve">
<circle style="fill:#CFD8DC;" cx="309.333" cy="203.039" r="192"/>
<path style="fill:#607D8B;" d="M479.339,312.991c43.563-66.837,43.563-153.067,0-219.904c-0.576-1.792-1.6-3.392-3.008-4.629
	C413.227-3.766,287.296-27.382,195.072,35.722c-20.693,14.165-38.571,32.043-52.736,52.736c-1.408,1.237-2.432,2.837-3.008,4.629
	c-21.312,32.704-32.661,70.912-32.661,109.952c-0.021,13.995,1.408,27.968,4.267,41.664c1.216,5.76,6.869,9.472,12.629,8.256
	c5.76-1.216,9.472-6.869,8.256-12.629c-1.749-8.789-2.859-17.685-3.328-26.624h63.787c0.683,25.813,4.373,51.456,11.051,76.416
	c1.557,5.675,7.424,9.045,13.099,7.488c5.675-1.557,9.045-7.424,7.488-13.099c-6.165-23.147-9.6-46.933-10.24-70.891h84.992v96
	c0,5.888,4.779,10.667,10.667,10.667h72.533c-3.456,7.723-7.445,15.189-11.968,22.336c-3.328,4.864-2.069,11.499,2.816,14.827
	c4.864,3.328,11.499,2.069,14.827-2.816c0.107-0.149,0.192-0.299,0.299-0.448c6.827-10.731,12.629-22.08,17.344-33.899h42.283
	c-3.84,4.501-7.893,8.853-12.203,13.013c-4.245,4.117-4.331,10.901-0.213,15.147c4.117,4.245,10.901,4.331,15.147,0.192
	c9.856-9.515,18.752-19.989,26.539-31.275C477.931,316.149,478.848,314.634,479.339,312.991z M426.368,192.373
	c-0.64-28.907-5.099-57.6-13.291-85.333h49.856c16.128,25.685,25.493,55.04,27.243,85.333H426.368z M298.667,22.965v62.741H236.8
	C246.805,56.479,269.589,33.397,298.667,22.965z M320,22.965c29.077,10.432,51.861,33.515,61.867,62.741H320V22.965z
	 M390.165,107.039c9.109,27.563,14.144,56.32,14.933,85.333H320v-85.333L390.165,107.039z M447.339,85.706h-41.856
	c-7.253-18.709-17.515-36.096-30.4-51.477C403.051,45.173,427.861,62.858,447.339,85.706z M243.584,34.229
	c-12.885,15.381-23.147,32.768-30.4,51.477h-41.856C190.805,62.858,215.616,45.173,243.584,34.229z M155.733,107.039h49.856
	c-8.192,27.733-12.651,56.427-13.291,85.333h-63.765C130.261,162.079,139.627,132.725,155.733,107.039z M213.589,192.373
	c0.789-29.013,5.824-57.771,14.933-85.333h70.144v85.333H213.589z M319.957,299.039v-85.333h85.013
	c-0.704,29.013-5.632,57.749-14.635,85.333H319.957z M412.629,299.039c8.341-27.712,12.928-56.405,13.675-85.333h63.787
	c-1.685,30.293-11.072,59.669-27.243,85.333H412.629z"/>
<path style="fill:#FFE082;" d="M510.869,411.189c-14.592-29.504-47.829-44.779-79.723-36.672l-69.013,17.259
	c-3.072-26.688-18.923-42.347-50.475-50.219l-192-42.667c-5.653-1.259-11.264,2.219-12.672,7.829l-32,128
	c-1.408,5.44,1.643,11.029,6.976,12.8l159.595,53.205c13.931,6.293,28.928,9.899,44.203,10.667
	c21.632,0,46.933-9.451,102.656-32.277l117.333-53.333c5.355-2.432,7.723-8.768,5.291-14.123c-0.064-0.128-0.107-0.235-0.171-0.363
	V411.189z"/>
<path style="fill:#455A64;" d="M128,288.885c0.277-3.243-0.917-6.443-3.285-8.683c-18.347-17.301-91.435-22.912-113.429-24.213
	c-2.923-0.149-5.781,0.896-7.936,2.88C1.195,260.895,0,263.711,0,266.655v192c0,5.888,4.779,10.667,10.667,10.667h64
	c4.629,0,8.725-2.965,10.155-7.36C103.808,405.514,118.251,347.637,128,288.885z"/>
<path style="fill:#FFCA28;" d="M307.733,425.034c-4.907,0-9.792-0.469-14.592-1.429l-82.112-16.427
	c-5.781-1.173-9.493-6.805-8.32-12.587c1.173-5.781,6.805-9.493,12.587-8.32l82.091,16.427c7.765,1.536,15.787,1.344,23.467-0.555
	l41.557-10.389c2.837,11.435-4.096,22.997-15.531,25.856l-20.885,5.227C320.021,424.33,313.899,425.055,307.733,425.034z"/>
<path d="M74.667,469.706h-64C4.779,469.706,0,464.927,0,459.039v-192c0-2.944,1.216-5.76,3.349-7.765
	c2.133-2.027,4.992-3.029,7.957-2.88c21.973,1.301,95.061,6.912,113.365,24.213c2.581,2.432,3.776,6.016,3.179,9.515
	c-9.813,58.24-24.32,116.203-43.072,172.267C83.328,466.762,79.253,469.706,74.667,469.706z M21.333,448.373h45.632
	c16.533-50.56,29.525-102.635,38.677-154.987c-13.781-6.443-50.389-12.224-84.309-14.912V448.373z"/>
<path d="M285.781,511.69c-13.909,0-26.283-3.925-44.203-10.688L81.984,447.818c-5.589-1.877-8.597-7.915-6.741-13.504
	c1.856-5.589,7.851-8.64,13.483-6.741l160,53.333c38.443,14.571,41.536,15.68,131.243-21.077l105.749-48.064
	c-11.776-14.293-30.72-20.757-49.387-16.149l-81.728,20.437c-5.696,1.344-11.52-2.048-12.928-7.765
	c-1.408-5.717,2.048-11.499,7.765-12.928l81.728-20.437c32.128-8.021,64.917,7.083,79.723,36.693
	c1.301,2.581,1.472,5.611,0.512,8.341c-0.981,2.731-3.029,4.949-5.653,6.144l-117.333,53.333
	C332.736,502.239,307.392,511.69,285.781,511.69z"/>
<path d="M307.776,425.439c-4.907,0-9.835-0.491-14.656-1.451l-92.544-18.496c-5.781-1.152-9.515-6.784-8.363-12.544
	c1.152-5.781,6.72-9.6,12.544-8.384l92.544,18.496c7.701,1.515,15.808,1.323,23.403-0.555l20.48-5.099
	c-1.323-19.456-10.816-28.8-34.432-34.688l-191.723-42.603c-5.76-1.301-9.365-6.976-8.107-12.736
	c1.28-5.781,7.04-9.323,12.736-8.107l192,42.667c35.371,8.853,51.008,27.456,51.008,60.395v3.349c0,4.885-3.328,9.173-8.085,10.347
	l-28.693,7.168C320,424.693,313.877,425.439,307.776,425.439z M352,405.706h0.213H352z"/>
<path d="M309.333,320.373c-5.888,0-10.667-4.779-10.667-10.667V11.039c0-5.888,4.779-10.667,10.667-10.667S320,5.151,320,11.039
	v298.667C320,315.594,315.221,320.373,309.333,320.373z"/>
<path d="M501.333,213.706h-384c-5.888,0-10.667-4.779-10.667-10.667s4.779-10.667,10.667-10.667h384
	c5.888,0,10.667,4.779,10.667,10.667S507.221,213.706,501.333,213.706z"/>
<path d="M469.333,107.039h-320c-5.888,0-10.667-4.779-10.667-10.667c0-5.888,4.779-10.667,10.667-10.667h320
	c5.888,0,10.667,4.779,10.667,10.667C480,102.261,475.221,107.039,469.333,107.039z"/>
<path d="M469.333,320.373h-160c-5.888,0-10.667-4.779-10.667-10.667s4.779-10.667,10.667-10.667h160
	c5.888,0,10.667,4.779,10.667,10.667S475.221,320.373,469.333,320.373z"/>
<path d="M442.624,351.711c-2.795,0-5.589-1.088-7.659-3.243c-4.096-4.245-3.989-11.008,0.256-15.083
	c71.936-69.44,74.005-184.469,4.587-256.427C370.347,5.023,255.36,2.975,183.381,72.394
	c-45.227,43.648-64.469,106.411-51.52,167.915c1.216,5.76-2.475,11.413-8.235,12.629s-11.413-2.475-12.629-8.235
	c-14.485-68.715,7.04-138.88,57.579-187.648c80.427-77.611,208.981-75.285,286.571,5.099c77.611,80.405,75.307,208.96-5.077,286.571
	C447.957,350.709,445.291,351.711,442.624,351.711z"/>
<path d="M378.837,359.157c-1.835,0-3.691-0.448-5.376-1.451c-5.077-2.965-6.805-9.472-3.84-14.592
	c24.683-42.389,37.035-90.731,35.712-139.776c0-98.581-43.968-181.632-96-181.632s-96,83.051-96,181.333
	c-0.085,27.563,3.477,54.997,10.603,81.579c1.536,5.717-1.856,11.541-7.552,13.077c-5.653,1.429-11.541-1.877-13.056-7.552
	c-7.616-28.395-11.413-57.707-11.328-87.125C192,89.397,243.541,0.373,309.333,0.373s117.333,89.024,117.333,202.667
	c1.408,52.736-11.925,104.96-38.635,150.827C386.069,357.258,382.507,359.157,378.837,359.157z"/>
<g>
</g>
<g>
</g>
<g>
</g>
<g>
</g>
<g>
</g>
<g>
</g>
<g>
</g>
<g>
</g>
<g>
</g>
<g>
</g>
<g>
</g>
<g>
</g>
<g>
</g>
<g>
</g>
<g>
</g>
</svg>
