<?xml version="1.0" encoding="iso-8859-1"?>
<!-- Generator: Adobe Illustrator 19.0.0, SVG Export Plug-In . SVG Version: 6.00 Build 0)  -->
<svg version="1.1" id="Capa_1" xmlns="http://www.w3.org/2000/svg" xmlns:xlink="http://www.w3.org/1999/xlink" x="0px" y="0px"
	 viewBox="0 0 512.015 512.015" style="enable-background:new 0 0 512.015 512.015;" xml:space="preserve">
<path style="fill:#4CAF50;" d="M506.901,449.565c-27.819-17.856-57.536-32.619-88.576-43.989
	c-42.773-9.707-86.08-16.896-129.685-21.568c-44.949-2.368-89.899,5.013-131.712,21.696c-5.333,2.496-7.637,8.853-5.12,14.187
	c0.704,1.472,1.707,2.773,2.987,3.797c15.019,11.712,28.224,25.621,39.168,41.216c8.789,11.627,15.659,24.597,20.352,38.4
	c0.939,5.056,5.376,8.725,10.539,8.704h276.48c5.888,0,10.667-4.779,10.667-10.667v-42.667
	C512,454.962,510.08,451.506,506.901,449.565z"/>
<circle style="fill:#FFB300;" cx="181.333" cy="181.341" r="96"/>
<g>
	<path style="fill:#FFD54F;" d="M181.333,64.007c-5.888,0-10.667-4.779-10.667-10.667V10.674c0-5.888,4.779-10.667,10.667-10.667
		S192,4.786,192,10.674v42.667C192,59.229,187.221,64.007,181.333,64.007z"/>
	<path style="fill:#FFD54F;" d="M181.333,362.674c-5.888,0-10.667-4.779-10.667-10.667v-42.667c0-5.888,4.779-10.667,10.667-10.667
		S192,303.453,192,309.341v42.667C192,357.895,187.221,362.674,181.333,362.674z"/>
	<path style="fill:#FFD54F;" d="M117.333,81.074c-3.819,0-7.36-2.027-9.259-5.333L86.741,38.813
		c-2.901-5.12-1.131-11.627,4.011-14.549c5.077-2.88,11.52-1.152,14.464,3.883l21.333,36.928c2.944,5.099,1.195,11.627-3.904,14.571
		C121.024,80.583,119.189,81.074,117.333,81.074z"/>
	<path style="fill:#FFD54F;" d="M266.667,339.805c-3.819,0-7.36-2.027-9.259-5.333l-21.333-36.928
		c-2.901-5.12-1.131-11.627,4.011-14.549c5.077-2.88,11.52-1.152,14.464,3.883l21.333,36.928c2.944,5.099,1.195,11.627-3.904,14.571
		C270.357,339.314,268.523,339.805,266.667,339.805z"/>
	<path style="fill:#FFD54F;" d="M70.4,128.007c-1.877,0-3.712-0.491-5.333-1.429l-36.949-21.333
		c-5.227-2.731-7.232-9.173-4.501-14.4c2.731-5.227,9.173-7.232,14.4-4.501c0.256,0.128,0.512,0.277,0.768,0.448l36.949,21.333
		c5.099,2.965,6.805,9.493,3.84,14.592C77.675,125.981,74.176,127.986,70.4,128.007z"/>
	<path style="fill:#FFD54F;" d="M329.131,277.341c-1.877,0-3.712-0.491-5.333-1.429l-36.949-21.333
		c-5.227-2.731-7.232-9.173-4.501-14.4c2.731-5.227,9.173-7.232,14.4-4.501c0.256,0.149,0.533,0.299,0.768,0.448l36.949,21.333
		c5.099,2.944,6.848,9.472,3.904,14.571C336.469,275.335,332.949,277.362,329.131,277.341L329.131,277.341z"/>
	<path style="fill:#FFD54F;" d="M53.333,192.007H10.667C4.779,192.007,0,187.229,0,181.341s4.779-10.667,10.667-10.667h42.667
		c5.888,0,10.667,4.779,10.667,10.667S59.221,192.007,53.333,192.007z"/>
	<path style="fill:#FFD54F;" d="M352,192.007h-42.667c-5.888,0-10.667-4.779-10.667-10.667s4.779-10.667,10.667-10.667H352
		c5.888,0,10.667,4.779,10.667,10.667S357.888,192.007,352,192.007z"/>
	<path style="fill:#FFD54F;" d="M33.536,277.341c-5.888,0-10.667-4.779-10.667-10.667c0-3.819,2.027-7.339,5.333-9.237
		l36.949-21.333c4.971-3.157,11.563-1.685,14.72,3.285c3.157,4.971,1.685,11.563-3.285,14.72c-0.256,0.171-0.512,0.32-0.768,0.448
		L38.869,275.89C37.248,276.85,35.413,277.341,33.536,277.341z"/>
	<path style="fill:#FFD54F;" d="M292.267,128.007c-5.888,0-10.667-4.779-10.667-10.667c0-3.819,2.027-7.339,5.333-9.237
		l36.949-21.333c4.971-3.157,11.563-1.685,14.72,3.285c3.157,4.971,1.685,11.563-3.285,14.72c-0.256,0.171-0.512,0.32-0.768,0.448
		L297.6,126.557C295.979,127.517,294.144,128.007,292.267,128.007z"/>
	<path style="fill:#FFD54F;" d="M96,339.805c-1.877,0-3.712-0.491-5.333-1.429c-5.099-2.944-6.848-9.472-3.904-14.571l21.333-36.928
		c2.987-5.077,9.515-6.784,14.592-3.797c5.035,2.944,6.763,9.408,3.883,14.464l-21.333,36.928
		C103.339,337.778,99.819,339.805,96,339.805z"/>
	<path style="fill:#FFD54F;" d="M245.333,81.074c-1.877,0-3.712-0.491-5.333-1.429c-5.099-2.944-6.848-9.472-3.904-14.571
		l21.333-36.928c2.987-5.077,9.515-6.784,14.592-3.797c5.035,2.944,6.763,9.408,3.883,14.464l-21.333,36.928
		C252.672,79.047,249.152,81.074,245.333,81.074z"/>
</g>
<path style="fill:#388E3C;" d="M211.477,452.658c-12.075-17.259-26.667-32.619-43.264-45.589
	c-45.12-36.565-99.819-59.371-157.547-65.728C4.779,341.341,0,346.119,0,352.007v149.333c0,5.888,4.779,10.667,10.667,10.667
	h214.187c5.888,0,10.667-4.757,10.688-10.645c0-0.661-0.064-1.323-0.192-1.984C230.08,482.567,221.995,466.781,211.477,452.658z"/>
<path style="fill:#009688;" d="M480,277.341c-17.664,0-32,14.336-32,32v10.667h-21.333v-53.333c0-17.664-14.336-32-32-32
	c-17.664,0-32,14.336-32,32v117.333h-21.333v-10.667c0-17.664-14.336-32-32-32s-32,14.336-32,32v21.333
	c0,29.461,23.872,53.333,53.333,53.333h32v53.333c0,5.888,4.779,10.667,10.667,10.667H416c5.888,0,10.667-4.779,10.667-10.667
	V384.007H480c17.664,0,32-14.336,32-32v-42.667C512,291.677,497.664,277.341,480,277.341z"/>
<path d="M416,512.007h-42.667c-5.888,0-10.667-4.779-10.667-10.667v-53.333h-32c-29.419,0-53.333-23.915-53.333-53.333v-21.333
	c0-17.643,14.357-32,32-32s32,14.357,32,32v10.667h21.333V266.674c0-17.643,14.357-32,32-32c17.643,0,32,14.357,32,32v53.333H448
	v-10.667c0-17.643,14.357-32,32-32c17.643,0,32,14.357,32,32v42.667c0,17.643-14.357,32-32,32h-53.333v117.333
	C426.667,507.229,421.888,512.007,416,512.007z M384,490.674h21.333V373.341c0-5.888,4.779-10.667,10.667-10.667h64
	c5.867,0,10.667-4.8,10.667-10.667v-42.667c0-5.867-4.8-10.667-10.667-10.667c-5.867,0-10.667,4.8-10.667,10.667v21.333
	c0,5.888-4.779,10.667-10.667,10.667H416c-5.888,0-10.667-4.779-10.667-10.667v-64c0-5.888-4.8-10.667-10.667-10.667
	c-5.867,0-10.667,4.779-10.667,10.667v128c0,5.888-4.779,10.667-10.667,10.667h-42.667c-5.888,0-10.667-4.779-10.667-10.667v-21.333
	c0-5.867-4.8-10.667-10.667-10.667s-10.667,4.8-10.667,10.667v21.333c0,17.643,14.357,32,32,32h42.667
	c5.888,0,10.667,4.779,10.667,10.667V490.674z"/>
<path d="M202.667,469.341c-3.925,0-7.68-2.176-9.557-5.888C173.653,424.477,47.957,362.674,10.667,362.674
	C4.779,362.674,0,357.895,0,352.007c0-5.888,4.779-10.667,10.667-10.667c44.416,0,177.963,65.408,201.536,112.555
	c2.645,5.269,0.491,11.669-4.779,14.315C205.909,468.978,204.288,469.341,202.667,469.341z"/>
<path d="M160,426.674c-4.224,0-8.235-2.539-9.899-6.699c-2.197-5.483,0.469-11.691,5.952-13.845
	c42.325-16.917,86.848-24.427,132.48-22.08c5.888,0.299,10.411,5.291,10.133,11.157c-0.277,5.867-5.205,10.901-11.157,10.133
	c-42.453-1.92-84.032,4.843-123.52,20.587C162.667,426.418,161.323,426.674,160,426.674z"/>
<path d="M501.333,469.341c-1.984,0-3.968-0.533-5.739-1.664c-26.197-16.661-54.229-30.699-83.371-41.685
	c-5.504-2.091-8.299-8.235-6.208-13.76c2.069-5.504,8.192-8.363,13.76-6.208c30.507,11.499,59.883,26.197,87.296,43.648
	c4.971,3.157,6.443,9.749,3.264,14.72C508.288,467.591,504.853,469.341,501.333,469.341z"/>
<path d="M181.333,277.341c-52.928,0-96-43.072-96-96s43.072-96,96-96s96,43.072,96,96S234.261,277.341,181.333,277.341z
	 M181.333,106.674c-41.173,0-74.667,33.493-74.667,74.667s33.493,74.667,74.667,74.667S256,222.514,256,181.341
	S222.507,106.674,181.333,106.674z"/>
<path d="M181.333,64.007c-5.888,0-10.667-4.779-10.667-10.667V10.674c0-5.888,4.779-10.667,10.667-10.667S192,4.786,192,10.674
	v42.667C192,59.229,187.221,64.007,181.333,64.007z"/>
<path d="M181.333,362.674c-5.888,0-10.667-4.779-10.667-10.667v-42.667c0-5.888,4.779-10.667,10.667-10.667S192,303.453,192,309.341
	v42.667C192,357.895,187.221,362.674,181.333,362.674z"/>
<path d="M117.333,81.159c-3.691,0-7.275-1.92-9.259-5.333L86.741,38.877c-2.923-5.099-1.173-11.627,3.925-14.571
	c5.077-2.965,11.605-1.195,14.571,3.904l21.333,36.949c2.944,5.099,1.195,11.627-3.904,14.571
	C120.981,80.711,119.147,81.159,117.333,81.159z"/>
<path d="M266.667,339.805c-3.691,0-7.275-1.92-9.259-5.333l-21.333-36.928c-2.944-5.099-1.195-11.627,3.904-14.571
	c5.077-2.987,11.627-1.195,14.571,3.904l21.333,36.928c2.944,5.099,1.195,11.627-3.904,14.571
	C270.315,339.335,268.48,339.805,266.667,339.805z"/>
<path d="M70.485,128.007c-1.813,0-3.648-0.448-5.333-1.429l-36.949-21.333c-5.099-2.944-6.869-9.472-3.904-14.571
	s9.472-6.869,14.571-3.904l36.949,21.333c5.099,2.944,6.848,9.472,3.904,14.571C77.76,126.087,74.176,128.007,70.485,128.007z"/>
<path d="M329.131,277.341c-1.813,0-3.648-0.448-5.333-1.429l-36.928-21.333c-5.099-2.944-6.848-9.472-3.904-14.571
	c2.944-5.12,9.472-6.827,14.571-3.904l36.928,21.333c5.099,2.944,6.848,9.472,3.904,14.571
	C336.405,275.442,332.8,277.341,329.131,277.341z"/>
<path d="M53.333,192.007H10.667C4.779,192.007,0,187.229,0,181.341s4.779-10.667,10.667-10.667h42.667
	c5.888,0,10.667,4.779,10.667,10.667S59.221,192.007,53.333,192.007z"/>
<path d="M352,192.007h-42.667c-5.888,0-10.667-4.779-10.667-10.667s4.779-10.667,10.667-10.667H352
	c5.888,0,10.667,4.779,10.667,10.667S357.888,192.007,352,192.007z"/>
<path d="M33.536,277.341c-3.691,0-7.275-1.92-9.259-5.333c-2.944-5.099-1.173-11.627,3.925-14.571l36.949-21.333
	c5.056-2.965,11.605-1.195,14.571,3.904c2.944,5.099,1.195,11.627-3.904,14.571l-36.949,21.333
	C37.184,276.893,35.349,277.341,33.536,277.341z"/>
<path d="M292.181,128.007c-3.669,0-7.275-1.899-9.237-5.333c-2.965-5.099-1.216-11.627,3.904-14.571l36.928-21.333
	c5.077-2.944,11.627-1.216,14.571,3.904c2.965,5.099,1.216,11.627-3.904,14.571l-36.928,21.333
	C295.829,127.559,293.995,128.007,292.181,128.007z"/>
<path d="M96,339.805c-1.813,0-3.648-0.448-5.333-1.429c-5.099-2.944-6.848-9.451-3.904-14.571l21.333-36.928
	c2.944-5.077,9.472-6.869,14.571-3.904c5.099,2.944,6.848,9.451,3.904,14.571l-21.333,36.928
	C103.253,337.885,99.669,339.805,96,339.805z"/>
<path d="M245.333,81.159c-1.813,0-3.648-0.448-5.333-1.429c-5.099-2.944-6.848-9.472-3.904-14.571l21.333-36.949
	c2.965-5.099,9.451-6.869,14.571-3.904c5.099,2.944,6.848,9.472,3.904,14.571l-21.333,36.949
	C252.587,79.239,249.003,81.159,245.333,81.159z"/>
<g>
</g>
<g>
</g>
<g>
</g>
<g>
</g>
<g>
</g>
<g>
</g>
<g>
</g>
<g>
</g>
<g>
</g>
<g>
</g>
<g>
</g>
<g>
</g>
<g>
</g>
<g>
</g>
<g>
</g>
</svg>
