<?xml version="1.0" encoding="iso-8859-1"?>
<!-- Generator: Adobe Illustrator 19.0.0, SVG Export Plug-In . SVG Version: 6.00 Build 0)  -->
<svg version="1.1" id="Capa_1" xmlns="http://www.w3.org/2000/svg" xmlns:xlink="http://www.w3.org/1999/xlink" x="0px" y="0px"
	 viewBox="0 0 512.16 512.16" style="enable-background:new 0 0 512.16 512.16;" xml:space="preserve">
<path style="fill:#009688;" d="M450.619,140.853c-12.011-10.176-27.883-14.549-43.413-11.968
	c-26.155,5.12-44.885,28.245-44.459,54.891v61.717c0,5.888-4.779,10.667-10.667,10.667h-21.333c-5.888,0-10.667-4.779-10.667-10.667
	V78.453c0.555-40.576-30.251-74.709-70.677-78.293c-20.544-1.365-40.704,6.059-55.467,20.416
	c-14.933,14.08-23.317,33.728-23.189,54.251v85.333c0,5.888-4.779,10.667-10.667,10.667c-5.888,0-10.667-4.779-10.667-10.667
	v-40.384c0.427-26.645-18.283-49.771-44.437-54.891C75.941,59.979,48.4,79.541,43.493,108.576c-0.491,2.944-0.747,5.931-0.747,8.917
	v85.333c0,41.237,33.429,74.667,74.667,74.667h53.333v224c0,5.888,4.779,10.667,10.667,10.667h128
	c5.888,0,10.667-4.779,10.667-10.667V362.827h74.667c41.237,0,74.667-33.429,74.667-74.667V181.493
	C469.413,165.856,462.544,150.987,450.619,140.853z"/>
<g>
	<path style="fill:#00796B;" d="M224.08,64.16c-5.888,0-10.667,4.779-10.667,10.667v138.667h-74.667c-17.664,0-32-14.336-32-32v-64
		c0-5.888-4.779-10.667-10.667-10.667s-10.667,4.779-10.667,10.667v64c0,29.461,23.872,53.333,53.333,53.333h74.667V512.16h21.333
		V74.827C234.747,68.939,229.968,64.16,224.08,64.16z"/>
	<path style="fill:#00796B;" d="M416.08,170.827c-5.888,0-10.667,4.779-10.667,10.667v85.333c0,17.664-14.336,32-32,32h-96v-224
		c0-5.888-4.779-10.667-10.667-10.667s-10.667,4.779-10.667,10.667V512.16h21.333v-192h96c29.461,0,53.333-23.872,53.333-53.333
		v-85.333C426.747,175.605,421.968,170.827,416.08,170.827z"/>
</g>
<path d="M224.08,512.16c-5.888,0-10.667-4.779-10.667-10.667V74.827c0-5.888,4.779-10.667,10.667-10.667s10.667,4.779,10.667,10.667
	v426.667C234.747,507.381,229.968,512.16,224.08,512.16z"/>
<path d="M266.747,512.16c-5.888,0-10.667-4.779-10.667-10.667V74.827c0-5.888,4.779-10.667,10.667-10.667
	s10.667,4.779,10.667,10.667v426.667C277.413,507.381,272.635,512.16,266.747,512.16z"/>
<path d="M224.08,234.827h-85.333c-29.397,0-53.333-23.936-53.333-53.333v-64c0-5.888,4.779-10.667,10.667-10.667
	s10.667,4.779,10.667,10.667v64c0,17.643,14.357,32,32,32h85.333c5.888,0,10.667,4.779,10.667,10.667
	S229.968,234.827,224.08,234.827z"/>
<path d="M309.413,512.16h-128c-5.888,0-10.667-4.779-10.667-10.667v-224h-53.333c-41.173,0-74.667-33.493-74.667-74.667v-85.333
	c0-3.029,0.256-6.037,0.768-9.003c2.368-14.037,10.091-26.304,21.717-34.539c11.627-8.256,25.749-11.477,39.808-9.067
	c26.432,5.333,44.971,28.48,44.373,55.125v40.149c0,5.888,4.779,10.667,10.667,10.667c5.888,0,10.667-4.779,10.667-10.667V74.827
	c0-1.365,0.021-2.731,0.107-4.096C173.051,29.6,208.165-2.187,249.424,0.16c40.661,3.605,71.531,38.08,70.656,78.507v166.827
	c0,5.888,4.8,10.667,10.667,10.667h21.333c5.867,0,10.667-4.779,10.667-10.667v-61.717c-0.576-26.411,17.941-49.557,44.053-54.827
	c0.107-0.021,0.213-0.043,0.32-0.043c17.067-2.901,34.517,2.688,46.699,14.891c10.069,10.069,15.616,23.467,15.595,37.696V288.16
	c0,41.173-33.493,74.667-74.667,74.667H320.08v138.667C320.08,507.381,315.301,512.16,309.413,512.16z M192.08,490.827h106.667
	V352.16c0-5.888,4.779-10.667,10.667-10.667h85.333c29.419,0,53.333-23.915,53.333-53.333V181.493
	c0-8.555-3.307-16.597-9.344-22.635c-7.275-7.296-17.643-10.667-27.861-8.96c-15.893,3.264-27.179,17.387-26.795,33.643v61.952
	c0,17.643-14.357,32-32,32h-21.333c-17.643,0-32-14.357-32-32V78.453c0.619-29.483-21.696-54.421-50.837-57.003
	c-28.544-1.515-54.165,21.056-55.744,50.411l-0.085,2.965v85.333c0,17.643-14.357,32-32,32s-32-14.357-32-32v-40.384
	c0.363-16.533-10.965-30.699-26.944-33.92c-8.107-1.365-16.597,0.555-23.573,5.504c-6.955,4.928-11.605,12.309-13.035,20.736
	c-0.299,1.792-0.448,3.584-0.448,5.397v85.333c0,29.397,23.936,53.333,53.333,53.333h64c5.888,0,10.667,4.779,10.667,10.667V490.827
	z"/>
<path d="M373.413,320.16H266.747c-5.888,0-10.667-4.779-10.667-10.667s4.779-10.667,10.667-10.667h106.667c17.643,0,32-14.357,32-32
	v-85.333c0-5.888,4.779-10.667,10.667-10.667s10.667,4.779,10.667,10.667v85.333C426.747,296.245,402.832,320.16,373.413,320.16z"/>
<g>
</g>
<g>
</g>
<g>
</g>
<g>
</g>
<g>
</g>
<g>
</g>
<g>
</g>
<g>
</g>
<g>
</g>
<g>
</g>
<g>
</g>
<g>
</g>
<g>
</g>
<g>
</g>
<g>
</g>
</svg>
