<?xml version="1.0" encoding="iso-8859-1"?>
<!-- Generator: Adobe Illustrator 19.0.0, SVG Export Plug-In . SVG Version: 6.00 Build 0)  -->
<svg version="1.1" id="Capa_1" xmlns="http://www.w3.org/2000/svg" xmlns:xlink="http://www.w3.org/1999/xlink" x="0px" y="0px"
	 viewBox="0 0 512.072 512.072" style="enable-background:new 0 0 512.072 512.072;" xml:space="preserve">
<path style="fill:#4CAF50;" d="M416.07,0.016H40.604C24.177-0.155,9.329,9.786,3.206,25.018c-6.464,15.125-2.965,32.64,8.789,44.139
	L442.929,500.09c7.488,7.616,17.685,11.925,28.373,11.968c5.419-0.021,10.773-1.088,15.765-3.179
	c15.232-6.123,25.152-20.971,25.003-37.397V96.016C512.07,43.002,469.084,0.016,416.07,0.016z"/>
<g>
	<path style="fill:#FAFAFA;" d="M298.737,245.349c-5.888,0-10.667-4.757-10.688-10.645c0-2.837,1.131-5.568,3.136-7.573l64-64
		c4.096-4.245,10.837-4.352,15.083-0.256c4.245,4.096,4.352,10.837,0.256,15.083c-0.085,0.085-0.171,0.171-0.256,0.256l-64,64
		C304.262,244.218,301.553,245.349,298.737,245.349z"/>
	<path style="fill:#FAFAFA;" d="M266.737,203.984c-8.832,0-17.28-3.541-23.467-9.835l-26.688-26.667
		c-4.16-4.16-4.16-10.923,0-15.083l32-32l0,0l32-32c4.16-4.16,10.923-4.16,15.083,0l26.539,26.816
		c12.949,13.013,12.949,34.048,0,47.061l-0.469,0.448c-5.867,5.696-13.653,9.024-21.824,9.301
		c-0.341,8.341-3.797,16.235-9.707,22.123l-0.469,0.448C283.59,200.613,275.334,203.984,266.737,203.984z M239.153,160.016
		l19.2,19.2c4.715,4.501,12.16,4.501,16.875,0l0.299-0.299c4.48-4.736,4.373-12.181-0.256-16.768l-19.2-19.2L239.153,160.016z
		 M290.353,147.216c4.715,4.501,12.16,4.501,16.875,0l0.299-0.299c4.48-4.736,4.373-12.181-0.256-16.768l-19.2-19.2l-16.917,17.067
		L290.353,147.216z"/>
	<path style="fill:#FAFAFA;" d="M373.404,307.493c-22.549,0.021-40.832-18.219-40.875-40.747
		c-0.021-10.859,4.288-21.269,11.989-28.949l21.333-21.333c15.957-15.957,41.792-15.957,57.749,0s15.957,41.792,0,57.749
		l-21.333,21.333C394.609,303.205,384.241,307.514,373.404,307.493z M394.737,225.85c-5.163,0-10.133,2.048-13.781,5.696
		l-21.333,21.333c-7.616,7.616-7.616,19.968,0,27.584c7.637,7.595,19.947,7.595,27.584,0l21.333-21.333
		c7.616-7.616,7.616-19.968-0.021-27.584C404.87,227.898,399.921,225.85,394.737,225.85L394.737,225.85z"/>
</g>
<path d="M471.537,511.93c-0.043,0-0.085,0-0.107,0c-10.624-0.021-20.992-4.331-28.501-11.84L11.996,69.157
	c-7.659-7.68-11.861-17.856-11.84-28.693s4.267-20.992,11.947-28.651C19.676,4.24,29.809,0.037,40.561,0.016H416.07
	c52.928,0,96,43.072,96,96v375.467c-0.021,10.859-4.267,21.013-11.968,28.672C492.465,507.749,482.31,511.93,471.537,511.93z
	 M40.604,21.349c-5.056,0-9.856,2.005-13.461,5.589c-3.627,3.627-5.653,8.448-5.653,13.568s1.984,9.941,5.589,13.589
	l430.933,430.912c3.563,3.541,7.872,6.016,13.525,5.589c10.56,0,19.179-8.576,19.2-19.136V96.016
	c0-41.173-33.493-74.667-74.667-74.667H40.604z"/>
<path d="M298.737,245.349c-2.731,0-5.461-1.045-7.552-3.115c-4.16-4.16-4.16-10.923,0-15.083l64-64c4.16-4.16,10.923-4.16,15.083,0
	s4.16,10.923,0,15.083l-64,64C304.198,244.304,301.468,245.349,298.737,245.349z"/>
<path d="M266.737,203.984c-8.512,0-17.024-3.243-23.509-9.707l-26.688-26.709c-4.16-4.16-4.16-10.923,0-15.083l64-64
	c1.984-2.005,4.693-3.136,7.531-3.136l0,0c2.837,0,5.547,1.131,7.552,3.115l26.667,26.688c6.293,6.272,9.749,14.635,9.771,23.531
	c0,8.896-3.456,17.259-9.749,23.552c-6.165,6.187-14.187,9.408-22.293,9.728c-0.299,8.427-3.733,16.277-9.707,22.272
	C283.804,200.72,275.27,203.984,266.737,203.984z M239.153,160.016l19.115,19.136c4.523,4.523,12.416,4.544,16.896,0
	c2.304-2.24,3.541-5.269,3.541-8.469c0-3.157-1.237-6.165-3.456-8.405c0,0,0,0-0.021,0l-19.157-19.179L239.153,160.016z
	 M290.289,147.152c4.672,4.672,12.245,4.672,16.917,0c2.261-2.261,3.499-5.269,3.499-8.469c0-3.179-1.237-6.187-3.499-8.448
	l-19.136-19.136l-16.917,16.917L290.289,147.152z"/>
<path d="M373.404,307.514c-10.901,0-21.163-4.245-28.885-11.968s-11.968-17.963-11.968-28.885c0-10.901,4.245-21.163,11.968-28.864
	l21.333-21.333c15.915-15.915,41.792-15.915,57.749-0.021c0,0,0,0,0,0.021c7.701,7.701,11.968,17.963,11.968,28.885
	c0,10.901-4.245,21.163-11.968,28.864l-21.333,21.333C394.566,303.269,384.326,307.514,373.404,307.514z M394.737,225.85
	c-5.205,0-10.112,2.027-13.781,5.717l-21.333,21.333c-3.691,3.691-5.717,8.576-5.717,13.781s2.027,10.112,5.717,13.781
	c7.381,7.381,20.203,7.381,27.584,0l21.333-21.333c3.691-3.691,5.717-8.576,5.717-13.781s-2.027-10.112-5.717-13.781
	C404.849,227.877,399.942,225.85,394.737,225.85z"/>
<g>
</g>
<g>
</g>
<g>
</g>
<g>
</g>
<g>
</g>
<g>
</g>
<g>
</g>
<g>
</g>
<g>
</g>
<g>
</g>
<g>
</g>
<g>
</g>
<g>
</g>
<g>
</g>
<g>
</g>
</svg>
