<?xml version="1.0" encoding="iso-8859-1"?>
<!-- Generator: Adobe Illustrator 19.0.0, SVG Export Plug-In . SVG Version: 6.00 Build 0)  -->
<svg version="1.1" id="Capa_1" xmlns="http://www.w3.org/2000/svg" xmlns:xlink="http://www.w3.org/1999/xlink" x="0px" y="0px"
	 viewBox="0 0 513.408 513.408" style="enable-background:new 0 0 513.408 513.408;" xml:space="preserve">
<g>
	<path style="fill:#607D8B;" d="M75.373,64H310.04c5.888,0,10.667,4.779,10.667,10.667v128c0,5.888-4.779,10.667-10.667,10.667
		H75.373c-5.888,0-10.667-4.779-10.667-10.667v-128C64.706,68.779,69.485,64,75.373,64z"/>
	<path style="fill:#607D8B;" d="M75.373,234.667H310.04c5.888,0,10.667,4.779,10.667,10.667v128c0,5.888-4.779,10.667-10.667,10.667
		H75.373c-5.888,0-10.667-4.779-10.667-10.667v-128C64.706,239.445,69.485,234.667,75.373,234.667z"/>
</g>
<g>
	<path style="fill:#455A64;" d="M310.04,192H75.373c-17.664,0-32,14.336-32,32s14.336,32,32,32H310.04c17.664,0,32-14.336,32-32
		S327.704,192,310.04,192L310.04,192z"/>
	<path style="fill:#455A64;" d="M310.04,362.667H75.373c-17.664,0-32,14.336-32,32c0,17.664,14.336,32,32,32H310.04
		c17.664,0,32-14.336,32-32C342.04,377.003,327.704,362.667,310.04,362.667L310.04,362.667z"/>
	<path style="fill:#455A64;" d="M310.04,21.333H75.373c-17.664,0-32,14.336-32,32s14.336,32,32,32H310.04c17.664,0,32-14.336,32-32
		S327.704,21.333,310.04,21.333L310.04,21.333z"/>
	<path style="fill:#455A64;" d="M139.373,21.333H96.706c-5.888,0-10.667-4.779-10.667-10.667S90.818,0,96.706,0h42.667
		c5.888,0,10.667,4.779,10.667,10.667S145.261,21.333,139.373,21.333z"/>
</g>
<path style="fill:#4CAF50;" d="M469.229,283.925c-1.643-3.989-5.547-6.592-9.856-6.592c-80.043,0-153.067,25.237-195.307,67.477
	c-38.784,37.696-39.659,99.712-1.963,138.496s99.712,39.659,138.496,1.963c0.661-0.64,1.323-1.301,1.963-1.963
	c18.261-18.261,23.808-51.989,29.675-87.68c6.4-38.4,12.8-78.293,34.667-100.075C469.954,292.501,470.872,287.915,469.229,283.925z"
	/>
<path style="fill:#388E3C;" d="M278.04,490.667c-5.888,0-10.667-4.779-10.667-10.667c0-56.235,67.797-117.333,85.333-117.333
	c5.888-0.427,11.008,4.011,11.435,9.899c0.427,5.888-4.011,11.008-9.899,11.435l0,0c-10.901,4.48-65.536,50.837-65.536,96
	C288.706,485.888,283.928,490.667,278.04,490.667z"/>
<path d="M310.04,256H75.373c-17.643,0-32-14.357-32-32s14.357-32,32-32H310.04c17.643,0,32,14.357,32,32S327.682,256,310.04,256z
	 M75.373,213.333c-5.888,0-10.667,4.779-10.667,10.667s4.779,10.667,10.667,10.667H310.04c5.867,0,10.667-4.779,10.667-10.667
	s-4.8-10.667-10.667-10.667H75.373z"/>
<path d="M310.04,85.333H75.373c-17.643,0-32-14.357-32-32s14.357-32,32-32H310.04c17.643,0,32,14.357,32,32
	S327.682,85.333,310.04,85.333z M75.373,42.667c-5.888,0-10.667,4.779-10.667,10.667S69.485,64,75.373,64H310.04
	c5.867,0,10.667-4.779,10.667-10.667s-4.8-10.667-10.667-10.667H75.373z"/>
<path d="M310.04,213.333H75.373c-5.888,0-10.667-4.779-10.667-10.667v-128C64.706,68.779,69.485,64,75.373,64H310.04
	c5.888,0,10.667,4.779,10.667,10.667v128C320.706,208.555,315.928,213.333,310.04,213.333z M86.04,192h213.333V85.333H86.04V192z"/>
<path d="M139.373,21.333H96.706c-5.888,0-10.667-4.779-10.667-10.667S90.818,0,96.706,0h42.667c5.888,0,10.667,4.779,10.667,10.667
	S145.261,21.333,139.373,21.333z"/>
<path d="M203.373,426.667h-128c-17.643,0-32-14.357-32-32c0-17.643,14.357-32,32-32h134.592c5.888,0,10.667,4.779,10.667,10.667
	S215.853,384,209.965,384H75.373c-5.888,0-10.667,4.8-10.667,10.667c0,5.867,4.779,10.667,10.667,10.667h128
	c5.888,0,10.667,4.779,10.667,10.667C214.04,421.888,209.261,426.667,203.373,426.667z"/>
<path d="M331.842,513.408c-25.301,0-49.216-9.579-67.563-27.115c-18.923-18.048-29.675-42.389-30.272-68.565
	c-0.619-26.155,9.003-50.987,27.072-69.888l3.2-3.2c42.048-42.091,115.051-67.307,195.093-67.307c4.309,0,8.213,2.603,9.856,6.592
	c1.643,3.989,0.725,8.576-2.304,11.627c-21.803,21.803-28.352,61.611-34.667,100.075c-5.867,35.605-11.392,69.248-29.568,87.552
	c-18.069,18.88-42.389,29.589-68.523,30.187C333.4,513.387,332.632,513.408,331.842,513.408z M437.506,299.328
	c-65.664,4.011-123.776,26.005-158.315,60.544l-2.773,2.773c-14.037,14.699-21.568,34.133-21.077,54.592
	c0.469,20.48,8.896,39.531,23.68,53.653c14.805,14.123,34.304,21.419,54.677,21.184c20.459-0.469,39.509-8.896,53.653-23.701
	c0.043-0.043,0.107-0.107,0.171-0.171c13.397-13.419,18.389-43.84,23.68-76.011C416.365,360.597,422.125,325.739,437.506,299.328z"
	/>
<path d="M278.04,490.667c-5.888,0-10.667-4.779-10.667-10.667c0-56.235,67.797-117.333,85.333-117.333
	c5.888,0,10.667,4.779,10.667,10.667c0,5.376-3.968,9.813-9.131,10.56c-10.88,4.459-65.536,50.837-65.536,96.107
	C288.706,485.888,283.928,490.667,278.04,490.667z"/>
<path d="M209.965,384H75.373c-5.888,0-10.667-4.779-10.667-10.667v-128c0-5.888,4.779-10.667,10.667-10.667H310.04
	c5.888,0,10.667,4.779,10.667,10.667v30.315c0,5.888-4.779,10.667-10.667,10.667s-10.667-4.779-10.667-10.667V256H86.04v106.667
	h123.925c5.888,0,10.667,4.779,10.667,10.667S215.853,384,209.965,384z"/>
<g>
</g>
<g>
</g>
<g>
</g>
<g>
</g>
<g>
</g>
<g>
</g>
<g>
</g>
<g>
</g>
<g>
</g>
<g>
</g>
<g>
</g>
<g>
</g>
<g>
</g>
<g>
</g>
<g>
</g>
</svg>
