<?xml version="1.0" encoding="iso-8859-1"?>
<!-- Generator: Adobe Illustrator 19.0.0, SVG Export Plug-In . SVG Version: 6.00 Build 0)  -->
<svg version="1.1" id="Capa_1" xmlns="http://www.w3.org/2000/svg" xmlns:xlink="http://www.w3.org/1999/xlink" x="0px" y="0px"
	 viewBox="0 0 512.341 512.341" style="enable-background:new 0 0 512.341 512.341;" xml:space="preserve">
<path style="fill:#4CAF50;" d="M245.389,6.592C243.746,2.603,239.842,0,235.533,0C155.49,0,82.466,25.237,40.226,67.477
	c-38.784,37.696-39.659,99.712-1.963,138.496s99.712,39.659,138.496,1.963c0.661-0.64,1.323-1.301,1.963-1.963
	c18.261-18.261,23.808-51.989,29.675-87.68c6.4-38.4,12.8-78.293,34.667-100.075C246.115,15.168,247.032,10.581,245.389,6.592z"/>
<path style="fill:#CFD8DC;" d="M256.866,512c-136.064,0-224-87.915-224-224c3.243-75.307,34.837-146.581,88.448-199.552
	c4.245-4.096,10.987-3.968,15.083,0.256c3.989,4.139,3.989,10.688,0,14.827C87.096,152.661,57.805,218.368,54.2,287.872
	c0,98.112,53.333,202.795,202.667,202.795c137.067,0,159.296-114.347,160.171-119.232c1.088-5.781,6.677-9.6,12.459-8.491
	c5.717,1.088,9.515,6.549,8.533,12.288C418.915,458.795,342.477,516.501,256.866,512z"/>
<g>
	<path style="fill:#90A4AE;" d="M384.866,256c-5.888,0-10.667-4.779-10.667-10.667V160c0-5.888,4.779-10.667,10.667-10.667
		c5.888,0,10.667,4.779,10.667,10.667v85.333C395.533,251.221,390.754,256,384.866,256z"/>
	<path style="fill:#90A4AE;" d="M470.2,256c-5.888,0-10.667-4.779-10.667-10.667V160c0-5.888,4.779-10.667,10.667-10.667
		s10.667,4.779,10.667,10.667v85.333C480.866,251.221,476.088,256,470.2,256z"/>
</g>
<path style="fill:#455A64;" d="M491.533,234.667h-128c-5.888,0-10.667,4.779-10.667,10.667v64c0,41.237,33.429,74.667,74.667,74.667
	s74.667-33.429,74.667-74.667v-64C502.2,239.445,497.421,234.667,491.533,234.667z"/>
<path d="M108.002,236.075c-25.301,0-49.216-9.579-67.563-27.115c-18.923-18.048-29.675-42.411-30.272-68.565
	S19.17,89.408,37.24,70.507c1.024-1.088,2.112-2.176,3.243-3.243C82.573,25.216,155.576,0,235.533,0
	c4.309,0,8.213,2.603,9.856,6.592c1.664,3.989,0.747,8.576-2.304,11.627c-21.803,21.803-28.352,61.589-34.667,100.075
	c-5.867,35.605-11.413,69.248-29.589,87.552c-18.048,18.88-42.368,29.589-68.48,30.208
	C109.56,236.053,108.792,236.075,108.002,236.075z M213.667,21.995C148.045,26.027,89.933,48.021,55.352,82.56l-2.645,2.645
	c-14.165,14.827-21.696,34.24-21.227,54.699c0.469,20.437,8.896,39.509,23.68,53.632c14.805,14.144,34.283,21.653,54.656,21.184
	c20.459-0.469,39.509-8.896,53.632-23.68c0.085-0.064,0.128-0.128,0.192-0.192c13.419-13.419,18.411-43.84,23.701-76.032
	C192.525,83.264,198.264,48.384,213.667,21.995z"/>
<path d="M267.341,512.341c-3.691,0-7.403-0.128-11.115-0.363h-0.043C120.76,511.979,32.866,424.064,32.866,288
	c3.605-75.776,35.029-146.475,88.469-199.552c4.181-4.181,10.923-4.139,15.104,0.021c4.139,4.203,4.117,10.944-0.043,15.104
	C86.712,152.896,57.528,218.581,54.2,288.491c0,97.493,53.248,202.176,202.667,202.176c76.352,4.779,143.552-45.611,160.277-119.68
	c1.301-5.76,6.955-9.387,12.757-8.043c5.76,1.301,9.344,6.997,8.043,12.757C419.746,456.363,348.962,512.32,267.341,512.341z"/>
<path d="M427.533,384c-41.173,0-74.667-33.493-74.667-74.667v-64c0-5.888,4.779-10.667,10.667-10.667h128
	c5.888,0,10.667,4.779,10.667,10.667v64C502.2,350.507,468.707,384,427.533,384z M374.2,256v53.333
	c0,29.419,23.915,53.333,53.333,53.333c29.419,0,53.333-23.915,53.333-53.333V256H374.2z"/>
<path d="M384.866,256c-5.888,0-10.667-4.779-10.667-10.667V160c0-5.888,4.779-10.667,10.667-10.667
	c5.888,0,10.667,4.779,10.667,10.667v85.333C395.533,251.221,390.754,256,384.866,256z"/>
<path d="M470.2,256c-5.888,0-10.667-4.779-10.667-10.667V160c0-5.888,4.779-10.667,10.667-10.667s10.667,4.779,10.667,10.667v85.333
	C480.866,251.221,476.088,256,470.2,256z"/>
<g>
</g>
<g>
</g>
<g>
</g>
<g>
</g>
<g>
</g>
<g>
</g>
<g>
</g>
<g>
</g>
<g>
</g>
<g>
</g>
<g>
</g>
<g>
</g>
<g>
</g>
<g>
</g>
<g>
</g>
</svg>
