<?xml version="1.0" encoding="iso-8859-1"?>
<!-- Generator: Adobe Illustrator 19.0.0, SVG Export Plug-In . SVG Version: 6.00 Build 0)  -->
<svg version="1.1" id="Capa_1" xmlns="http://www.w3.org/2000/svg" xmlns:xlink="http://www.w3.org/1999/xlink" x="0px" y="0px"
	 viewBox="0 0 512.021 512.021" style="enable-background:new 0 0 512.021 512.021;" xml:space="preserve">
<path style="fill:#4CAF50;" d="M508.907,216.459L295.573,3.125c-2.005-2.005-4.715-3.115-7.552-3.115H10.688
	C4.8,0.011,0.021,4.768,0,10.656c0,2.837,1.131,5.568,3.136,7.573l490.667,490.667c2.005,2.005,4.715,3.115,7.552,3.115
	c1.408,0,2.773-0.277,4.075-0.811c3.989-1.643,6.592-5.547,6.592-9.856V224.011C512.021,221.173,510.912,218.464,508.907,216.459z"
	/>
<g>
	<path style="fill:#FAFAFA;" d="M299.605,246.261c-5.888,0-10.667-4.757-10.688-10.645c0-2.837,1.131-5.568,3.136-7.573l64-64
		c4.181-4.181,10.987-4.181,15.168,0c4.181,4.181,4.181,10.987,0,15.168l0,0l-64,64
		C305.195,245.195,302.443,246.304,299.605,246.261z"/>
	<path style="fill:#FAFAFA;" d="M267.584,204.811c-8.811,0-17.237-3.499-23.467-9.728l-26.731-26.539
		c-4.16-4.16-4.16-10.923,0-15.083l32-32l0,0l32-32c4.16-4.16,10.923-4.16,15.083,0l26.667,26.667
		c12.949,13.056,12.843,34.133-0.213,47.061c-5.909,5.867-13.781,9.301-22.101,9.621c-0.704,17.877-15.403,32-33.301,32H267.584z
		 M240.021,160.928l19.2,19.2c4.821,4.523,12.395,4.288,16.917-0.512c4.331-4.608,4.331-11.797,0-16.405l-19.2-19.2L240.021,160.928
		z M291.221,148.128c4.821,4.523,12.395,4.288,16.917-0.512c4.331-4.608,4.331-11.797,0-16.405l-19.2-19.2l-16.917,16.917
		L291.221,148.128z"/>
	<path style="fill:#FAFAFA;" d="M374.272,308.405c-22.549,0.021-40.832-18.219-40.875-40.747
		c-0.021-10.859,4.288-21.269,11.989-28.949l21.333-21.333c16.149-15.445,41.6-15.445,57.749,0l0,0
		c15.957,15.936,15.957,41.792,0,57.749l0,0l-21.333,21.333C395.477,304.117,385.109,308.427,374.272,308.405z M395.605,226.763
		c-5.163-0.021-10.133,2.048-13.781,5.717l-21.333,21.333c-7.616,7.616-7.616,19.968,0,27.584c7.616,7.616,19.968,7.616,27.584,0
		l0,0l21.333-21.333c7.616-7.616,7.616-19.968,0-27.584l0,0C405.76,228.811,400.789,226.741,395.605,226.763z"/>
</g>
<path d="M501.355,512.011c-2.773,0-5.504-1.088-7.552-3.115L3.136,18.229c-3.051-3.072-3.968-7.637-2.304-11.627
	c1.643-3.989,5.547-6.592,9.856-6.592h277.333c2.837,0,5.547,1.131,7.552,3.115l213.333,213.333
	c1.984,2.005,3.115,4.715,3.115,7.552v277.333c0,4.309-2.603,8.213-6.592,9.856C504.128,511.733,502.72,512.011,501.355,512.011z
	 M36.437,21.344l454.251,454.251V228.427L283.605,21.344H36.437z"/>
<path d="M299.605,246.261c-2.731,0-5.461-1.045-7.552-3.115c-4.16-4.16-4.16-10.923,0-15.083l64-64c4.16-4.16,10.923-4.16,15.083,0
	s4.16,10.923,0,15.083l-64,64C305.067,245.216,302.336,246.261,299.605,246.261z"/>
<path d="M267.605,204.875c-8.512,0-17.024-3.243-23.509-9.707l-26.709-26.688c-2.005-2.005-3.115-4.715-3.115-7.552
	c0-2.816,1.131-5.547,3.115-7.552l31.957-31.957c0.021-0.043,0.021-0.021,0.085-0.085l31.957-31.957c4.16-4.16,10.923-4.16,15.083,0
	l26.688,26.667c6.293,6.272,9.749,14.635,9.749,23.531c0.021,8.896-3.435,17.259-9.728,23.552
	c-6.165,6.187-14.187,9.408-22.293,9.728c-0.299,8.427-3.733,16.277-9.707,22.272C284.693,201.611,276.16,204.875,267.605,204.875z
	 M240.021,160.928l19.136,19.115c4.523,4.523,12.395,4.544,16.917,0c2.261-2.261,3.499-5.269,3.499-8.469
	c0-3.179-1.237-6.187-3.499-8.448l-19.136-19.115L240.021,160.928z M291.157,148.043c4.672,4.651,12.245,4.672,16.917,0
	c2.261-2.261,3.499-5.269,3.499-8.469c0-3.179-1.237-6.187-3.499-8.448l-19.136-19.115l-16.917,16.917L291.157,148.043z"/>
<path d="M374.272,308.427c-10.901,0-21.163-4.245-28.885-11.968s-11.968-17.963-11.968-28.885c0-10.901,4.245-21.163,11.968-28.864
	l21.333-21.333c15.915-15.915,41.792-15.915,57.749-0.021c0,0,0,0,0,0.021c7.701,7.701,11.968,17.963,11.968,28.885
	c0,10.901-4.245,21.163-11.968,28.864l-21.333,21.333C395.435,304.181,385.195,308.427,374.272,308.427z M395.605,226.763
	c-5.205,0-10.112,2.027-13.781,5.717l-21.333,21.333c-3.691,3.691-5.717,8.576-5.717,13.781s2.027,10.112,5.717,13.781
	c7.381,7.381,20.203,7.381,27.584,0l21.333-21.333c3.691-3.691,5.717-8.576,5.717-13.781s-2.027-10.112-5.717-13.781
	C405.717,228.789,400.811,226.763,395.605,226.763z"/>
<g>
</g>
<g>
</g>
<g>
</g>
<g>
</g>
<g>
</g>
<g>
</g>
<g>
</g>
<g>
</g>
<g>
</g>
<g>
</g>
<g>
</g>
<g>
</g>
<g>
</g>
<g>
</g>
<g>
</g>
</svg>
